<?xml version="1.0" encoding="utf-8"?>
<!-- Generator: Adobe Illustrator 24.2.1, SVG Export Plug-In . SVG Version: 6.00 Build 0)  -->
<svg version="1.1" id="Layer_1" xmlns="http://www.w3.org/2000/svg" xmlns:xlink="http://www.w3.org/1999/xlink" x="0px" y="0px"
	 viewBox="0 0 1057.3 1057.3" style="enable-background:new 0 0 1057.3 1057.3;" xml:space="preserve">
<style type="text/css">
	.st0{fill:#784421;}
	.st1{fill-rule:evenodd;clip-rule:evenodd;fill:#190D05;}
</style>
<path class="st0" d="M800.7,960.7h-544c-88.4,0-160-71.6-160-160v-544c0-88.4,71.6-160,160-160h544c88.4,0,160,71.6,160,160v544
	C960.7,889,889,960.7,800.7,960.7z"/>
<path class="st1" d="M402.6,688.3c-27.7-42-44.7-97.8-44.9-159.1c-0.4-130.8,75.8-237.2,170.2-237.5c11.3,0,22.2,1.5,32.9,4.3
	c-27.9,23.7-48.6,55.9-58.4,91.1c-13.4,48.4-6.6,99.7-0.6,149.5c6,49.8,11,101.8-5.9,149.1c-7.8,22-20.4,42.3-36.5,59.3
	C437.8,731.8,418.4,712.3,402.6,688.3L402.6,688.3z M464.1,747.9c39-12.9,71.9-43.3,87.3-81.4c16.9-42,12.8-89.4,4.3-133.8
	c-8.4-44.5-20.8-88.8-19.6-134c0.9-35.5,10.4-70.7,27.3-101.9c77.4,22.4,135.8,117.3,136.2,231.3c0.4,130.8-75.8,237.2-170.2,237.5
	C506.3,765.6,484.2,759.3,464.1,747.9L464.1,747.9z M464.1,747.9"/>
</svg>
