<?xml version="1.0" encoding="utf-8"?>
<!-- Generator: Adobe Illustrator 24.2.1, SVG Export Plug-In . SVG Version: 6.00 Build 0)  -->
<svg version="1.1" id="Layer_1" xmlns="http://www.w3.org/2000/svg" xmlns:xlink="http://www.w3.org/1999/xlink" x="0px" y="0px"
	 viewBox="0 0 1057.3 1057.3" style="enable-background:new 0 0 1057.3 1057.3;" xml:space="preserve">
<style type="text/css">
	.st0{fill:#FFFFFF;}
</style>
<path d="M800.7,960.7h-544c-88.4,0-160-71.6-160-160v-544c0-88.4,71.6-160,160-160h544c88.4,0,160,71.6,160,160v544
	C960.7,889,889,960.7,800.7,960.7z"/>
<path class="st0" d="M488.7,740v-25.6c0,0,0-24.6-5.1-30.7c-4.3-9.2-29.9,3-48.1,6.1C325,700.1,273.9,579.3,333.2,505.6
	c-24.6-73.7,31.7-155.5,118.7-147.4c9.2-24.6,51.2-40.9,76.7-40.9c25.6,0,67.5,16.4,76.7,40.9c87-8.2,143.3,73.7,118.7,147.4
	c59.4,73.7,8.2,194.4-102.3,184.2c-18-3.8-40.2-15.7-48.1-6.1c-5.1,6.1-5.1,30.7-5.1,30.7V740H488.7z M509.2,590.1
	c0,31.7,11.3,32,8.2,48.6c-4.1,8.2-12,7.2-17.9,4.1c-40.9-24.6-68.6-80.8-125.9-68.6c33.3,16.4,42,53.2,60.9,70.6
	c21,15.9,64.5,6.1,72.7,16.4c13.3,8.7,10.2,32.7,10.2,53.2h22.5c0-20.5-3.1-44.5,10.2-53.2c8.2-10.2,51.7-0.5,72.7-16.4
	c18.9-17.4,27.6-54.2,60.9-70.6c-57.3-12.3-84.9,44-125.9,68.6c-6.1,3.1-13.8,4.1-17.9-4.1c-3.8-16.1,8.2-16.9,8.2-48.6
	c0-24.6-11.5-36.3-19.4-56.3C520.5,553.7,509.2,565.5,509.2,590.1L509.2,590.1z"/>
</svg>
