<?xml version="1.0" encoding="utf-8"?>
<!-- Generator: Adobe Illustrator 24.2.1, SVG Export Plug-In . SVG Version: 6.00 Build 0)  -->
<svg version="1.1" id="Layer_1" xmlns="http://www.w3.org/2000/svg" xmlns:xlink="http://www.w3.org/1999/xlink" x="0px" y="0px"
	 viewBox="0 0 1057.3 1057.3" style="enable-background:new 0 0 1057.3 1057.3;" xml:space="preserve">
<style type="text/css">
	.st0{fill:#EAEAEA;}
	.st1{fill:#595757;}
	.st2{fill:#F9B61B;}
</style>
<path class="st0" d="M800.7,960.7h-544c-88.4,0-160-71.6-160-160v-544c0-88.4,71.6-160,160-160h544c88.4,0,160,71.6,160,160v544
	C960.7,889,889,960.7,800.7,960.7z"/>
<g>
	<path class="st1" d="M531.1,279.7c13.3,36.4,28.9,66.4,48,94.4c6.8,10,2.4,16.7-1.8,24.5c-20,37.5-46.3,70.9-68.8,106.8
		c-7.7,12.4-15.4,24.9-21.5,38c-25.9,55.2-5.6,117.6,47.2,147.4c52,29.3,117.6,14.1,151.6-35.1c3.4-5,6.8-9.9,11.6-13.9
		c-12,58.4-46.2,99.4-100.7,122.5c-65.1,27.7-141.4,10.9-189.8-40.2c-49.5-52.2-60.5-122.8-29.2-189.1
		c18.8-39.7,44.4-75.3,69.1-111.5C477.2,379,507.6,334.2,531.1,279.7z"/>
	<path class="st2" d="M672.1,564.8c-3.4-7.3-10.6-21.3-15.4-29.6c-13.9-32.5-40.6-57.2-54.2-90c-2.1-5.2-8-7.3-11-0.7
		c-15.1,34.3-41,61.9-57.8,95.3c-2.9,5.7-7,12.6-9.6,21.1c-7.8,16.7-6.3,32.5-0.2,51.1c11.6,30.6,40.3,50.2,71.5,50.5
		c25,0.2,62.9-11.7,75.8-51.7C676.7,594.6,679.4,580.4,672.1,564.8z"/>
</g>
</svg>
