<?xml version="1.0" encoding="utf-8"?>
<!-- Generator: Adobe Illustrator 24.2.3, SVG Export Plug-In . SVG Version: 6.00 Build 0)  -->
<svg version="1.1" id="Layer_1" xmlns="http://www.w3.org/2000/svg" xmlns:xlink="http://www.w3.org/1999/xlink" x="0px" y="0px"
	 viewBox="0 0 40 40" style="enable-background:new 0 0 40 40;" xml:space="preserve">
<style type="text/css">
	.st0{fill:#0F103C;}
</style>
<path class="st0" d="M40,13.9v-0.5c0-1.7-0.9-3.3-2.4-4.1L22.4,0.6c-1.5-0.8-3.3-0.8-4.8,0L2.4,9.3C0.9,10.2,0,11.7,0,13.4v13.1
	c0,1.7,0.9,3.3,2.4,4.1l15.2,8.7c1.5,0.8,3.3,0.8,4.8,0l15.2-8.7c1.5-0.8,2.4-2.4,2.4-4.1v-0.5c0-1.7-0.9-3.3-2.4-4.1L34.2,20
	l3.4-1.9C39.1,17.2,40,15.6,40,13.9z M13.3,20l6.7-3.8l6.7,3.8L20,23.8L13.3,20z M4.3,12.5l13.6-7.8v8.3l-8.3,4.7l-5.3-3
	c-0.3-0.2-0.5-0.5-0.5-0.9v-0.5C3.7,13,4,12.7,4.3,12.5z M3.7,26.5v-7.7l14.1,8.1v8.3L4.3,27.5C4,27.3,3.7,26.9,3.7,26.5z
	 M36.3,26.1v0.5c0,0.4-0.2,0.7-0.5,0.9l-14.1,8.1v-8.3l8.8-5.1l5.3,3C36,25.3,36.3,25.7,36.3,26.1z M30.4,17.8l-8.8-5.1V4.4
	l14.1,8.1c0.3,0.2,0.5,0.5,0.5,0.9v0.5c0,0.4-0.2,0.7-0.5,0.9L30.4,17.8z"/>
</svg>
