<svg width="26" height="27" viewBox="0 0 26 27" fill="none" xmlns="http://www.w3.org/2000/svg">
<path fill-rule="evenodd" clip-rule="evenodd" d="M24.9049 10.535C24.1061 5.61827 19.9298 1.96047 14.9507 1.81648C14.714 1.8072 14.4832 1.89244 14.3094 2.0534C14.1356 2.21437 14.0329 2.43785 14.0239 2.67461V2.67461V2.7547L14.5846 11.1414C14.6213 11.706 15.1067 12.1352 15.6715 12.1025L24.0811 11.5419C24.3181 11.5244 24.5383 11.4131 24.6929 11.2327C24.8475 11.0523 24.9239 10.8176 24.9049 10.5808V10.535Z" stroke="#0333F7" stroke-width="2" stroke-linecap="round" stroke-linejoin="round"/>
<path d="M9.12701 6.80508C9.66196 6.68134 10.2094 6.95505 10.4314 7.45725C10.4895 7.57537 10.5245 7.70354 10.5343 7.83483C10.6487 9.45954 10.889 13.0179 11.0263 14.9401C11.0498 15.2863 11.2102 15.609 11.4722 15.8366C11.7342 16.0642 12.0761 16.178 12.4222 16.1529L19.4817 15.7181C19.7969 15.6992 20.1058 15.8113 20.3355 16.028C20.5652 16.2446 20.6951 16.5466 20.6945 16.8623C20.4084 21.1252 17.3456 24.689 13.1741 25.6128C9.00264 26.5366 4.7216 24.599 2.66248 20.8554C2.04779 19.778 1.65852 18.5868 1.51831 17.3543C1.45837 16.976 1.43538 16.5928 1.44966 16.2101C1.46181 11.6576 4.65905 7.73503 9.11557 6.80508" stroke="#0333F7" stroke-width="2" stroke-linecap="round" stroke-linejoin="round"/>
</svg>
