<svg width="36" height="40" viewBox="0 0 36 40" fill="none" xmlns="http://www.w3.org/2000/svg">
<path d="M33.6257 31.8968C32.7741 31.8645 32.116 32.4968 32.0386 33.4065C32.0193 33.671 31.9935 33.942 31.9225 34.1936C31.516 35.6194 30.3741 36.4581 28.8257 36.4645C25.8515 36.471 22.8773 36.4645 19.9031 36.4645H19.5547V34.0968C19.9547 34.0968 20.3354 34.1097 20.716 34.0968C22.4644 34.0323 24.0709 32.7871 24.6064 31.1032C25.1289 29.4387 24.5483 27.6194 23.1289 26.5549C22.9225 26.4 22.8773 26.2839 22.9676 26.0323C23.4709 24.6387 23.316 23.3161 22.4386 22.1032C21.787 21.2065 20.9096 20.6774 19.8257 20.4645C19.7225 20.4452 19.5483 20.3291 19.5483 20.2516C19.5289 19.471 19.5354 18.6839 19.5354 17.8774H19.9547C22.8773 17.8774 25.7999 17.8774 28.7225 17.8774C30.7547 17.8774 32.0386 19.1549 32.0386 21.1807C32.0386 22.6645 32.0322 24.1549 32.0451 25.6387C32.0451 25.8968 32.0902 26.1742 32.1805 26.4194C32.4386 27.0645 33.1547 27.4387 33.8257 27.3097C34.5612 27.1678 35.0773 26.5742 35.0838 25.8C35.0967 24.0839 35.1096 22.3678 35.0644 20.6581C35.0515 20.0839 34.9289 19.4903 34.7418 18.9484C33.8644 16.4129 31.587 14.8387 28.8451 14.8387C23.3547 14.8323 17.8644 14.8387 12.3741 14.8387H11.9096V14.4516C11.9096 12.8258 11.9225 11.2 11.9096 9.57421C11.8709 5.20002 16.4709 2.29034 20.5096 4.09679C22.7999 5.1226 23.9999 6.95486 24.116 9.47744C24.1547 10.4 24.8322 11.0581 25.7031 11.0194C26.5547 10.9807 27.1935 10.2903 27.1547 9.38712C27.1289 8.81937 27.0902 8.23873 26.9676 7.69034C25.8902 2.80002 21.0967 -0.309658 16.1935 0.690342C11.8515 1.54841 8.86442 5.20002 8.85797 9.63228C8.85797 11.2194 8.85797 12.8065 8.85797 14.3936V14.8258C8.14829 14.8258 7.49023 14.8065 6.83216 14.8258C3.63216 14.9226 0.987001 17.5161 0.948291 20.7161C0.896678 25.0065 0.883775 29.3032 0.954743 33.5936C0.993452 36.0065 2.21926 37.7871 4.36765 38.871C4.98055 39.1807 5.68377 39.3032 6.34184 39.5032H29.6773C29.7612 39.4774 29.8386 39.4387 29.9225 39.4258C32.8193 39 35.0515 36.4387 35.0902 33.5097C35.0967 32.6194 34.4773 31.9291 33.6257 31.8968ZM17.4128 23.4645C18.058 23.4645 18.7031 23.4194 19.3354 23.4774C19.858 23.5291 20.2386 24.0774 20.2064 24.5678C20.1676 25.1678 19.7418 25.5936 19.1289 25.6387C19.0515 25.6452 18.9741 25.6452 18.9031 25.6452H17.4193V23.4645H17.4128ZM16.4644 20.3871H15.7225C15.0967 20.3871 14.4773 20.3807 13.8515 20.3871C12.9483 20.4 12.2838 21.0645 12.2902 21.9161C12.2967 22.7549 12.9547 23.4 13.8322 23.4258C13.987 23.4323 14.1354 23.4258 14.316 23.4258V31.0516C14.1612 31.0516 13.9999 31.0452 13.8451 31.0516C12.9483 31.0774 12.2838 31.742 12.2902 32.5936C12.3031 33.4323 12.9612 34.0774 13.8451 34.0968C14.2773 34.1097 14.7096 34.0968 15.1418 34.0968H16.458V36.4516C16.3289 36.4581 16.2064 36.4645 16.0838 36.4645C13.1483 36.4645 10.2128 36.4645 7.27732 36.4645C5.25152 36.4645 3.9741 35.1807 3.9741 33.1549C3.9741 29.1291 3.9741 25.1032 3.9741 21.0774C3.9741 19.5355 4.81926 18.3871 6.24507 17.9871C6.52248 17.9097 6.81926 17.8774 7.10958 17.871C10.1483 17.8645 13.1805 17.8645 16.2193 17.8645C16.2902 17.8645 16.3676 17.871 16.458 17.8774V20.3871H16.4644ZM17.4128 31.0516V28.7097C18.516 28.7097 19.5999 28.671 20.6838 28.7226C21.3096 28.7549 21.7676 29.342 21.7418 29.9161C21.7096 30.4903 21.2064 31.0258 20.5999 31.0387C19.5483 31.071 18.4967 31.0516 17.4128 31.0516Z" fill="#121318"/>
</svg>
