<svg width="40" height="40" viewBox="0 0 40 40" fill="none" xmlns="http://www.w3.org/2000/svg">
<path d="M27.1098 39.3548C22.3743 39.3548 17.6324 39.3548 12.8969 39.3548C12.8775 39.3354 12.8646 39.3096 12.8453 39.3031C11.9937 38.9741 11.5743 38.3419 11.7033 37.587C11.8453 36.7935 12.4582 36.329 13.3743 36.329C14.9356 36.329 16.4969 36.329 18.0582 36.329C18.1937 36.329 18.3291 36.329 18.4646 36.329C18.4646 35.2967 18.4646 34.3096 18.4646 33.3096C18.284 33.3096 18.1356 33.3096 17.9872 33.3096C14.2259 33.3096 10.4582 33.3161 6.69688 33.3096C3.91623 33.2967 1.54849 31.4515 0.838812 28.7741C0.767844 28.4967 0.70978 28.2193 0.645264 27.9354C0.645264 22.4386 0.645264 16.9483 0.645264 11.4515C0.67107 11.3677 0.703328 11.2902 0.716231 11.2064C1.10333 8.59347 3.23236 6.46444 5.87107 6.16121C6.92914 6.03863 8.00655 6.09025 9.07752 6.08379C10.0582 6.07734 10.6711 6.6967 10.7098 7.67734C10.7291 8.23863 10.7743 8.81283 10.8646 9.36766C11.6711 14.1612 16.5098 17.5935 21.3033 16.7935C25.884 16.0322 29.0711 12.3225 29.1549 7.67734C29.1743 6.70315 29.7937 6.09025 30.7808 6.08379C31.6388 6.08379 32.4969 6.07734 33.3485 6.08379C36.084 6.10315 38.4453 7.93541 39.1549 10.5806C39.2324 10.8709 39.2969 11.1612 39.3614 11.4515C39.3614 14.2967 39.3614 17.1483 39.3614 19.9935C39.1872 20.4515 38.9485 20.8515 38.4775 21.0644C37.4582 21.5225 36.3485 20.7999 36.342 19.6515C36.3356 17.1419 36.3485 14.6386 36.3356 12.129C36.3291 10.6322 35.3033 9.40637 33.8259 9.17412C33.2775 9.09025 32.6969 9.16121 32.1033 9.16121C32.0775 9.34186 32.0453 9.54831 32.0066 9.75476C31.5162 12.4386 30.284 14.729 28.3033 16.6128C28.1937 16.7161 28.1098 16.9096 28.1098 17.058C28.0969 18.2451 28.0969 19.4257 28.1098 20.6128C28.1098 20.7483 28.1743 20.9096 28.2646 21.0064C28.7678 21.5354 29.284 22.058 29.8066 22.5612C29.8969 22.6451 30.0646 22.6773 30.1937 22.6902C30.5937 22.7225 31.0066 22.6644 31.3872 22.7612C32.6646 23.0902 33.5033 24.4128 33.284 25.6838C33.0388 27.0838 31.8517 28.0322 30.4646 27.929C29.1356 27.8322 28.084 26.7225 28.013 25.387C28.0066 25.1999 27.9098 24.9741 27.7743 24.8386C27.1033 24.1354 26.4324 23.4322 25.7227 22.7806C25.2582 22.3548 25.0453 21.8709 25.0646 21.2515C25.0904 20.4515 25.0711 19.6515 25.0711 18.8967C23.8775 19.2386 22.7162 19.5741 21.5162 19.9225C21.5162 20.8515 21.5227 21.8322 21.5098 22.8193C21.5033 23.0838 21.5807 23.2515 21.7808 23.4257C22.8646 24.3999 22.942 26.0386 21.9808 27.129C21.0259 28.2064 19.3743 28.3225 18.2775 27.3806C17.1807 26.4386 17.0001 24.7548 18.0001 23.7031C18.4324 23.2515 18.5162 22.8193 18.4969 22.2709C18.4711 21.5806 18.4904 20.8838 18.4904 20.1935C18.4904 20.0838 18.4775 19.9741 18.4711 19.8838C17.8517 19.7483 17.2582 19.6451 16.6775 19.4838C16.0969 19.3225 15.5356 19.1096 14.9356 18.9096C14.9356 19.7354 14.9227 20.5548 14.942 21.3677C14.9485 21.8902 14.7743 22.3225 14.4001 22.6838C13.7162 23.3548 13.0517 24.0386 12.3678 24.7096C12.1678 24.9031 12.0646 25.0902 12.0517 25.387C11.9872 26.858 10.6453 27.9935 9.1743 27.8515C7.69688 27.7096 6.59365 26.3419 6.79365 24.8902C7.0001 23.387 8.3872 22.3548 9.85817 22.5935C10.013 22.6193 10.2259 22.5483 10.342 22.4451C10.813 22.0128 11.2711 21.5548 11.7033 21.0838C11.8259 20.9548 11.9098 20.7419 11.9098 20.5612C11.9291 19.4644 11.9098 18.3677 11.9227 17.2709C11.9227 17.0257 11.8517 16.858 11.6646 16.6902C10.2517 15.4064 9.1743 13.8838 8.52268 12.0902C8.1743 11.1354 7.95494 10.1419 7.66462 9.1096C7.48397 9.1096 7.21946 9.1096 6.95494 9.1096C4.93559 9.1096 3.67752 10.3612 3.67752 12.3806C3.67752 17.258 3.67752 22.129 3.67752 27.0064C3.67752 29.0193 4.93559 30.2773 6.95494 30.2773C15.6453 30.2773 24.342 30.258 33.0324 30.2902C35.0324 30.2967 36.3614 28.8257 36.3485 27.1806C36.342 26.4644 36.8904 25.8967 37.5872 25.7612C38.2646 25.6322 38.9549 26.0128 39.2388 26.6773C39.2775 26.7677 39.3162 26.858 39.3549 26.9548C39.3549 27.2838 39.3549 27.6128 39.3549 27.9354C39.3356 27.9806 39.3033 28.0193 39.2969 28.0709C38.7549 31.2515 36.342 33.3031 33.1227 33.3031C29.4066 33.3031 25.6969 33.3031 21.9808 33.3031C21.8324 33.3031 21.6904 33.3031 21.542 33.3031C21.542 34.329 21.542 35.3161 21.542 36.3225C21.7098 36.3225 21.8453 36.3225 21.9808 36.3225C23.5937 36.3225 25.2001 36.316 26.813 36.329C27.4582 36.329 27.9937 36.716 28.213 37.2967C28.4324 37.8773 28.284 38.5548 27.813 38.9483C27.6066 39.1161 27.342 39.2193 27.1098 39.3548Z" fill="#121318"/>
<path d="M24.4645 7.83226C24.2968 7.63871 24.2839 7.50322 24.3678 7.27742C25.1161 5.30968 24.0452 3.11613 22.0452 2.49032C21.8065 2.4129 21.5548 2.37419 21.2968 2.31613C21.2968 1.46451 20.8645 0.922579 20.0774 0.651611H19.4C18.6903 0.96774 18.2258 1.45161 18.2581 2.32258C17.6323 2.32258 17.0258 2.30968 16.4258 2.32903C15.8065 2.34839 15.3419 2.64516 15.0839 3.2129C14.8258 3.76774 14.9097 4.29677 15.271 4.77419C15.5613 5.15484 15.9742 5.31613 16.4387 5.36774V10.8774C16.0387 11.0968 15.6452 11.2323 15.3678 11.4968C14.9032 11.929 14.8129 12.5032 15.0581 13.0968C15.3032 13.6903 15.7678 14.0064 16.4065 14.0323C17.0194 14.0581 17.6323 14.0387 18.2452 14.0387C18.3548 15.0194 18.9032 15.5935 19.7161 15.6258C20.5678 15.6581 21.1226 15.1161 21.329 14.071C21.3548 14.0645 21.3742 14.0452 21.4 14.0452C21.529 14.0387 21.6516 14.0452 21.7807 14.0387C23.3484 13.9677 24.5097 13.2452 25.1419 11.8129C25.7484 10.3613 25.4903 9.0129 24.4645 7.83226ZM19.4774 5.35484C20.0129 5.35484 20.5484 5.32903 21.0774 5.36774C21.3936 5.39355 21.6 5.71613 21.5807 6.01935C21.5613 6.32903 21.3226 6.6 21 6.6129C20.5032 6.63226 20.0065 6.61935 19.471 6.61935V5.35484H19.4774ZM21.7742 10.9935C21.0258 11.0129 20.271 11 19.4903 11V9.65161C20.2839 9.65161 21.0581 9.63226 21.8323 9.65806C22.1742 9.67097 22.4258 9.99355 22.4194 10.329C22.4129 10.6839 22.1484 10.9871 21.7742 10.9935Z" fill="#121318"/>
</svg>
