<svg width="40" height="40" viewBox="0 0 40 40" fill="none" xmlns="http://www.w3.org/2000/svg">
<path d="M39.3548 14.2516C39.2838 14.6967 39.2258 15.1484 39.129 15.5871C38.1096 20.3419 35.3096 23.5613 30.7419 25.2322C29.8709 25.5484 28.9999 25.1677 28.7096 24.3871C28.4064 23.5613 28.8064 22.7225 29.7096 22.4064C31.8516 21.658 33.5548 20.3613 34.8064 18.458C37.2774 14.6967 36.6322 9.3677 33.3225 6.32254C30.2064 3.45803 26.0387 2.87738 22.2516 4.78061C18.8709 6.47738 16.7225 10.4838 17.1548 14.2129C17.1999 14.6258 17.3419 14.8129 17.729 14.9484C19.058 15.4258 20.2516 16.1354 21.329 17.0516C21.4709 17.1742 21.6193 17.2838 21.7806 17.4193C22.0903 16.7613 22.5612 16.3742 23.2774 16.2645C23.4322 16.2387 23.6129 16.0258 23.6838 15.858C23.8322 15.5096 23.9161 15.129 24.0387 14.7354C23.8451 14.7161 23.7354 14.7096 23.6258 14.6903C22.929 14.5806 22.4128 14.0322 22.3419 13.3484C22.2709 12.6838 22.658 12.0193 23.3096 11.8064C23.6064 11.7096 23.6322 11.5613 23.5999 11.3096C23.4903 10.4709 23.5354 9.64512 23.9483 8.88383C24.5741 7.72899 25.5483 7.09028 26.858 7.01287C27.5741 6.9677 28.2967 6.98061 29.0128 7.00641C29.7677 7.03222 30.3612 7.63867 30.4193 8.38061C30.4774 9.12899 29.9935 9.84513 29.2451 9.9548C28.6128 10.0451 27.9677 10.0129 27.3225 10.0193C26.6645 10.0258 26.5483 10.1354 26.5806 10.8C26.5935 11.0838 26.6322 11.3742 26.658 11.6967C26.9806 11.6967 27.2774 11.6903 27.5806 11.6967C28.4774 11.7161 29.1419 12.3613 29.1419 13.2064C29.1419 14.058 28.4838 14.6967 27.5806 14.7161C27.4064 14.7225 27.2322 14.7161 27.0258 14.7161C26.9935 15.0129 26.9806 15.2903 26.9354 15.5548C26.8967 15.8129 26.8322 16.0709 26.7677 16.3742C27.5999 16.3742 28.3999 16.3742 29.2064 16.3742C29.4193 16.3742 29.6387 16.3677 29.8451 16.4C30.6193 16.5354 31.1548 17.2322 31.0967 18C31.0387 18.7742 30.4193 19.3742 29.6193 19.3871C28.4967 19.4064 27.3741 19.3935 26.2516 19.3935C25.3741 19.3935 24.4903 19.3935 23.5612 19.3935C23.6451 19.5419 23.7032 19.6451 23.7677 19.7484C25.4451 22.2967 26.1161 25.0967 25.8064 28.1225C25.6774 29.3935 25.329 30.6193 24.8258 31.7935C24.4903 32.5742 23.658 32.929 22.8903 32.6322C22.1161 32.3354 21.729 31.5225 22.0258 30.7161C22.4128 29.658 22.7419 28.6 22.8322 27.4709C23.2258 22.658 19.8387 18.2 15.0903 17.3032C10.2709 16.3935 5.57414 19.2 4.10317 23.8709C2.3935 29.2838 5.85801 35.0967 11.4387 36.1483C13.4516 36.529 15.3999 36.2967 17.2645 35.4387C17.458 35.3484 17.6516 35.2645 17.8516 35.1806C18.6516 34.8516 19.4838 35.1548 19.8387 35.8967C20.1935 36.6516 19.9161 37.4838 19.1483 37.8903C17.9161 38.5484 16.6064 38.9871 15.2258 39.1871C12.0258 39.658 9.05156 39.0387 6.35479 37.258C3.61285 35.4516 1.83221 32.929 1.02575 29.7354C-0.200052 24.9032 1.65801 19.6774 5.63221 16.6903C8.02575 14.8903 10.7225 14.0451 13.7096 14.1032C13.8322 14.1032 13.9548 14.1032 14.1612 14.1032C14.1612 13.4903 14.1161 12.9032 14.1677 12.3161C14.6193 7.59351 16.9806 4.1419 21.1741 1.94835C22.6064 1.19996 24.1483 0.799962 25.7677 0.690285C25.8387 0.683833 25.9096 0.658027 25.9806 0.638672C26.4838 0.638672 26.987 0.638672 27.4903 0.638672C27.7225 0.67093 27.9612 0.696736 28.1935 0.728995C30.5935 1.03222 32.7548 1.91609 34.6387 3.44512C36.7096 5.12254 38.1483 7.24512 38.8516 9.81932C39.0903 10.6967 39.1935 11.6129 39.3548 12.5161C39.3548 13.0967 39.3548 13.6709 39.3548 14.2516Z" fill="#121318"/>
<path d="M9.56129 0.64502C9.59354 0.664374 9.61935 0.690181 9.65161 0.703084C10.8452 1.14179 11.1419 2.37405 10.2581 3.29018C9.56774 4.00631 8.85806 4.70308 8.15483 5.40631C7.4 6.1676 7.4 6.90954 8.14838 7.67083C8.85806 8.38695 9.57419 9.09663 10.2774 9.81276C10.7032 10.2515 10.8774 10.7676 10.6903 11.3676C10.5097 11.9353 10.1161 12.2773 9.54193 12.3999C9.05161 12.5031 8.6 12.387 8.25161 12.0386C7.33548 11.1353 6.39354 10.2579 5.55483 9.29018C4.15483 7.65792 4.23225 5.20631 5.69032 3.62566C6.49032 2.7547 7.33548 1.92889 8.18709 1.10308C8.39354 0.903084 8.69677 0.793407 8.95484 0.64502C9.15484 0.64502 9.36129 0.64502 9.56129 0.64502Z" fill="#121318"/>
<path d="M14.7871 20.9613C14.8839 20.9806 14.9678 20.9871 15.0516 21.0065C15.8387 21.1871 16.3484 21.8581 16.2774 22.6258C16.2065 23.4 15.5871 23.9742 14.7742 23.9936C14.2194 24.0065 13.6645 23.9936 13.1097 24C12.6323 24 12.4194 24.1613 12.4258 24.5097C12.4323 24.8645 12.671 25.0387 13.1355 25.0581C13.6839 25.0839 14.2581 25.0516 14.7871 25.1936C16.3097 25.5871 17.2387 26.7097 17.4 28.2903C17.5484 29.7548 17.2129 31.0516 15.9419 31.9548C15.6581 32.1548 15.3161 32.271 15.0129 32.4387C14.9161 32.4968 14.7871 32.6194 14.7871 32.7097C14.7936 33.5936 14.1097 34.271 13.2774 34.2774C12.4194 34.2903 11.8452 33.6839 11.729 32.6194C11.4452 32.6194 11.1613 32.6258 10.8774 32.6194C9.98711 32.5936 9.32904 31.9419 9.3355 31.0903C9.34195 30.2581 9.99356 29.6129 10.871 29.6C11.7807 29.5871 12.6839 29.5936 13.5936 29.5936C14.2903 29.5936 14.4 29.4839 14.4 28.8258C14.4 28.1677 14.2968 28.071 13.5807 28.0774C12.7419 28.0839 11.9161 28.0452 11.1742 27.5871C9.97421 26.8516 9.38066 25.7613 9.41937 24.3742C9.45808 22.9742 10.1613 21.9419 11.4194 21.3226C11.6452 21.2129 11.7613 21.1097 11.7549 20.8323C11.7484 19.9161 12.3742 19.2581 13.2194 19.2387C14.0645 19.2194 14.7097 19.8516 14.7678 20.7613C14.7807 20.8258 14.7871 20.8903 14.7871 20.9613Z" fill="#121318"/>
<path d="M35.3483 33.4838C35.3225 34.5741 34.9806 35.5677 34.2128 36.3806C33.4128 37.2322 32.5806 38.0645 31.7419 38.8774C31.0902 39.5096 30.1741 39.4967 29.5741 38.8903C28.987 38.2967 28.987 37.3935 29.5999 36.7548C30.316 36.0064 31.0515 35.2903 31.7806 34.5548C32.4967 33.8322 32.4902 33.0709 31.7741 32.3419C31.058 31.6193 30.3225 30.9096 29.6193 30.1677C28.7483 29.2516 29.1419 27.8645 30.3354 27.5935C30.8386 27.4774 31.3031 27.5999 31.6644 27.9548C32.5612 28.8386 33.4644 29.7161 34.316 30.6451C35.0322 31.4322 35.329 32.4064 35.3483 33.4838Z" fill="#121318"/>
</svg>
