<svg width="25" height="26" viewBox="0 0 25 26" fill="none" xmlns="http://www.w3.org/2000/svg">
<path d="M0.427372 21.1522C0.427372 21.0222 0.427372 20.8922 0.427372 20.758C1.01205 19.2526 1.59269 17.7471 2.18544 16.2458C2.24995 16.0822 2.23786 15.9732 2.13705 15.8306C1.41931 14.799 0.907211 13.6668 0.649146 12.4213C0.556404 11.9684 0.49592 11.5071 0.42334 11.05C0.42334 10.6097 0.42334 10.1651 0.42334 9.72482C0.435437 9.66191 0.45963 9.59901 0.463662 9.53611C0.596727 7.93836 1.09673 6.47482 1.96769 5.15804C3.60882 2.67965 5.89511 1.2203 8.72173 0.649978C9.15721 0.561913 9.60479 0.519978 10.0443 0.452881C10.5161 0.452881 10.9879 0.452881 11.4596 0.452881C11.5201 0.465462 11.5806 0.490623 11.6411 0.494816C12.7621 0.578687 13.8508 0.817719 14.883 1.2832C18.3306 2.83482 20.508 5.43901 21.0362 9.39353C21.0483 9.46901 21.1048 9.55288 21.1612 9.6032C21.4637 9.8632 21.7822 10.1022 22.0766 10.3706C24.7621 12.8322 25.3629 16.9797 23.4556 20.1332C23.1975 20.5609 23.1693 20.8755 23.3629 21.32C23.7701 22.2635 24.125 23.2322 24.4879 24.2009C24.7137 24.8048 24.4032 25.4338 23.8104 25.5345C23.6008 25.5722 23.3508 25.5219 23.1532 25.4297C21.9112 24.8803 20.6814 24.3016 19.4435 23.7438C19.3467 23.7019 19.2096 23.6851 19.1129 23.7187C17.883 24.1548 16.625 24.3309 15.3306 24.1926C12.5967 23.9032 10.4072 22.6451 8.85479 20.2464C8.79834 20.1584 8.68141 20.0913 8.5806 20.0619C8.08463 19.9109 7.5806 19.7851 7.08866 19.6216C6.88705 19.5545 6.72576 19.5587 6.53221 19.6468C4.97173 20.3722 3.40318 21.0851 1.83866 21.8064C1.51608 21.9574 1.2056 21.9784 0.891082 21.798C0.645114 21.6555 0.528179 21.4122 0.427372 21.1522ZM20.9556 11.9642C20.9274 12.0858 20.9112 12.1655 20.8951 12.2451C20.6653 13.4026 20.2338 14.4719 19.6169 15.4616C19.4032 15.8013 19.0121 15.969 18.6572 15.8851C18.254 15.7887 18 15.5287 17.9072 15.1009C17.8387 14.778 17.9677 14.5138 18.1209 14.2497C19.7822 11.4526 19.4959 7.95094 17.4112 5.48514C15.9556 3.76578 14.1209 2.78449 11.9475 2.50353C9.27818 2.16385 6.87495 2.85159 4.83866 4.71353C3.25399 6.16449 2.37899 7.99707 2.32253 10.2113C2.27415 12.0522 2.85882 13.6751 3.97576 15.0926C4.29431 15.4951 4.37092 15.8935 4.16931 16.38C3.84269 17.1726 3.54028 17.9819 3.22979 18.7829C3.20157 18.8626 3.17737 18.9422 3.13302 19.068C3.28624 19.0009 3.38302 18.9548 3.48382 18.9087C4.41528 18.4809 5.35479 18.0574 6.28221 17.6213C6.62092 17.4619 6.93544 17.4619 7.27818 17.6045C9.82657 18.6403 12.3387 18.5564 14.8145 17.3319C15.3548 17.0635 15.9032 17.2355 16.1451 17.7471C16.3871 18.2587 16.1854 18.8164 15.6491 19.0932C14.6733 19.6006 13.6451 19.9445 12.5685 20.1164C12.1653 20.1835 11.754 20.2255 11.2903 20.2884C11.5766 20.5274 11.8064 20.7538 12.0645 20.9342C14.1572 22.3977 16.3911 22.6661 18.75 21.7561C19.1451 21.6009 19.5 21.5926 19.879 21.7855C20.4596 22.0748 21.0524 22.3306 21.6451 22.599C21.7056 22.6242 21.7661 22.6451 21.8709 22.6787C21.6572 22.1209 21.4758 21.6009 21.254 21.0977C21.0241 20.5735 21.1088 20.15 21.4516 19.7013C22.5483 18.2671 22.9274 16.64 22.5403 14.8451C22.2983 13.738 21.758 12.7945 20.9556 11.9642Z" fill="#0333F7"/>
<path d="M10.7702 4.41162C12.3911 4.4284 13.8347 5.61936 14.1976 7.25065C14.5685 8.92807 13.8145 10.639 12.3468 11.3813C11.9274 11.5952 11.6976 11.8594 11.6895 12.3668C11.6814 12.8784 11.2258 13.2642 10.7339 13.2516C10.2339 13.239 9.81855 12.8197 9.81855 12.2913C9.81855 11.1129 10.3185 10.2365 11.3468 9.72065C11.8669 9.46065 12.2339 9.07904 12.3629 8.48775C12.5806 7.49388 11.9395 6.54614 10.9637 6.39936C10.0242 6.26098 9.14516 7.03259 9.1129 8.03485C9.09677 8.48775 8.92742 8.82743 8.52016 9.00775C7.90726 9.28033 7.2379 8.81485 7.22177 8.11452C7.17742 6.37001 8.52016 4.71775 10.1895 4.47452C10.379 4.44936 10.5766 4.43259 10.7702 4.41162Z" fill="#0333F7"/>
<path d="M9.76598 15.3903C9.77405 14.8535 10.2095 14.4215 10.7297 14.4299C11.2458 14.4383 11.6611 14.8912 11.6531 15.4322C11.645 15.969 11.2095 16.4009 10.6894 16.3925C10.1732 16.3841 9.75792 15.9312 9.76598 15.3903Z" fill="#0333F7"/>
</svg>
