<svg width="180" height="30" viewBox="0 0 180 30" fill="none" xmlns="http://www.w3.org/2000/svg">
<path d="M30 10.4371V10.0792C30 8.80689 29.3177 7.61408 28.194 6.97792L16.8161 0.477123C15.6923 -0.159041 14.3278 -0.159041 13.204 0.477123L1.80602 6.97792C0.682274 7.61408 0 8.80689 0 10.0792V19.9199C0 21.1922 0.682274 22.385 1.80602 23.0212L13.1839 29.522C14.3077 30.1581 15.6722 30.1581 16.796 29.522L28.1739 23.0212C29.2977 22.385 29.9799 21.1922 29.9799 19.9199V19.562C29.9799 18.2897 29.2977 17.0969 28.1739 16.4607L25.6254 15.0095L28.1739 13.5582C29.2977 12.8823 30 11.7094 30 10.4371ZM9.97325 14.9896L14.99 12.1269L20.0067 14.9896L14.99 17.8523L9.97325 14.9896ZM3.2107 9.38342L13.3846 3.55854V9.82078L7.16388 13.3793L3.2107 11.113C2.9699 10.9738 2.80936 10.7154 2.80936 10.4172V10.0593C2.80936 9.78102 2.9699 9.52258 3.2107 9.38342ZM2.80936 19.9V14.095L13.3846 20.1386V26.4008L3.2107 20.5958C2.9699 20.4567 2.80936 20.1982 2.80936 19.9ZM27.1906 19.5422V19.9C27.1906 20.1783 27.0301 20.4368 26.7893 20.5958L16.214 26.6394V20.3771L22.8361 16.58L26.7893 18.8464C27.0301 19.0054 27.1906 19.2638 27.1906 19.5422ZM22.8361 13.3793L16.214 9.58222V3.31998L26.7893 9.36354C27.0301 9.5027 27.1906 9.76114 27.1906 10.0593V10.4172C27.1906 10.6955 27.0301 10.9539 26.7893 11.113L22.8361 13.3793Z" fill="white"/>
<path d="M46.6931 20.2801C45.5766 19.6456 44.6993 18.7731 44.0613 17.6428C43.4233 16.5126 43.1042 15.2436 43.1042 13.8159C43.1042 12.3882 43.4233 11.1192 44.0613 9.98892C44.6993 8.85868 45.5766 7.98621 46.6931 7.35168C47.8097 6.71716 49.0857 6.3999 50.5013 6.3999C51.8571 6.3999 53.0733 6.69733 54.15 7.27237C55.2267 7.84741 56.084 8.62073 56.7021 9.59234C57.3202 10.564 57.6591 11.6149 57.7389 12.765H54.3893C54.3295 12.1899 54.15 11.6347 53.8111 11.139C53.4721 10.6433 53.0335 10.2269 52.4553 9.92943C51.897 9.632 51.239 9.47337 50.5013 9.47337C49.2851 9.47337 48.3081 9.86994 47.5704 10.6631C46.8327 11.4562 46.4738 12.5072 46.4738 13.8357C46.4738 15.1444 46.8327 16.2152 47.5704 17.0083C48.3081 17.8015 49.2851 18.198 50.5013 18.198C51.259 18.198 51.9169 18.0394 52.4752 17.742C53.0335 17.4446 53.492 17.0281 53.8111 16.5126C54.1301 15.997 54.3295 15.4418 54.3893 14.8073H57.719C57.6591 15.9772 57.3003 17.048 56.6822 18.0394C56.0641 19.0309 55.2067 19.8042 54.1301 20.3792C53.0534 20.9543 51.8372 21.2517 50.4814 21.2517C49.0857 21.212 47.8097 20.8948 46.6931 20.2801Z" fill="white"/>
<path d="M59.2141 20.9346V10.5244H62.245V12.3487H62.4045C62.6039 11.6348 62.8831 11.1391 63.2819 10.8615C63.6807 10.5641 64.2589 10.4253 65.0565 10.4253H65.4155V13.4194H63.9997C62.8233 13.4194 62.245 14.0936 62.245 15.4618V20.9346H59.2141Z" fill="white"/>
<path d="M73.9087 10.5239H76.9992L73.0713 22.4014C72.7523 23.3928 72.3336 24.067 71.8551 24.4438C71.3766 24.8205 70.6787 24.999 69.7416 24.999H67.4687V22.3816H69.6419C69.961 22.3816 70.1803 22.3221 70.2999 22.2229C70.4395 22.1238 70.5392 21.9255 70.6189 21.6479L70.8382 20.9341H69.5423L65.7141 10.5239H68.9242L71.4763 18.1184H71.6557L73.9087 10.5239Z" fill="white"/>
<path d="M78.1155 24.999V10.524H81.1461V12.0706H81.3056C81.6246 11.4758 82.0832 11.0197 82.6813 10.7024C83.2595 10.3852 83.9374 10.2266 84.715 10.2266C85.6721 10.2266 86.5294 10.4645 87.2671 10.9206C88.0248 11.3965 88.603 12.031 89.0217 12.8638C89.4404 13.6966 89.6597 14.6286 89.6597 15.6993C89.6597 16.7701 89.4404 17.702 89.0217 18.5348C88.603 19.3676 88.0048 20.022 87.2671 20.4979C86.5095 20.9738 85.6721 21.1919 84.715 21.1919C83.9574 21.1919 83.2795 21.0333 82.6813 20.716C82.1031 20.3987 81.6445 19.9427 81.3056 19.3676H81.1461V24.9792H78.1155V24.999ZM85.7518 17.7417C86.2503 17.2261 86.4895 16.5519 86.4895 15.7191C86.4895 14.8863 86.2503 14.2122 85.7518 13.6966C85.2534 13.2009 84.6153 12.9431 83.7979 12.9431C83.0003 12.9431 82.3424 13.2009 81.8639 13.6966C81.3853 14.1923 81.1461 14.8665 81.1461 15.7191C81.1461 16.5519 81.3853 17.2261 81.8639 17.7417C82.3424 18.2572 83.0003 18.515 83.7979 18.515C84.6153 18.515 85.2733 18.2572 85.7518 17.7417Z" fill="white"/>
<path d="M97.7356 13.1417H95.2829V17.5238C95.2829 17.8411 95.3428 18.0592 95.4624 18.1584C95.582 18.2773 95.8014 18.3368 96.1005 18.3368H97.7356V20.9344H95.3428C94.2261 20.9344 93.4285 20.6965 92.95 20.2404C92.4714 19.7645 92.2521 18.9912 92.2521 17.8609V13.1417H90.3179V10.5441H92.2521V7.41113H95.2829V10.5441H97.7356V13.1417Z" fill="white"/>
<path d="M101.503 20.5179C100.646 20.042 99.9479 19.4075 99.4694 18.5549C98.9709 17.7221 98.7317 16.7703 98.7317 15.7193C98.7317 14.6684 98.9709 13.7166 99.4694 12.8838C99.9678 12.051 100.646 11.4165 101.503 10.9406C102.36 10.4647 103.357 10.2466 104.454 10.2466C105.551 10.2466 106.528 10.4845 107.405 10.9406C108.282 11.4165 108.96 12.051 109.439 12.8838C109.917 13.7166 110.156 14.6486 110.156 15.7193C110.156 16.7901 109.917 17.7221 109.439 18.5549C108.96 19.3877 108.282 20.042 107.405 20.5179C106.528 20.9938 105.551 21.2119 104.454 21.2119C103.357 21.2119 102.38 20.974 101.503 20.5179ZM106.288 17.7022C106.747 17.2065 106.966 16.5521 106.966 15.7193C106.966 14.8865 106.747 14.2322 106.288 13.7365C105.83 13.2407 105.212 13.0028 104.454 13.0028C103.696 13.0028 103.078 13.2407 102.62 13.7365C102.161 14.2322 101.922 14.8865 101.922 15.7193C101.922 16.5521 102.161 17.2065 102.62 17.7022C103.078 18.1979 103.696 18.4359 104.454 18.4359C105.232 18.4557 105.85 18.1979 106.288 17.7022Z" fill="white"/>
<path d="M117.673 20.2801C116.557 19.6456 115.679 18.7731 115.041 17.6428C114.403 16.5126 114.084 15.2436 114.084 13.8159C114.084 12.3882 114.403 11.1192 115.041 9.98892C115.679 8.85868 116.557 7.98621 117.673 7.35168C118.79 6.71716 120.066 6.3999 121.481 6.3999C122.837 6.3999 124.053 6.69733 125.13 7.27237C126.207 7.84741 127.064 8.62073 127.682 9.59234C128.3 10.564 128.639 11.6149 128.719 12.765H125.369C125.309 12.1899 125.13 11.6347 124.791 11.139C124.452 10.6433 124.013 10.2269 123.435 9.92943C122.877 9.632 122.219 9.47337 121.481 9.47337C120.265 9.47337 119.288 9.86994 118.55 10.6631C117.813 11.4562 117.454 12.5072 117.454 13.8357C117.454 15.1444 117.813 16.2152 118.55 17.0083C119.288 17.8015 120.265 18.198 121.481 18.198C122.239 18.198 122.897 18.0394 123.455 17.742C124.013 17.4446 124.472 17.0281 124.791 16.5126C125.11 15.997 125.309 15.4418 125.369 14.8073H128.699C128.639 15.9772 128.28 17.048 127.662 18.0394C127.044 19.0309 126.187 19.8042 125.11 20.3792C124.033 20.9543 122.817 21.2517 121.461 21.2517C120.066 21.212 118.81 20.8948 117.673 20.2801Z" fill="white"/>
<path d="M138.07 10.9208C138.907 11.3768 139.565 12.0114 140.044 12.8045C140.522 13.6175 140.742 14.5296 140.742 15.5409C140.742 15.8185 140.722 16.1159 140.682 16.3935H132.746C132.846 17.1074 133.145 17.6824 133.604 18.079C134.062 18.4755 134.66 18.6738 135.398 18.6738C135.996 18.6738 136.495 18.5549 136.874 18.2773C137.252 18.0195 137.492 17.7022 137.591 17.3255H140.562C140.462 18.0591 140.183 18.7135 139.725 19.3084C139.266 19.8834 138.648 20.3593 137.89 20.6964C137.133 21.0335 136.255 21.2119 135.298 21.2119C134.222 21.2119 133.245 20.974 132.407 20.5179C131.55 20.042 130.892 19.4075 130.414 18.5549C129.935 17.7221 129.696 16.7703 129.696 15.7193C129.696 14.6684 129.935 13.7365 130.414 12.9036C130.892 12.0708 131.55 11.4165 132.387 10.9406C133.225 10.4647 134.182 10.2466 135.239 10.2466C136.275 10.2466 137.213 10.4647 138.07 10.9208ZM133.723 13.2209C133.305 13.5183 133.006 13.9546 132.846 14.5296H137.751C137.571 13.9546 137.272 13.5183 136.834 13.2209C136.395 12.9235 135.877 12.7648 135.259 12.7648C134.68 12.7648 134.162 12.9235 133.723 13.2209Z" fill="white"/>
<path d="M142.097 20.9343V10.5242H145.128V11.9915H145.288C145.587 11.4165 146.006 10.9803 146.544 10.6828C147.082 10.3854 147.681 10.2466 148.359 10.2466C149.455 10.2466 150.333 10.6035 150.971 11.2975C151.609 12.0113 151.928 12.9631 151.928 14.1925V20.9343H148.897V15.0055C148.897 14.3313 148.737 13.8356 148.398 13.4787C148.079 13.1218 147.601 12.9433 147.003 12.9433C146.404 12.9433 145.926 13.1218 145.607 13.4787C145.268 13.8356 145.108 14.3512 145.108 14.9857V20.9145H142.097V20.9343Z" fill="white"/>
<path d="M160.362 13.1417H157.909V17.5238C157.909 17.8411 157.969 18.0592 158.088 18.1584C158.208 18.2773 158.427 18.3368 158.726 18.3368H160.362V20.9344H157.969C156.852 20.9344 156.054 20.6965 155.576 20.2404C155.097 19.7645 154.878 18.9912 154.878 17.8609V13.1417H152.944V10.5441H154.878V7.41113H157.909V10.5441H160.362V13.1417Z" fill="white"/>
<path d="M169.752 10.9208C170.589 11.3768 171.247 12.0114 171.726 12.8045C172.204 13.6175 172.424 14.5296 172.424 15.5409C172.424 15.8185 172.404 16.1159 172.364 16.3935H164.448C164.548 17.1074 164.847 17.6824 165.306 18.079C165.764 18.4755 166.362 18.6738 167.1 18.6738C167.698 18.6738 168.197 18.5549 168.575 18.2773C168.954 18.0195 169.194 17.7022 169.293 17.3255H172.264C172.164 18.0591 171.885 18.7135 171.427 19.3084C170.968 19.8834 170.35 20.3593 169.592 20.6964C168.835 21.0335 167.957 21.2119 167 21.2119C165.924 21.2119 164.947 20.974 164.109 20.5179C163.252 20.042 162.594 19.4075 162.116 18.5549C161.637 17.7221 161.398 16.7703 161.398 15.7193C161.398 14.6684 161.637 13.7365 162.116 12.9036C162.594 12.0708 163.252 11.4165 164.089 10.9406C164.927 10.4647 165.884 10.2466 166.941 10.2466C167.957 10.2466 168.914 10.4647 169.752 10.9208ZM165.425 13.2209C165.007 13.5183 164.707 13.9546 164.548 14.5296H169.453C169.273 13.9546 168.974 13.5183 168.536 13.2209C168.097 12.9235 167.579 12.7648 166.96 12.7648C166.362 12.7648 165.844 12.9235 165.425 13.2209Z" fill="white"/>
<path d="M173.799 20.9346V10.5244H176.83V12.3487H176.989C177.189 11.6348 177.468 11.1391 177.867 10.8615C178.266 10.5641 178.844 10.4253 179.641 10.4253H180V13.4194H178.585C177.408 13.4194 176.83 14.0936 176.83 15.4618V20.9346H173.799Z" fill="white"/>
</svg>
