<svg width="240" height="40" viewBox="0 0 240 40" fill="none" xmlns="http://www.w3.org/2000/svg">
<path d="M40 13.9148V13.4377C40 11.7415 39.0903 10.1512 37.592 9.30305L22.4214 0.636106C20.9231 -0.212035 19.1037 -0.212035 17.6053 0.636106L2.40803 9.30305C0.909699 10.1512 0 11.7415 0 13.4377V26.5574C0 28.2537 0.909699 29.844 2.40803 30.6921L17.5786 39.3591C19.0769 40.2072 20.8963 40.2072 22.3947 39.3591L37.5652 30.6921C39.0635 29.844 39.9732 28.2537 39.9732 26.5574V26.0804C39.9732 24.3841 39.0635 22.7938 37.5652 21.9457L34.1672 20.0108L37.5652 18.076C39.0635 17.1749 40 15.6111 40 13.9148ZM13.2977 19.9843L19.9866 16.1677L26.6756 19.9843L19.9866 23.801L13.2977 19.9843ZM4.28094 12.5101L17.8462 4.74429V13.0932L9.55184 17.8375L4.28094 14.816C3.95987 14.6304 3.74582 14.2859 3.74582 13.8883V13.4112C3.74582 13.0402 3.95987 12.6956 4.28094 12.5101ZM3.74582 26.5309V18.7916L17.8462 26.849V35.1979L4.28094 27.4586C3.95987 27.2731 3.74582 26.9285 3.74582 26.5309ZM36.2542 26.0538V26.5309C36.2542 26.902 36.0401 27.2466 35.7191 27.4586L21.6187 35.5159V27.167L30.4482 22.1047L35.7191 25.1262C36.0401 25.3382 36.2542 25.6828 36.2542 26.0538ZM30.4482 17.8375L21.6187 12.7751V4.42624L35.7191 12.4836C36.0401 12.6691 36.2542 13.0137 36.2542 13.4112V13.8883C36.2542 14.2594 36.0401 14.6039 35.7191 14.816L30.4482 17.8375Z" fill="white"/>
<path d="M62.2573 27.0375C60.7686 26.1916 59.5989 25.0284 58.7482 23.5215C57.8975 22.0147 57.4722 20.3228 57.4722 18.4194C57.4722 16.516 57.8975 14.8241 58.7482 13.3172C59.5989 11.8104 60.7686 10.6472 62.2573 9.80123C63.7461 8.95528 65.4474 8.5323 67.3349 8.5323C69.1427 8.5323 70.7643 8.92884 72.1999 9.69549C73.6354 10.4621 74.7785 11.4931 75.6026 12.7885C76.4268 14.0839 76.8787 15.485 76.985 17.0183H72.5189C72.4391 16.2516 72.1999 15.5114 71.7479 14.8505C71.296 14.1896 70.7111 13.6345 69.9402 13.2379C69.1958 12.8414 68.3186 12.6299 67.3349 12.6299C65.7133 12.6299 64.4107 13.1586 63.427 14.216C62.4434 15.2735 61.9649 16.6746 61.9649 18.4458C61.9649 20.1906 62.4434 21.6181 63.427 22.6756C64.4107 23.733 65.7133 24.2617 67.3349 24.2617C68.3451 24.2617 69.2224 24.0503 69.9668 23.6537C70.7111 23.2572 71.3226 22.702 71.7479 22.0147C72.1733 21.3273 72.4391 20.5871 72.5189 19.7412H76.9584C76.8787 21.3009 76.4002 22.7284 75.5761 24.0503C74.7519 25.3721 73.6088 26.4031 72.1733 27.1697C70.7377 27.9363 69.1161 28.3329 67.3084 28.3329C65.4475 28.28 63.7461 27.857 62.2573 27.0375Z" fill="white"/>
<path d="M78.9521 27.9099V14.031H82.993V16.4631H83.2056C83.4715 15.5114 83.8436 14.8505 84.3753 14.4804C84.907 14.0839 85.678 13.8988 86.7413 13.8988H87.2199V17.8907H85.3324C83.7639 17.8907 82.993 18.7895 82.993 20.6136V27.9099H78.9521Z" fill="white"/>
<path d="M98.5448 14.031H102.665L97.4283 29.8662C97.0029 31.188 96.4446 32.0868 95.8066 32.5891C95.1686 33.0914 94.2381 33.3293 92.9887 33.3293H89.9581V29.8398H92.8558C93.2811 29.8398 93.5735 29.7604 93.733 29.6283C93.9191 29.4961 94.0521 29.2317 94.1584 28.8616L94.4508 27.9099H92.7228L87.6187 14.031H91.8987L95.3015 24.156H95.5408L98.5448 14.031Z" fill="white"/>
<path d="M104.154 33.3293V14.031H108.195V16.093H108.408C108.833 15.2999 109.444 14.6919 110.242 14.2689C111.013 13.8459 111.917 13.6345 112.953 13.6345C114.229 13.6345 115.373 13.9517 116.356 14.5597C117.366 15.1942 118.137 16.0401 118.696 17.1505C119.254 18.2608 119.546 19.5033 119.546 20.9308C119.546 22.3583 119.254 23.6008 118.696 24.7112C118.137 25.8215 117.34 26.6939 116.356 27.3283C115.346 27.9628 114.229 28.2536 112.953 28.2536C111.943 28.2536 111.039 28.0421 110.242 27.6191C109.471 27.1961 108.859 26.5881 108.408 25.8215H108.195V33.3029H104.154V33.3293ZM114.336 23.6537C115 22.9664 115.319 22.0675 115.319 20.9572C115.319 19.8469 115 18.9481 114.336 18.2608C113.671 17.5999 112.821 17.2562 111.731 17.2562C110.667 17.2562 109.79 17.5999 109.152 18.2608C108.514 18.9217 108.195 19.8205 108.195 20.9572C108.195 22.0675 108.514 22.9664 109.152 23.6537C109.79 24.341 110.667 24.6847 111.731 24.6847C112.821 24.6847 113.698 24.341 114.336 23.6537Z" fill="white"/>
<path d="M130.313 17.5205H127.043V23.3629C127.043 23.7859 127.123 24.0767 127.283 24.2089C127.442 24.3675 127.735 24.4468 128.133 24.4468H130.313V27.9099H127.123C125.634 27.9099 124.571 27.5927 123.933 26.9847C123.295 26.3502 123.003 25.3192 123.003 23.8123V17.5205H120.424V14.0574H123.003V9.88054H127.043V14.0574H130.313V17.5205Z" fill="white"/>
<path d="M135.338 27.3548C134.194 26.7203 133.264 25.8743 132.626 24.7376C131.961 23.6273 131.642 22.3583 131.642 20.9572C131.642 19.5561 131.961 18.2872 132.626 17.1769C133.291 16.0666 134.194 15.2206 135.338 14.5862C136.481 13.9517 137.81 13.6609 139.272 13.6609C140.734 13.6609 142.037 13.9781 143.206 14.5862C144.376 15.2206 145.28 16.0666 145.918 17.1769C146.556 18.2872 146.875 19.5297 146.875 20.9572C146.875 22.3848 146.556 23.6273 145.918 24.7376C145.28 25.8479 144.376 26.7203 143.206 27.3548C142.037 27.9892 140.734 28.28 139.272 28.28C137.81 28.28 136.507 27.9628 135.338 27.3548ZM141.718 23.6008C142.329 22.9399 142.622 22.0675 142.622 20.9572C142.622 19.8469 142.329 18.9745 141.718 18.3136C141.106 17.6527 140.282 17.3355 139.272 17.3355C138.262 17.3355 137.438 17.6527 136.826 18.3136C136.215 18.9745 135.896 19.8469 135.896 20.9572C135.896 22.0675 136.215 22.9399 136.826 23.6008C137.438 24.2617 138.262 24.579 139.272 24.579C140.309 24.6054 141.133 24.2617 141.718 23.6008Z" fill="white"/>
<path d="M156.897 27.0375C155.409 26.1916 154.239 25.0284 153.388 23.5215C152.538 22.0147 152.112 20.3228 152.112 18.4194C152.112 16.516 152.538 14.8241 153.388 13.3172C154.239 11.8104 155.409 10.6472 156.897 9.80123C158.386 8.95528 160.088 8.5323 161.975 8.5323C163.783 8.5323 165.404 8.92884 166.84 9.69549C168.276 10.4621 169.419 11.4931 170.243 12.7885C171.067 14.0839 171.519 15.485 171.625 17.0183H167.159C167.079 16.2516 166.84 15.5114 166.388 14.8505C165.936 14.1896 165.351 13.6345 164.58 13.2379C163.836 12.8414 162.959 12.6299 161.975 12.6299C160.353 12.6299 159.051 13.1586 158.067 14.216C157.084 15.2735 156.605 16.6746 156.605 18.4458C156.605 20.1906 157.084 21.6181 158.067 22.6756C159.051 23.733 160.353 24.2617 161.975 24.2617C162.985 24.2617 163.863 24.0503 164.607 23.6537C165.351 23.2572 165.963 22.702 166.388 22.0147C166.813 21.3273 167.079 20.5871 167.159 19.7412H171.599C171.519 21.3009 171.04 22.7284 170.216 24.0503C169.392 25.3721 168.249 26.4031 166.813 27.1697C165.378 27.9363 163.756 28.3329 161.948 28.3329C160.088 28.28 158.413 27.857 156.897 27.0375Z" fill="white"/>
<path d="M184.093 14.5597C185.21 15.1678 186.087 16.0137 186.725 17.0711C187.363 18.155 187.655 19.3711 187.655 20.7193C187.655 21.0894 187.629 21.486 187.576 21.8561H176.995C177.128 22.8078 177.527 23.5744 178.138 24.1031C178.75 24.6318 179.547 24.8962 180.531 24.8962C181.328 24.8962 181.993 24.7376 182.498 24.3675C183.003 24.0238 183.322 23.6008 183.455 23.0986H187.416C187.283 24.0767 186.911 24.9491 186.3 25.7422C185.688 26.5088 184.864 27.1433 183.854 27.5927C182.844 28.0421 181.674 28.28 180.398 28.28C178.962 28.28 177.66 27.9628 176.543 27.3548C175.4 26.7203 174.523 25.8743 173.885 24.7376C173.247 23.6273 172.928 22.3583 172.928 20.9572C172.928 19.5561 173.247 18.3136 173.885 17.2033C174.523 16.093 175.4 15.2206 176.517 14.5862C177.633 13.9517 178.909 13.6609 180.318 13.6609C181.701 13.6609 182.95 13.9517 184.093 14.5597ZM178.298 17.6263C177.74 18.0228 177.341 18.6044 177.128 19.3711H183.668C183.429 18.6044 183.03 18.0228 182.445 17.6263C181.86 17.2298 181.169 17.0183 180.345 17.0183C179.574 17.0183 178.883 17.2298 178.298 17.6263Z" fill="white"/>
<path d="M189.463 27.9099V14.031H193.504V15.9873H193.717C194.115 15.2206 194.674 14.639 195.391 14.2425C196.109 13.8459 196.907 13.6609 197.811 13.6609C199.273 13.6609 200.442 14.1367 201.293 15.062C202.144 16.0137 202.569 17.2826 202.569 18.9217V27.9099H198.528V20.0055C198.528 19.1067 198.316 18.4458 197.864 17.97C197.438 17.4941 196.8 17.2562 196.003 17.2562C195.205 17.2562 194.567 17.4941 194.142 17.97C193.69 18.4458 193.477 19.1332 193.477 19.9791V27.8835H189.463V27.9099Z" fill="white"/>
<path d="M213.814 17.5205H210.545V23.3629C210.545 23.7859 210.624 24.0767 210.784 24.2089C210.943 24.3675 211.236 24.4468 211.634 24.4468H213.814V27.9099H210.624C209.136 27.9099 208.072 27.5927 207.434 26.9847C206.796 26.3502 206.504 25.3192 206.504 23.8123V17.5205H203.925V14.0574H206.504V9.88054H210.545V14.0574H213.814V17.5205Z" fill="white"/>
<path d="M226.336 14.5597C227.452 15.1678 228.329 16.0137 228.967 17.0711C229.605 18.155 229.898 19.3711 229.898 20.7193C229.898 21.0894 229.871 21.486 229.818 21.8561H219.264C219.397 22.8078 219.796 23.5744 220.407 24.1031C221.019 24.6318 221.816 24.8962 222.8 24.8962C223.597 24.8962 224.262 24.7376 224.767 24.3675C225.272 24.0238 225.591 23.6008 225.724 23.0986H229.685C229.552 24.0767 229.18 24.9491 228.569 25.7422C227.957 26.5088 227.133 27.1433 226.123 27.5927C225.113 28.0421 223.943 28.28 222.667 28.28C221.231 28.28 219.929 27.9628 218.812 27.3548C217.669 26.7203 216.792 25.8743 216.154 24.7376C215.516 23.6273 215.197 22.3583 215.197 20.9572C215.197 19.5561 215.516 18.3136 216.154 17.2033C216.792 16.093 217.669 15.2206 218.786 14.5862C219.902 13.9517 221.178 13.6609 222.587 13.6609C223.943 13.6609 225.219 13.9517 226.336 14.5597ZM220.567 17.6263C220.009 18.0228 219.61 18.6044 219.397 19.3711H225.937C225.698 18.6044 225.299 18.0228 224.714 17.6263C224.129 17.2298 223.438 17.0183 222.614 17.0183C221.816 17.0183 221.125 17.2298 220.567 17.6263Z" fill="white"/>
<path d="M231.732 27.9099V14.031H235.773V16.4631H235.986C236.252 15.5114 236.624 14.8505 237.155 14.4804C237.687 14.0839 238.458 13.8988 239.521 13.8988H240V17.8907H238.112C236.544 17.8907 235.773 18.7895 235.773 20.6136V27.9099H231.732Z" fill="white"/>
</svg>
