<?xml version="1.0" encoding="utf-8"?>
<!-- Generator: Adobe Illustrator 24.2.1, SVG Export Plug-In . SVG Version: 6.00 Build 0)  -->
<svg version="1.1" id="Layer_1" xmlns="http://www.w3.org/2000/svg" xmlns:xlink="http://www.w3.org/1999/xlink" x="0px" y="0px"
	 viewBox="0 0 1057.3 1057.3" style="enable-background:new 0 0 1057.3 1057.3;" xml:space="preserve">
<style type="text/css">
	.st0{fill:#FF9422;}
	.st1{fill-rule:evenodd;clip-rule:evenodd;fill:#F6F6F6;}
	.st2{display:none;}
	.st3{display:inline;}
	.st4{fill:#FA4051;}
	.st5{fill:#FFFFFF;}
	.st6{fill:#1739C9;}
	.st7{fill:#F5F5F5;}
	.st8{fill:#0C48B6;}
	.st9{fill:#FFE15A;}
	.st10{fill:#8C8C8C;}
	.st11{fill:#393939;}
	.st12{fill:#343434;}
	.st13{fill:#141414;}
	.st14{fill:#3C3C3B;}
	.st15{fill:#F8F9FD;}
	.st16{fill:#EF5350;}
	.st17{fill:#1E88E5;}
</style>
<image style="display:none;overflow:visible;" width="1903" height="1041" xlink:href="CF27FC1.html"  transform="matrix(1 0 0 1 -2041.9255 -728.6022)">
</image>
<g id="BTC_1_">
	<path class="st0" d="M509.9,744.9H157.4c-82.8,0-150-67.2-150-150V242.4c0-82.8,67.2-150,150-150h352.5c82.8,0,150,67.2,150,150
		v352.5C659.9,677.8,592.8,744.9,509.9,744.9z"/>
	<path class="st1" d="M436.4,432.4c22.9-4.6,40.3-18.5,45.5-47.9c7.2-40.1-24.5-62.4-68.2-77.8l15.4-54.3l-34.6-9l-15,52.9
		c-9.1-2.4-18.5-4.6-27.8-6.8l15.1-53.2l-34.6-9l-15.4,54.3c-7.5-1.8-14.9-3.6-22.1-5.4l0.1-0.2l-47.8-12.4l-10,35.3
		c0,0,25.7,6.2,25.2,6.5c14,3.6,16.4,12.6,15.8,19.6l-42.3,148.7c-1.8,4-6.3,10.1-16.1,7.6c0.3,0.5-25.2-6.5-25.2-6.5l-18.1,37.6
		l45.1,11.7c8.4,2.2,16.6,4.5,24.7,6.6l-15.6,54.9l34.6,9l15.4-54.3c9.4,2.6,18.6,5.1,27.6,7.4l-15.4,54.1l34.7,9l15.6-54.8
		c59.1,11.9,103.9,8.5,123.8-42.4C482.7,472.7,467.3,448.5,436.4,432.4z M341.6,328.6c19.5,5.1,82.7,15,71.6,54
		c-10.6,37.3-70.8,17.1-90.4,12C322.8,394.5,341.6,328.6,341.6,328.6z M292.6,500.6l20.7-72.7c23.5,6,98.9,18.7,86.8,61.5
		C388.4,530.4,316.1,506.6,292.6,500.6z"/>
</g>
<g class="st2">
	<g class="st3">
		<path class="st4" d="M741.6,462.7h302.9v-10.2c0-13.8-2-27.2-5.7-39.8H741.6V462.7z"/>
		<rect x="741.6" y="612.7" class="st4" width="302.9" height="50"/>
		<rect x="741.6" y="511.9" class="st4" width="302.9" height="50"/>
		<rect x="394.6" y="713.4" class="st4" width="650" height="50"/>
		<path class="st4" d="M534.6,962.5h370c43,0,81.5-19.4,107.2-50H427.3C453,943.1,491.5,962.5,534.6,962.5z"/>
		<path class="st4" d="M394.6,822.5c0,13.9,2,27.4,5.8,40.1h638.3c3.8-12.7,5.8-26.2,5.8-40.1v-9.9h-650V822.5z"/>
		<path class="st4" d="M1011.8,362.5c-25.7-30.6-64.2-50-107.2-50H741.6v50H1011.8z"/>
	</g>
	<g class="st3">
		<rect x="394.6" y="763.4" class="st5" width="650" height="49.2"/>
		<path class="st5" d="M427.3,912.5h584.5c12.1-14.4,21.4-31.4,26.9-49.9H400.4C405.9,881.1,415.2,898,427.3,912.5z"/>
		<polygon class="st5" points="394.6,662.7 394.6,713.4 1044.6,713.4 1044.6,662.7 741.6,662.7 741.6,662.7 		"/>
		<rect x="741.6" y="462.7" class="st5" width="302.9" height="49.2"/>
		<rect x="741.6" y="561.9" class="st5" width="302.9" height="50.8"/>
		<path class="st5" d="M1038.8,412.7c-5.5-18.7-14.8-35.7-27-50.2H741.6v50.2H1038.8z"/>
		<rect x="741.6" y="612.7" class="st6" width="0" height="50"/>
		<rect x="741.6" y="412.7" class="st6" width="0" height="50"/>
		<rect x="741.6" y="511.9" class="st6" width="0" height="50"/>
		<path class="st6" d="M741.6,511.9L741.6,511.9v-49.2l0,0v-50l0,0v-50.2l0,0v-50H534.6c-35,0-67,12.8-91.5,34.1l1.5,5.1l8.2,0
			c1.5,0,2.1,1.9,1,2.8l-6.4,5.2l3,7.5c0.5,1.5-1.2,2.7-2.4,1.8l-6.9-5.6l-6.5,5.8c-1.2,1-2.9-0.2-2.5-1.7l2.6-7.8l-2.7-2.1
			c-23.1,25-37.2,58.4-37.2,95.1v210.2h347.1v-50l0,0v-50.8l0,0V511.9z M453.7,628.4l-6.4,5.2l3,7.5c0.5,1.5-1.2,2.7-2.4,1.8
			l-6.9-5.6l-6.5,5.8c-1.2,1-2.9-0.2-2.5-1.7l2.6-7.8l-6.7-5.2c-1.2-0.9-0.5-2.8,1-2.8l8.3,0l2.1-7.6c0.4-1.5,2.6-1.5,3,0l2.2,7.7
			l8.2,0C454.1,625.6,454.8,627.5,453.7,628.4z M453.7,565.6l-6.4,5.2l3,7.5c0.5,1.5-1.2,2.7-2.4,1.8l-6.9-5.6l-6.5,5.8
			c-1.2,1-2.9-0.2-2.5-1.7l2.6-7.8l-6.7-5.2c-1.2-0.9-0.5-2.8,1-2.8l8.3,0l2.1-7.6c0.4-1.5,2.6-1.5,3,0l2.2,7.7l8.2,0
			C454.1,562.8,454.8,564.6,453.7,565.6z M453.7,496.8l-6.4,5.2l3,7.5c0.5,1.5-1.2,2.7-2.4,1.8l-6.9-5.6l-6.5,5.8
			c-1.2,1-2.9-0.2-2.5-1.7l2.6-7.8l-6.7-5.2c-1.2-0.9-0.5-2.8,1-2.8l8.3,0l2.1-7.6c0.4-1.5,2.6-1.5,3,0l2.2,7.7l8.2,0
			C454.1,494,454.8,495.9,453.7,496.8z M453.7,422l-6.4,5.2l3,7.5c0.5,1.5-1.2,2.7-2.4,1.8l-6.9-5.6l-6.5,5.8
			c-1.2,1-2.9-0.2-2.5-1.7l2.6-7.8l-6.7-5.2c-1.2-0.9-0.5-2.8,1-2.8l8.3,0l2.1-7.6c0.4-1.5,2.6-1.5,3,0l2.2,7.7l8.2,0
			C454.1,419.2,454.8,421,453.7,422z M486.8,596.2l-6.4,5.2l3,7.5c0.5,1.5-1.2,2.7-2.4,1.8l-6.9-5.6l-6.5,5.8
			c-1.2,1-2.9-0.2-2.5-1.7l2.6-7.8l-6.7-5.2c-1.2-0.9-0.5-2.8,1-2.8l8.3,0l2.1-7.6c0.4-1.5,2.6-1.5,3,0l2.2,7.7l8.2,0
			C487.3,593.4,487.9,595.3,486.8,596.2z M486.8,532.5l-6.4,5.2l3,7.5c0.5,1.5-1.2,2.7-2.4,1.8l-6.9-5.6l-6.5,5.8
			c-1.2,1-2.9-0.2-2.5-1.7l2.6-7.8l-6.7-5.2c-1.2-0.9-0.5-2.8,1-2.8l8.3,0l2.1-7.6c0.4-1.5,2.6-1.5,3,0l2.2,7.7l8.2,0
			C487.3,529.7,487.9,531.6,486.8,532.5z M486.8,461.5l-6.4,5.2l3,7.5c0.5,1.5-1.2,2.7-2.4,1.8l-6.9-5.6l-6.5,5.8
			c-1.2,1-2.9-0.2-2.5-1.7l2.6-7.8l-6.7-5.2c-1.2-0.9-0.5-2.8,1-2.8l8.3,0l2.1-7.6c0.4-1.5,2.6-1.5,3,0l2.2,7.7l8.2,0
			C487.3,458.7,487.9,460.5,486.8,461.5z M486.8,386.6l-6.4,5.2l3,7.5c0.5,1.5-1.2,2.7-2.4,1.8l-6.9-5.6l-6.5,5.8
			c-1.2,1-2.9-0.2-2.5-1.7l2.6-7.8l-6.7-5.2c-1.2-0.9-0.5-2.8,1-2.8l8.3,0l2.1-7.6c0.4-1.5,2.6-1.5,3,0l2.2,7.7l8.2,0
			C487.3,383.8,487.9,385.7,486.8,386.6z M519.9,628.4l-6.4,5.2l3,7.5c0.5,1.5-1.2,2.7-2.4,1.8l-6.9-5.6l-6.5,5.8
			c-1.2,1-2.9-0.2-2.5-1.7l2.6-7.8l-6.7-5.2c-1.2-0.9-0.5-2.8,1-2.8l8.3,0l2.1-7.6c0.4-1.5,2.6-1.5,3,0l2.2,7.7l8.2,0
			C520.4,625.6,521.1,627.5,519.9,628.4z M519.9,565.6l-6.4,5.2l3,7.5c0.5,1.5-1.2,2.7-2.4,1.8l-6.9-5.6l-6.5,5.8
			c-1.2,1-2.9-0.2-2.5-1.7l2.6-7.8l-6.7-5.2c-1.2-0.9-0.5-2.8,1-2.8l8.3,0l2.1-7.6c0.4-1.5,2.6-1.5,3,0l2.2,7.7l8.2,0
			C520.4,562.8,521.1,564.6,519.9,565.6z M519.9,496.8l-6.4,5.2l3,7.5c0.5,1.5-1.2,2.7-2.4,1.8l-6.9-5.6l-6.5,5.8
			c-1.2,1-2.9-0.2-2.5-1.7l2.6-7.8l-6.7-5.2c-1.2-0.9-0.5-2.8,1-2.8l8.3,0l2.1-7.6c0.4-1.5,2.6-1.5,3,0l2.2,7.7l8.2,0
			C520.4,494,521.1,495.9,519.9,496.8z M519.9,422l-6.4,5.2l3,7.5c0.5,1.5-1.2,2.7-2.4,1.8l-6.9-5.6l-6.5,5.8
			c-1.2,1-2.9-0.2-2.5-1.7l2.6-7.8l-6.7-5.2c-1.2-0.9-0.5-2.8,1-2.8l8.3,0l2.1-7.6c0.4-1.5,2.6-1.5,3,0l2.2,7.7l8.2,0
			C520.4,419.2,521.1,421,519.9,422z M519.9,354.4l-6.4,5.2l3,7.5c0.5,1.5-1.2,2.7-2.4,1.8l-6.9-5.6l-6.5,5.8
			c-1.2,1-2.9-0.2-2.5-1.7l2.6-7.8l-6.7-5.2c-1.2-0.9-0.5-2.8,1-2.8l8.3,0l2.1-7.6c0.4-1.5,2.6-1.5,3,0l2.2,7.7l8.2,0
			C520.4,351.6,521.1,353.4,519.9,354.4z M553,596.2l-6.4,5.2l3,7.5c0.5,1.5-1.2,2.7-2.4,1.8l-6.9-5.6l-6.5,5.8
			c-1.2,1-2.9-0.2-2.5-1.7l2.6-7.8l-6.7-5.2c-1.2-0.9-0.5-2.8,1-2.8l8.3,0l2.1-7.6c0.4-1.5,2.6-1.5,3,0l2.2,7.7l8.2,0
			C553.5,593.4,554.2,595.3,553,596.2z M553,532.5l-6.4,5.2l3,7.5c0.5,1.5-1.2,2.7-2.4,1.8l-6.9-5.6l-6.5,5.8
			c-1.2,1-2.9-0.2-2.5-1.7l2.6-7.8l-6.7-5.2c-1.2-0.9-0.5-2.8,1-2.8l8.3,0l2.1-7.6c0.4-1.5,2.6-1.5,3,0l2.2,7.7l8.2,0
			C553.5,529.7,554.2,531.6,553,532.5z M553,461.5l-6.4,5.2l3,7.5c0.5,1.5-1.2,2.7-2.4,1.8l-6.9-5.6l-6.5,5.8
			c-1.2,1-2.9-0.2-2.5-1.7l2.6-7.8l-6.7-5.2c-1.2-0.9-0.5-2.8,1-2.8l8.3,0l2.1-7.6c0.4-1.5,2.6-1.5,3,0l2.2,7.7l8.2,0
			C553.5,458.7,554.2,460.5,553,461.5z M553,386.6l-6.4,5.2l3,7.5c0.5,1.5-1.2,2.7-2.4,1.8l-6.9-5.6l-6.5,5.8
			c-1.2,1-2.9-0.2-2.5-1.7l2.6-7.8l-6.7-5.2c-1.2-0.9-0.5-2.8,1-2.8l8.3,0l2.1-7.6c0.4-1.5,2.6-1.5,3,0l2.2,7.7l8.2,0
			C553.5,383.8,554.2,385.7,553,386.6z M585.4,628.4l-6.4,5.2l3,7.5c0.5,1.5-1.2,2.7-2.4,1.8l-6.9-5.6l-6.5,5.8
			c-1.2,1-2.9-0.2-2.5-1.7l2.6-7.8l-6.7-5.2c-1.2-0.9-0.5-2.8,1-2.8l8.3,0l2.1-7.6c0.4-1.5,2.6-1.5,3,0l2.2,7.7l8.2,0
			C585.9,625.6,586.6,627.5,585.4,628.4z M585.4,565.6l-6.4,5.2l3,7.5c0.5,1.5-1.2,2.7-2.4,1.8l-6.9-5.6l-6.5,5.8
			c-1.2,1-2.9-0.2-2.5-1.7l2.6-7.8l-6.7-5.2c-1.2-0.9-0.5-2.8,1-2.8l8.3,0l2.1-7.6c0.4-1.5,2.6-1.5,3,0l2.2,7.7l8.2,0
			C585.9,562.8,586.6,564.6,585.4,565.6z M585.4,496.8l-6.4,5.2l3,7.5c0.5,1.5-1.2,2.7-2.4,1.8l-6.9-5.6l-6.5,5.8
			c-1.2,1-2.9-0.2-2.5-1.7l2.6-7.8l-6.7-5.2c-1.2-0.9-0.5-2.8,1-2.8l8.3,0l2.1-7.6c0.4-1.5,2.6-1.5,3,0l2.2,7.7l8.2,0
			C585.9,494,586.6,495.9,585.4,496.8z M585.4,422l-6.4,5.2l3,7.5c0.5,1.5-1.2,2.7-2.4,1.8l-6.9-5.6l-6.5,5.8
			c-1.2,1-2.9-0.2-2.5-1.7l2.6-7.8l-6.7-5.2c-1.2-0.9-0.5-2.8,1-2.8l8.3,0l2.1-7.6c0.4-1.5,2.6-1.5,3,0l2.2,7.7l8.2,0
			C585.9,419.2,586.6,421,585.4,422z M585.4,354.4l-6.4,5.2l3,7.5c0.5,1.5-1.2,2.7-2.4,1.8l-6.9-5.6l-6.5,5.8
			c-1.2,1-2.9-0.2-2.5-1.7l2.6-7.8l-6.7-5.2c-1.2-0.9-0.5-2.8,1-2.8l8.3,0l2.1-7.6c0.4-1.5,2.6-1.5,3,0l2.2,7.7l8.2,0
			C585.9,351.6,586.6,353.4,585.4,354.4z M618.5,596.2l-6.4,5.2l3,7.5c0.5,1.5-1.2,2.7-2.4,1.8l-6.9-5.6l-6.5,5.8
			c-1.2,1-2.9-0.2-2.5-1.7l2.6-7.8l-6.7-5.2c-1.2-0.9-0.5-2.8,1-2.8l8.3,0l2.1-7.6c0.4-1.5,2.6-1.5,3,0l2.2,7.7l8.2,0
			C619,593.4,619.7,595.3,618.5,596.2z M618.5,532.5l-6.4,5.2l3,7.5c0.5,1.5-1.2,2.7-2.4,1.8l-6.9-5.6l-6.5,5.8
			c-1.2,1-2.9-0.2-2.5-1.7l2.6-7.8l-6.7-5.2c-1.2-0.9-0.5-2.8,1-2.8l8.3,0l2.1-7.6c0.4-1.5,2.6-1.5,3,0l2.2,7.7l8.2,0
			C619,529.7,619.7,531.6,618.5,532.5z M618.5,461.5l-6.4,5.2l3,7.5c0.5,1.5-1.2,2.7-2.4,1.8l-6.9-5.6l-6.5,5.8
			c-1.2,1-2.9-0.2-2.5-1.7l2.6-7.8l-6.7-5.2c-1.2-0.9-0.5-2.8,1-2.8l8.3,0l2.1-7.6c0.4-1.5,2.6-1.5,3,0l2.2,7.7l8.2,0
			C619,458.7,619.7,460.5,618.5,461.5z M618.5,386.6l-6.4,5.2l3,7.5c0.5,1.5-1.2,2.7-2.4,1.8l-6.9-5.6l-6.5,5.8
			c-1.2,1-2.9-0.2-2.5-1.7l2.6-7.8l-6.7-5.2c-1.2-0.9-0.5-2.8,1-2.8l8.3,0l2.1-7.6c0.4-1.5,2.6-1.5,3,0l2.2,7.7l8.2,0
			C619,383.8,619.7,385.7,618.5,386.6z M650.8,628.4l-6.4,5.2l3,7.5c0.5,1.5-1.2,2.7-2.4,1.8l-6.9-5.6l-6.5,5.8
			c-1.2,1-2.9-0.2-2.5-1.7l2.6-7.8l-6.7-5.2c-1.2-0.9-0.5-2.8,1-2.8l8.3,0l2.1-7.6c0.4-1.5,2.6-1.5,3,0l2.2,7.7l8.2,0
			C651.2,625.6,651.9,627.5,650.8,628.4z M650.8,565.6l-6.4,5.2l3,7.5c0.5,1.5-1.2,2.7-2.4,1.8l-6.9-5.6l-6.5,5.8
			c-1.2,1-2.9-0.2-2.5-1.7l2.6-7.8l-6.7-5.2c-1.2-0.9-0.5-2.8,1-2.8l8.3,0l2.1-7.6c0.4-1.5,2.6-1.5,3,0l2.2,7.7l8.2,0
			C651.2,562.8,651.9,564.6,650.8,565.6z M650.8,496.8l-6.4,5.2l3,7.5c0.5,1.5-1.2,2.7-2.4,1.8l-6.9-5.6l-6.5,5.8
			c-1.2,1-2.9-0.2-2.5-1.7l2.6-7.8l-6.7-5.2c-1.2-0.9-0.5-2.8,1-2.8l8.3,0l2.1-7.6c0.4-1.5,2.6-1.5,3,0l2.2,7.7l8.2,0
			C651.2,494,651.9,495.9,650.8,496.8z M650.8,422l-6.4,5.2l3,7.5c0.5,1.5-1.2,2.7-2.4,1.8l-6.9-5.6l-6.5,5.8
			c-1.2,1-2.9-0.2-2.5-1.7l2.6-7.8l-6.7-5.2c-1.2-0.9-0.5-2.8,1-2.8l8.3,0l2.1-7.6c0.4-1.5,2.6-1.5,3,0l2.2,7.7l8.2,0
			C651.2,419.2,651.9,421,650.8,422z M650.8,354.4l-6.4,5.2l3,7.5c0.5,1.5-1.2,2.7-2.4,1.8l-6.9-5.6l-6.5,5.8
			c-1.2,1-2.9-0.2-2.5-1.7l2.6-7.8l-6.7-5.2c-1.2-0.9-0.5-2.8,1-2.8l8.3,0l2.1-7.6c0.4-1.5,2.6-1.5,3,0l2.2,7.7l8.2,0
			C651.2,351.6,651.9,353.4,650.8,354.4z M683.9,596.2l-6.4,5.2l3,7.5c0.5,1.5-1.2,2.7-2.4,1.8l-6.9-5.6l-6.5,5.8
			c-1.2,1-2.9-0.2-2.5-1.7l2.6-7.8l-6.7-5.2c-1.2-0.9-0.5-2.8,1-2.8l8.3,0l2.1-7.6c0.4-1.5,2.6-1.5,3,0l2.2,7.7l8.2,0
			C684.4,593.4,685,595.3,683.9,596.2z M683.9,532.5l-6.4,5.2l3,7.5c0.5,1.5-1.2,2.7-2.4,1.8l-6.9-5.6l-6.5,5.8
			c-1.2,1-2.9-0.2-2.5-1.7l2.6-7.8l-6.7-5.2c-1.2-0.9-0.5-2.8,1-2.8l8.3,0l2.1-7.6c0.4-1.5,2.6-1.5,3,0l2.2,7.7l8.2,0
			C684.4,529.7,685,531.6,683.9,532.5z M683.9,461.5l-6.4,5.2l3,7.5c0.5,1.5-1.2,2.7-2.4,1.8l-6.9-5.6l-6.5,5.8
			c-1.2,1-2.9-0.2-2.5-1.7l2.6-7.8l-6.7-5.2c-1.2-0.9-0.5-2.8,1-2.8l8.3,0l2.1-7.6c0.4-1.5,2.6-1.5,3,0l2.2,7.7l8.2,0
			C684.4,458.7,685,460.5,683.9,461.5z M683.9,386.6l-6.4,5.2l3,7.5c0.5,1.5-1.2,2.7-2.4,1.8l-6.9-5.6l-6.5,5.8
			c-1.2,1-2.9-0.2-2.5-1.7l2.6-7.8l-6.7-5.2c-1.2-0.9-0.5-2.8,1-2.8l8.3,0l2.1-7.6c0.4-1.5,2.6-1.5,3,0l2.2,7.7l8.2,0
			C684.4,383.8,685,385.7,683.9,386.6z M716.6,628.4l-6.4,5.2l3,7.5c0.5,1.5-1.2,2.7-2.4,1.8l-6.9-5.6l-6.5,5.8
			c-1.2,1-2.9-0.2-2.5-1.7l2.6-7.8l-6.7-5.2c-1.2-0.9-0.5-2.8,1-2.8l8.3,0l2.1-7.6c0.4-1.5,2.6-1.5,3,0l2.2,7.7l8.2,0
			C717.1,625.6,717.8,627.5,716.6,628.4z M716.6,565.6l-6.4,5.2l3,7.5c0.5,1.5-1.2,2.7-2.4,1.8l-6.9-5.6l-6.5,5.8
			c-1.2,1-2.9-0.2-2.5-1.7l2.6-7.8l-6.7-5.2c-1.2-0.9-0.5-2.8,1-2.8l8.3,0l2.1-7.6c0.4-1.5,2.6-1.5,3,0l2.2,7.7l8.2,0
			C717.1,562.8,717.8,564.6,716.6,565.6z M716.6,496.8l-6.4,5.2l3,7.5c0.5,1.5-1.2,2.7-2.4,1.8l-6.9-5.6l-6.5,5.8
			c-1.2,1-2.9-0.2-2.5-1.7l2.6-7.8l-6.7-5.2c-1.2-0.9-0.5-2.8,1-2.8l8.3,0l2.1-7.6c0.4-1.5,2.6-1.5,3,0l2.2,7.7l8.2,0
			C717.1,494,717.8,495.9,716.6,496.8z M716.6,422l-6.4,5.2l3,7.5c0.5,1.5-1.2,2.7-2.4,1.8l-6.9-5.6l-6.5,5.8
			c-1.2,1-2.9-0.2-2.5-1.7l2.6-7.8l-6.7-5.2c-1.2-0.9-0.5-2.8,1-2.8l8.3,0l2.1-7.6c0.4-1.5,2.6-1.5,3,0l2.2,7.7l8.2,0
			C717.1,419.2,717.8,421,716.6,422z M716.6,354.4l-6.4,5.2l3,7.5c0.5,1.5-1.2,2.7-2.4,1.8l-6.9-5.6l-6.5,5.8
			c-1.2,1-2.9-0.2-2.5-1.7l2.6-7.8l-6.7-5.2c-1.2-0.9-0.5-2.8,1-2.8l8.3,0l2.1-7.6c0.4-1.5,2.6-1.5,3,0l2.2,7.7l8.2,0
			C717.1,351.6,717.8,353.4,716.6,354.4z"/>
		<path class="st7" d="M452.7,625.6l-8.2,0l-2.2-7.7c-0.4-1.5-2.6-1.5-3,0l-2.1,7.6l-8.3,0c-1.5,0-2.2,1.9-1,2.8l6.7,5.2l-2.6,7.8
			c-0.5,1.5,1.3,2.7,2.5,1.7l6.5-5.8l6.9,5.6c1.3,0.9,3-0.3,2.4-1.8l-3-7.5l6.4-5.2C454.8,627.5,454.1,625.6,452.7,625.6z"/>
		<path class="st7" d="M485.8,593.4l-8.2,0l-2.2-7.7c-0.4-1.5-2.6-1.5-3,0l-2.1,7.6l-8.3,0c-1.5,0-2.2,1.9-1,2.8l6.7,5.2l-2.6,7.8
			c-0.5,1.5,1.3,2.7,2.5,1.7l6.5-5.8l6.9,5.6c1.3,0.9,3-0.3,2.4-1.8l-3-7.5l6.4-5.2C487.9,595.3,487.3,593.4,485.8,593.4z"/>
		<path class="st7" d="M452.7,562.8l-8.2,0l-2.2-7.7c-0.4-1.5-2.6-1.5-3,0l-2.1,7.6l-8.3,0c-1.5,0-2.2,1.9-1,2.8l6.7,5.2l-2.6,7.8
			c-0.5,1.5,1.3,2.7,2.5,1.7l6.5-5.8l6.9,5.6c1.3,0.9,3-0.3,2.4-1.8l-3-7.5l6.4-5.2C454.8,564.6,454.1,562.8,452.7,562.8z"/>
		<path class="st7" d="M485.8,529.7l-8.2,0l-2.2-7.7c-0.4-1.5-2.6-1.5-3,0l-2.1,7.6l-8.3,0c-1.5,0-2.2,1.9-1,2.8l6.7,5.2l-2.6,7.8
			c-0.5,1.5,1.3,2.7,2.5,1.7l6.5-5.8l6.9,5.6c1.3,0.9,3-0.3,2.4-1.8l-3-7.5l6.4-5.2C487.9,531.6,487.3,529.7,485.8,529.7z"/>
		<path class="st7" d="M452.7,494l-8.2,0l-2.2-7.7c-0.4-1.5-2.6-1.5-3,0l-2.1,7.6l-8.3,0c-1.5,0-2.2,1.9-1,2.8l6.7,5.2l-2.6,7.8
			c-0.5,1.5,1.3,2.7,2.5,1.7l6.5-5.8l6.9,5.6c1.3,0.9,3-0.3,2.4-1.8l-3-7.5l6.4-5.2C454.8,495.9,454.1,494,452.7,494z"/>
		<path class="st7" d="M485.8,458.7l-8.2,0l-2.2-7.7c-0.4-1.5-2.6-1.5-3,0l-2.1,7.6l-8.3,0c-1.5,0-2.2,1.9-1,2.8l6.7,5.2l-2.6,7.8
			c-0.5,1.5,1.3,2.7,2.5,1.7l6.5-5.8l6.9,5.6c1.3,0.9,3-0.3,2.4-1.8l-3-7.5l6.4-5.2C487.9,460.5,487.3,458.7,485.8,458.7z"/>
		<path class="st7" d="M452.7,419.2l-8.2,0l-2.2-7.7c-0.4-1.5-2.6-1.5-3,0l-2.1,7.6l-8.3,0c-1.5,0-2.2,1.9-1,2.8l6.7,5.2l-2.6,7.8
			c-0.5,1.5,1.3,2.7,2.5,1.7l6.5-5.8l6.9,5.6c1.3,0.9,3-0.3,2.4-1.8l-3-7.5l6.4-5.2C454.8,421,454.1,419.2,452.7,419.2z"/>
		<path class="st7" d="M431.8,357.4l2.7,2.1l-2.6,7.8c-0.5,1.5,1.3,2.7,2.5,1.7l6.5-5.8l6.9,5.6c1.3,0.9,3-0.3,2.4-1.8l-3-7.5
			l6.4-5.2c1.2-0.9,0.5-2.8-1-2.8l-8.2,0l-1.5-5.1C439.1,350,435.3,353.6,431.8,357.4z"/>
		<path class="st7" d="M485.8,383.8l-8.2,0l-2.2-7.7c-0.4-1.5-2.6-1.5-3,0l-2.1,7.6l-8.3,0c-1.5,0-2.2,1.9-1,2.8l6.7,5.2l-2.6,7.8
			c-0.5,1.5,1.3,2.7,2.5,1.7l6.5-5.8l6.9,5.6c1.3,0.9,3-0.3,2.4-1.8l-3-7.5l6.4-5.2C487.9,385.7,487.3,383.8,485.8,383.8z"/>
		<path class="st7" d="M518.9,625.6l-8.2,0l-2.2-7.7c-0.4-1.5-2.6-1.5-3,0l-2.1,7.6l-8.3,0c-1.5,0-2.2,1.9-1,2.8l6.7,5.2l-2.6,7.8
			c-0.5,1.5,1.3,2.7,2.5,1.7l6.5-5.8l6.9,5.6c1.3,0.9,3-0.3,2.4-1.8l-3-7.5l6.4-5.2C521.1,627.5,520.4,625.6,518.9,625.6z"/>
		<path class="st7" d="M552,593.4l-8.2,0l-2.2-7.7c-0.4-1.5-2.6-1.5-3,0l-2.1,7.6l-8.3,0c-1.5,0-2.2,1.9-1,2.8l6.7,5.2l-2.6,7.8
			c-0.5,1.5,1.3,2.7,2.5,1.7l6.5-5.8l6.9,5.6c1.3,0.9,3-0.3,2.4-1.8l-3-7.5l6.4-5.2C554.2,595.3,553.5,593.4,552,593.4z"/>
		<path class="st7" d="M518.9,562.8l-8.2,0l-2.2-7.7c-0.4-1.5-2.6-1.5-3,0l-2.1,7.6l-8.3,0c-1.5,0-2.2,1.9-1,2.8l6.7,5.2l-2.6,7.8
			c-0.5,1.5,1.3,2.7,2.5,1.7l6.5-5.8l6.9,5.6c1.3,0.9,3-0.3,2.4-1.8l-3-7.5l6.4-5.2C521.1,564.6,520.4,562.8,518.9,562.8z"/>
		<path class="st7" d="M552,529.7l-8.2,0l-2.2-7.7c-0.4-1.5-2.6-1.5-3,0l-2.1,7.6l-8.3,0c-1.5,0-2.2,1.9-1,2.8l6.7,5.2l-2.6,7.8
			c-0.5,1.5,1.3,2.7,2.5,1.7l6.5-5.8l6.9,5.6c1.3,0.9,3-0.3,2.4-1.8l-3-7.5l6.4-5.2C554.2,531.6,553.5,529.7,552,529.7z"/>
		<path class="st7" d="M518.9,494l-8.2,0l-2.2-7.7c-0.4-1.5-2.6-1.5-3,0l-2.1,7.6l-8.3,0c-1.5,0-2.2,1.9-1,2.8l6.7,5.2l-2.6,7.8
			c-0.5,1.5,1.3,2.7,2.5,1.7l6.5-5.8l6.9,5.6c1.3,0.9,3-0.3,2.4-1.8l-3-7.5l6.4-5.2C521.1,495.9,520.4,494,518.9,494z"/>
		<path class="st7" d="M552,458.7l-8.2,0l-2.2-7.7c-0.4-1.5-2.6-1.5-3,0l-2.1,7.6l-8.3,0c-1.5,0-2.2,1.9-1,2.8l6.7,5.2l-2.6,7.8
			c-0.5,1.5,1.3,2.7,2.5,1.7l6.5-5.8l6.9,5.6c1.3,0.9,3-0.3,2.4-1.8l-3-7.5l6.4-5.2C554.2,460.5,553.5,458.7,552,458.7z"/>
		<path class="st7" d="M518.9,419.2l-8.2,0l-2.2-7.7c-0.4-1.5-2.6-1.5-3,0l-2.1,7.6l-8.3,0c-1.5,0-2.2,1.9-1,2.8l6.7,5.2l-2.6,7.8
			c-0.5,1.5,1.3,2.7,2.5,1.7l6.5-5.8l6.9,5.6c1.3,0.9,3-0.3,2.4-1.8l-3-7.5l6.4-5.2C521.1,421,520.4,419.2,518.9,419.2z"/>
		<path class="st7" d="M518.9,351.6l-8.2,0l-2.2-7.7c-0.4-1.5-2.6-1.5-3,0l-2.1,7.6l-8.3,0c-1.5,0-2.2,1.9-1,2.8l6.7,5.2l-2.6,7.8
			c-0.5,1.5,1.3,2.7,2.5,1.7l6.5-5.8l6.9,5.6c1.3,0.9,3-0.3,2.4-1.8l-3-7.5l6.4-5.2C521.1,353.4,520.4,351.6,518.9,351.6z"/>
		<path class="st7" d="M552,383.8l-8.2,0l-2.2-7.7c-0.4-1.5-2.6-1.5-3,0l-2.1,7.6l-8.3,0c-1.5,0-2.2,1.9-1,2.8l6.7,5.2l-2.6,7.8
			c-0.5,1.5,1.3,2.7,2.5,1.7l6.5-5.8l6.9,5.6c1.3,0.9,3-0.3,2.4-1.8l-3-7.5l6.4-5.2C554.2,385.7,553.5,383.8,552,383.8z"/>
		<path class="st7" d="M584.4,625.6l-8.2,0L574,618c-0.4-1.5-2.6-1.5-3,0l-2.1,7.6l-8.3,0c-1.5,0-2.2,1.9-1,2.8l6.7,5.2l-2.6,7.8
			c-0.5,1.5,1.3,2.7,2.5,1.7l6.5-5.8l6.9,5.6c1.3,0.9,3-0.3,2.4-1.8l-3-7.5l6.4-5.2C586.6,627.5,585.9,625.6,584.4,625.6z"/>
		<path class="st7" d="M617.5,593.4l-8.2,0l-2.2-7.7c-0.4-1.5-2.6-1.5-3,0l-2.1,7.6l-8.3,0c-1.5,0-2.2,1.9-1,2.8l6.7,5.2l-2.6,7.8
			c-0.5,1.5,1.3,2.7,2.5,1.7l6.5-5.8l6.9,5.6c1.3,0.9,3-0.3,2.4-1.8l-3-7.5l6.4-5.2C619.7,595.3,619,593.4,617.5,593.4z"/>
		<path class="st7" d="M584.4,562.8l-8.2,0l-2.2-7.7c-0.4-1.5-2.6-1.5-3,0l-2.1,7.6l-8.3,0c-1.5,0-2.2,1.9-1,2.8l6.7,5.2l-2.6,7.8
			c-0.5,1.5,1.3,2.7,2.5,1.7l6.5-5.8l6.9,5.6c1.3,0.9,3-0.3,2.4-1.8l-3-7.5l6.4-5.2C586.6,564.6,585.9,562.8,584.4,562.8z"/>
		<path class="st7" d="M617.5,529.7l-8.2,0l-2.2-7.7c-0.4-1.5-2.6-1.5-3,0l-2.1,7.6l-8.3,0c-1.5,0-2.2,1.9-1,2.8l6.7,5.2l-2.6,7.8
			c-0.5,1.5,1.3,2.7,2.5,1.7l6.5-5.8l6.9,5.6c1.3,0.9,3-0.3,2.4-1.8l-3-7.5l6.4-5.2C619.7,531.6,619,529.7,617.5,529.7z"/>
		<path class="st7" d="M584.4,494l-8.2,0l-2.2-7.7c-0.4-1.5-2.6-1.5-3,0l-2.1,7.6l-8.3,0c-1.5,0-2.2,1.9-1,2.8l6.7,5.2l-2.6,7.8
			c-0.5,1.5,1.3,2.7,2.5,1.7l6.5-5.8l6.9,5.6c1.3,0.9,3-0.3,2.4-1.8l-3-7.5l6.4-5.2C586.6,495.9,585.9,494,584.4,494z"/>
		<path class="st7" d="M617.5,458.7l-8.2,0l-2.2-7.7c-0.4-1.5-2.6-1.5-3,0l-2.1,7.6l-8.3,0c-1.5,0-2.2,1.9-1,2.8l6.7,5.2l-2.6,7.8
			c-0.5,1.5,1.3,2.7,2.5,1.7l6.5-5.8l6.9,5.6c1.3,0.9,3-0.3,2.4-1.8l-3-7.5l6.4-5.2C619.7,460.5,619,458.7,617.5,458.7z"/>
		<path class="st7" d="M584.4,419.2l-8.2,0l-2.2-7.7c-0.4-1.5-2.6-1.5-3,0l-2.1,7.6l-8.3,0c-1.5,0-2.2,1.9-1,2.8l6.7,5.2l-2.6,7.8
			c-0.5,1.5,1.3,2.7,2.5,1.7l6.5-5.8l6.9,5.6c1.3,0.9,3-0.3,2.4-1.8l-3-7.5l6.4-5.2C586.6,421,585.9,419.2,584.4,419.2z"/>
		<path class="st7" d="M584.4,351.6l-8.2,0l-2.2-7.7c-0.4-1.5-2.6-1.5-3,0l-2.1,7.6l-8.3,0c-1.5,0-2.2,1.9-1,2.8l6.7,5.2l-2.6,7.8
			c-0.5,1.5,1.3,2.7,2.5,1.7l6.5-5.8l6.9,5.6c1.3,0.9,3-0.3,2.4-1.8l-3-7.5l6.4-5.2C586.6,353.4,585.9,351.6,584.4,351.6z"/>
		<path class="st7" d="M617.5,383.8l-8.2,0l-2.2-7.7c-0.4-1.5-2.6-1.5-3,0l-2.1,7.6l-8.3,0c-1.5,0-2.2,1.9-1,2.8l6.7,5.2l-2.6,7.8
			c-0.5,1.5,1.3,2.7,2.5,1.7l6.5-5.8l6.9,5.6c1.3,0.9,3-0.3,2.4-1.8l-3-7.5l6.4-5.2C619.7,385.7,619,383.8,617.5,383.8z"/>
		<path class="st7" d="M649.8,625.6l-8.2,0l-2.2-7.7c-0.4-1.5-2.6-1.5-3,0l-2.1,7.6l-8.3,0c-1.5,0-2.2,1.9-1,2.8l6.7,5.2l-2.6,7.8
			c-0.5,1.5,1.3,2.7,2.5,1.7l6.5-5.8l6.9,5.6c1.3,0.9,3-0.3,2.4-1.8l-3-7.5l6.4-5.2C651.9,627.5,651.2,625.6,649.8,625.6z"/>
		<path class="st7" d="M682.9,593.4l-8.2,0l-2.2-7.7c-0.4-1.5-2.6-1.5-3,0l-2.1,7.6l-8.3,0c-1.5,0-2.2,1.9-1,2.8l6.7,5.2l-2.6,7.8
			c-0.5,1.5,1.3,2.7,2.5,1.7l6.5-5.8l6.9,5.6c1.3,0.9,3-0.3,2.4-1.8l-3-7.5l6.4-5.2C685,595.3,684.4,593.4,682.9,593.4z"/>
		<path class="st7" d="M649.8,562.8l-8.2,0l-2.2-7.7c-0.4-1.5-2.6-1.5-3,0l-2.1,7.6l-8.3,0c-1.5,0-2.2,1.9-1,2.8l6.7,5.2l-2.6,7.8
			c-0.5,1.5,1.3,2.7,2.5,1.7l6.5-5.8l6.9,5.6c1.3,0.9,3-0.3,2.4-1.8l-3-7.5l6.4-5.2C651.9,564.6,651.2,562.8,649.8,562.8z"/>
		<path class="st7" d="M682.9,529.7l-8.2,0l-2.2-7.7c-0.4-1.5-2.6-1.5-3,0l-2.1,7.6l-8.3,0c-1.5,0-2.2,1.9-1,2.8l6.7,5.2l-2.6,7.8
			c-0.5,1.5,1.3,2.7,2.5,1.7l6.5-5.8l6.9,5.6c1.3,0.9,3-0.3,2.4-1.8l-3-7.5l6.4-5.2C685,531.6,684.4,529.7,682.9,529.7z"/>
		<path class="st7" d="M649.8,494l-8.2,0l-2.2-7.7c-0.4-1.5-2.6-1.5-3,0l-2.1,7.6l-8.3,0c-1.5,0-2.2,1.9-1,2.8l6.7,5.2l-2.6,7.8
			c-0.5,1.5,1.3,2.7,2.5,1.7l6.5-5.8l6.9,5.6c1.3,0.9,3-0.3,2.4-1.8l-3-7.5l6.4-5.2C651.9,495.9,651.2,494,649.8,494z"/>
		<path class="st7" d="M682.9,458.7l-8.2,0l-2.2-7.7c-0.4-1.5-2.6-1.5-3,0l-2.1,7.6l-8.3,0c-1.5,0-2.2,1.9-1,2.8l6.7,5.2l-2.6,7.8
			c-0.5,1.5,1.3,2.7,2.5,1.7l6.5-5.8l6.9,5.6c1.3,0.9,3-0.3,2.4-1.8l-3-7.5l6.4-5.2C685,460.5,684.4,458.7,682.9,458.7z"/>
		<path class="st7" d="M649.8,419.2l-8.2,0l-2.2-7.7c-0.4-1.5-2.6-1.5-3,0l-2.1,7.6l-8.3,0c-1.5,0-2.2,1.9-1,2.8l6.7,5.2l-2.6,7.8
			c-0.5,1.5,1.3,2.7,2.5,1.7l6.5-5.8l6.9,5.6c1.3,0.9,3-0.3,2.4-1.8l-3-7.5l6.4-5.2C651.9,421,651.2,419.2,649.8,419.2z"/>
		<path class="st7" d="M649.8,351.6l-8.2,0l-2.2-7.7c-0.4-1.5-2.6-1.5-3,0l-2.1,7.6l-8.3,0c-1.5,0-2.2,1.9-1,2.8l6.7,5.2l-2.6,7.8
			c-0.5,1.5,1.3,2.7,2.5,1.7l6.5-5.8l6.9,5.6c1.3,0.9,3-0.3,2.4-1.8l-3-7.5l6.4-5.2C651.9,353.4,651.2,351.6,649.8,351.6z"/>
		<path class="st7" d="M715.6,625.6l-8.2,0l-2.2-7.7c-0.4-1.5-2.6-1.5-3,0l-2.1,7.6l-8.3,0c-1.5,0-2.2,1.9-1,2.8l6.7,5.2l-2.6,7.8
			c-0.5,1.5,1.3,2.7,2.5,1.7l6.5-5.8l6.9,5.6c1.3,0.9,3-0.3,2.4-1.8l-3-7.5l6.4-5.2C717.8,627.5,717.1,625.6,715.6,625.6z"/>
		<path class="st7" d="M715.6,562.8l-8.2,0l-2.2-7.7c-0.4-1.5-2.6-1.5-3,0l-2.1,7.6l-8.3,0c-1.5,0-2.2,1.9-1,2.8l6.7,5.2l-2.6,7.8
			c-0.5,1.5,1.3,2.7,2.5,1.7l6.5-5.8l6.9,5.6c1.3,0.9,3-0.3,2.4-1.8l-3-7.5l6.4-5.2C717.8,564.6,717.1,562.8,715.6,562.8z"/>
		<path class="st7" d="M715.6,494l-8.2,0l-2.2-7.7c-0.4-1.5-2.6-1.5-3,0l-2.1,7.6l-8.3,0c-1.5,0-2.2,1.9-1,2.8l6.7,5.2l-2.6,7.8
			c-0.5,1.5,1.3,2.7,2.5,1.7l6.5-5.8l6.9,5.6c1.3,0.9,3-0.3,2.4-1.8l-3-7.5l6.4-5.2C717.8,495.9,717.1,494,715.6,494z"/>
		<path class="st7" d="M715.6,419.2l-8.2,0l-2.2-7.7c-0.4-1.5-2.6-1.5-3,0l-2.1,7.6l-8.3,0c-1.5,0-2.2,1.9-1,2.8l6.7,5.2l-2.6,7.8
			c-0.5,1.5,1.3,2.7,2.5,1.7l6.5-5.8l6.9,5.6c1.3,0.9,3-0.3,2.4-1.8l-3-7.5l6.4-5.2C717.8,421,717.1,419.2,715.6,419.2z"/>
		<path class="st7" d="M715.6,351.6l-8.2,0l-2.2-7.7c-0.4-1.5-2.6-1.5-3,0l-2.1,7.6l-8.3,0c-1.5,0-2.2,1.9-1,2.8l6.7,5.2l-2.6,7.8
			c-0.5,1.5,1.3,2.7,2.5,1.7l6.5-5.8l6.9,5.6c1.3,0.9,3-0.3,2.4-1.8l-3-7.5l6.4-5.2C717.8,353.4,717.1,351.6,715.6,351.6z"/>
		<path class="st7" d="M682.9,383.8l-8.2,0l-2.2-7.7c-0.4-1.5-2.6-1.5-3,0l-2.1,7.6l-8.3,0c-1.5,0-2.2,1.9-1,2.8l6.7,5.2l-2.6,7.8
			c-0.5,1.5,1.3,2.7,2.5,1.7l6.5-5.8l6.9,5.6c1.3,0.9,3-0.3,2.4-1.8l-3-7.5l6.4-5.2C685,385.7,684.4,383.8,682.9,383.8z"/>
	</g>
</g>
<g id="Euro">
	<path class="st8" d="M894.3,964.6H541.7c-82.8,0-150-67.2-150-150V462.1c0-82.8,67.2-150,150-150h352.5c82.8,0,150,67.2,150,150
		v352.5C1044.3,897.5,977.1,964.6,894.3,964.6z"/>
	<g>
		<g>
			<path class="st9" d="M639.2,462.9l4.2,14.6l15.6,0c2.8,0,4.1,3.5,1.9,5.3l-12.3,10l5.3,14.6c1,2.8-2.2,5.2-4.6,3.4l-12.5-9.5
				l-12.3,9.7c-2.3,1.8-5.6-0.4-4.7-3.2l4.6-15l-12.8-10c-2.3-1.8-1-5.4,1.9-5.4l15.9,0l4.1-14.4C634.2,460.1,638.3,460,639.2,462.9
				z"/>
			<path class="st9" d="M639.2,765.7l4.2,14.6l15.6,0c2.8,0,4.1,3.5,1.9,5.3l-12.3,10l5.3,14.6c1,2.8-2.2,5.2-4.6,3.4l-12.5-9.5
				l-12.3,9.7c-2.3,1.8-5.6-0.4-4.7-3.2l4.6-15l-12.8-10c-2.3-1.8-1-5.4,1.9-5.4l15.9,0l4.1-14.4
				C634.2,762.8,638.3,762.8,639.2,765.7z"/>
			<path class="st9" d="M575.2,526.9l4.2,14.6l15.6,0c2.8,0,4.1,3.5,1.9,5.3l-12.3,10l5.3,14.6c1,2.8-2.2,5.2-4.6,3.4l-12.5-9.5
				l-12.3,9.7c-2.3,1.8-5.6-0.4-4.7-3.2l4.6-15l-12.8-10c-2.3-1.8-1-5.4,1.9-5.4l15.9,0l4.1-14.4C570.3,524,574.4,524,575.2,526.9z"
				/>
			<path class="st9" d="M575.2,701.5l4.2,14.6l15.6,0c2.8,0,4.1,3.5,1.9,5.3l-12.3,10l5.3,14.6c1,2.8-2.2,5.2-4.6,3.4l-12.5-9.5
				l-12.3,9.7c-2.3,1.8-5.6-0.4-4.7-3.2l4.6-15l-12.8-10c-2.3-1.8-1-5.4,1.9-5.4l15.9,0l4.1-14.4
				C570.3,698.7,574.4,698.6,575.2,701.5z"/>
			<path class="st9" d="M549.2,618.1l4.2,14.6l15.6,0c2.8,0,4.1,3.5,1.9,5.3l-12.3,10l5.3,14.6c1,2.8-2.2,5.2-4.6,3.4l-12.5-9.5
				l-12.3,9.7c-2.3,1.8-5.6-0.4-4.7-3.2l4.6-15l-12.8-10c-2.3-1.8-1-5.4,1.9-5.4l15.9,0l4.1-14.4
				C544.3,615.2,548.4,615.2,549.2,618.1z"/>
			<path class="st9" d="M723.8,443.4L728,458l15.6,0c2.8,0,4.1,3.5,1.9,5.3l-12.3,10l5.3,14.6c1,2.8-2.2,5.2-4.6,3.4l-12.5-9.5
				l-12.3,9.7c-2.3,1.8-5.6-0.4-4.7-3.2l4.6-15l-12.8-10c-2.3-1.8-1-5.4,1.9-5.4l15.9,0l4.1-14.4C718.9,440.5,723,440.5,723.8,443.4
				z"/>
			<path class="st9" d="M723.8,792.6l4.2,14.6l15.6,0c2.8,0,4.1,3.5,1.9,5.3l-12.3,10l5.3,14.6c1,2.8-2.2,5.2-4.6,3.4l-12.5-9.5
				l-12.3,9.7c-2.3,1.8-5.6-0.4-4.7-3.2l4.6-15l-12.8-10c-2.3-1.8-1-5.4,1.9-5.4l15.9,0l4.1-14.4C718.9,789.7,723,789.7,723.8,792.6
				z"/>
		</g>
		<g>
			<path class="st9" d="M808.1,462.9l-4.2,14.6l-15.6,0c-2.8,0-4.1,3.5-1.9,5.3l12.3,10l-5.3,14.6c-1,2.8,2.2,5.2,4.6,3.4l12.5-9.5
				l12.3,9.7c2.3,1.8,5.6-0.4,4.7-3.2l-4.6-15l12.8-10c2.3-1.8,1-5.4-1.9-5.4l-15.9,0l-4.1-14.4C813.1,460.1,808.9,460,808.1,462.9z
				"/>
			<path class="st9" d="M808.1,765.7l-4.2,14.6l-15.6,0c-2.8,0-4.1,3.5-1.9,5.3l12.3,10l-5.3,14.6c-1,2.8,2.2,5.2,4.6,3.4l12.5-9.5
				l12.3,9.7c2.3,1.8,5.6-0.4,4.7-3.2l-4.6-15l12.8-10c2.3-1.8,1-5.4-1.9-5.4l-15.9,0l-4.1-14.4
				C813.1,762.8,808.9,762.8,808.1,765.7z"/>
			<path class="st9" d="M872.1,526.9l-4.2,14.6l-15.6,0c-2.8,0-4.1,3.5-1.9,5.3l12.3,10l-5.3,14.6c-1,2.8,2.2,5.2,4.6,3.4l12.5-9.5
				l12.3,9.7c2.3,1.8,5.6-0.4,4.7-3.2l-4.6-15l12.8-10c2.3-1.8,1-5.4-1.9-5.4l-15.9,0l-4.1-14.4C877,524,872.9,524,872.1,526.9z"/>
			<path class="st9" d="M872.1,701.5l-4.2,14.6l-15.6,0c-2.8,0-4.1,3.5-1.9,5.3l12.3,10l-5.3,14.6c-1,2.8,2.2,5.2,4.6,3.4l12.5-9.5
				l12.3,9.7c2.3,1.8,5.6-0.4,4.7-3.2l-4.6-15l12.8-10c2.3-1.8,1-5.4-1.9-5.4l-15.9,0l-4.1-14.4C877,698.7,872.9,698.6,872.1,701.5z
				"/>
			<path class="st9" d="M898.1,618.1l-4.2,14.6l-15.6,0c-2.8,0-4.1,3.5-1.9,5.3l12.3,10l-5.3,14.6c-1,2.8,2.2,5.2,4.6,3.4l12.5-9.5
				l12.3,9.7c2.3,1.8,5.6-0.4,4.7-3.2l-4.6-15l12.8-10c2.3-1.8,1-5.4-1.9-5.4l-15.9,0l-4.1-14.4C903,615.2,898.9,615.2,898.1,618.1z
				"/>
		</g>
	</g>
</g>
<g>
	<polygon class="st10" points="-619.4,470.5 -697.1,600.2 -619.4,565.4 	"/>
	<polygon class="st11" points="-697.1,600.2 -619.4,647.6 -619.4,565.4 	"/>
	<polygon class="st10" points="-697.1,616.1 -619.4,726.5 -619.4,662.1 	"/>
	<polygon class="st12" points="-541.2,600.2 -619.4,470.5 -619.4,565.4 	"/>
	<polygon class="st13" points="-541.2,600.2 -619.4,565.4 -619.4,647.6 -619.2,647.7 	"/>
	<polygon class="st14" points="-619.4,662.1 -619.4,726.5 -541.2,616.1 	"/>
</g>
<path class="st15" d="M-1810.8-69h425.1v425.1h-425.1V-69z"/>
<path class="st16" d="M-1551,25.4h165.3V-69H-1551V25.4z M-1810.8,356.1h425.1v-94.5h-425.1V356.1z M-1551,190.8h165.3V96.3H-1551
	V190.8z"/>
<path class="st17" d="M-1810.8-69h259.8v259.8h-259.8V-69z"/>
<path class="st15" d="M-1753.7-40.2c0.5-1,1.8-1.5,2.9-0.9c0.4,0.2,0.7,0.5,0.9,0.9l6.4,16.8c0.2,0.9,1.2,1.4,1.9,1.4l17.9,0.9
	c1.9,0,2.6,2.4,1.2,3.8l-14.2,11.1c-0.6,0.6-0.8,1.6-0.5,2.4l4.7,17c0.4,1.1-0.2,2.3-1.3,2.7c-0.7,0.2-1.4,0.1-2-0.3l-14.9-9.7
	c-0.7-0.5-1.6-0.5-2.4,0l-14.9,9.7c-0.9,0.7-2.3,0.5-3-0.4c-0.4-0.6-0.5-1.3-0.3-2l4.7-17.2c0.3-0.9,0-1.8-0.7-2.4l-13.9-10.9
	c-0.9-0.7-1.1-2.1-0.3-3c0.4-0.5,0.9-0.7,1.5-0.8l17.9-0.9c0.7,0,1.7-0.5,1.9-1.4l6.4-16.5V-40.2z M-1753.7,30.6
	c0.5-1,1.8-1.5,2.9-0.9c0.4,0.2,0.7,0.5,0.9,0.9l6.4,16.8c0.2,0.9,1.2,1.4,1.9,1.4l17.9,0.9c1.9,0,2.6,2.4,1.2,3.8l-14.2,11.1
	c-0.6,0.6-0.8,1.6-0.5,2.4l4.7,17c0.4,1.1-0.2,2.3-1.3,2.7c-0.7,0.2-1.4,0.1-2-0.3l-14.9-9.7c-0.7-0.5-1.6-0.5-2.4,0l-14.9,9.7
	c-0.9,0.7-2.3,0.5-3-0.4c-0.4-0.6-0.5-1.3-0.3-2l4.7-17.2c0.3-0.9,0-1.8-0.7-2.4l-13.9-10.9c-0.9-0.7-1.1-2.1-0.3-3
	c0.4-0.5,0.9-0.7,1.5-0.8l17.9-0.9c0.7,0,1.7-0.5,1.9-1.4l6.4-16.5V30.6z M-1753.7,101.5c0.5-1,1.8-1.5,2.9-0.9
	c0.4,0.2,0.7,0.5,0.9,0.9l6.4,16.8c0.2,0.9,1.2,1.4,1.9,1.4l17.9,0.9c1.9,0,2.6,2.4,1.2,3.8l-14.2,11.1c-0.6,0.6-0.8,1.6-0.5,2.4
	l4.7,17c0.4,1.1-0.2,2.3-1.3,2.7c-0.7,0.2-1.4,0.1-2-0.3l-14.9-9.7c-0.7-0.5-1.6-0.5-2.4,0l-14.9,9.7c-0.9,0.7-2.3,0.5-3-0.4
	c-0.4-0.6-0.5-1.3-0.3-2l4.7-17.2c0.3-0.9,0-1.8-0.7-2.4l-13.9-10.9c-0.9-0.7-1.1-2.1-0.3-3c0.4-0.5,0.9-0.7,1.5-0.8l17.9-0.9
	c0.7,0,1.7-0.5,1.9-1.4l6.4-16.5V101.5z M-1682.8-40.2c0.5-1,1.8-1.5,2.9-0.9c0.4,0.2,0.7,0.5,0.9,0.9l6.4,16.8
	c0.2,0.9,1.2,1.4,1.9,1.4l17.9,0.9c1.9,0,2.6,2.4,1.2,3.8l-14.2,11.1c-0.6,0.6-0.8,1.6-0.5,2.4l4.7,17c0.4,1.1-0.2,2.3-1.3,2.7
	c-0.7,0.2-1.4,0.1-2-0.3l-14.9-9.7c-0.7-0.5-1.6-0.5-2.4,0l-14.9,9.7c-0.9,0.7-2.3,0.5-3-0.4c-0.4-0.6-0.5-1.3-0.3-2l4.7-17.2
	c0.3-0.9,0-1.8-0.7-2.4l-13.9-10.9c-0.9-0.7-1.1-2.1-0.3-3c0.4-0.5,0.9-0.7,1.5-0.8l17.9-0.9c0.7,0,1.7-0.5,1.9-1.4l6.4-16.5V-40.2z
	 M-1682.8,30.6c0.5-1,1.8-1.5,2.9-0.9c0.4,0.2,0.7,0.5,0.9,0.9l6.4,16.8c0.2,0.9,1.2,1.4,1.9,1.4l17.9,0.9c1.9,0,2.6,2.4,1.2,3.8
	l-14.2,11.1c-0.6,0.6-0.8,1.6-0.5,2.4l4.7,17c0.4,1.1-0.2,2.3-1.3,2.7c-0.7,0.2-1.4,0.1-2-0.3l-14.9-9.7c-0.7-0.5-1.6-0.5-2.4,0
	l-14.9,9.7c-0.9,0.7-2.3,0.5-3-0.4c-0.4-0.6-0.5-1.3-0.3-2l4.7-17.2c0.3-0.9,0-1.8-0.7-2.4l-13.9-10.9c-0.9-0.7-1.1-2.1-0.3-3
	c0.4-0.5,0.9-0.7,1.5-0.8l17.9-0.9c0.7,0,1.7-0.5,1.9-1.4l6.4-16.5V30.6z M-1682.8,101.5c0.5-1,1.8-1.5,2.9-0.9
	c0.4,0.2,0.7,0.5,0.9,0.9l6.4,16.8c0.2,0.9,1.2,1.4,1.9,1.4l17.9,0.9c1.9,0,2.6,2.4,1.2,3.8l-14.2,11.1c-0.6,0.6-0.8,1.6-0.5,2.4
	l4.7,17c0.4,1.1-0.2,2.3-1.3,2.7c-0.7,0.2-1.4,0.1-2-0.3l-14.9-9.7c-0.7-0.5-1.6-0.5-2.4,0l-14.9,9.7c-0.9,0.7-2.3,0.5-3-0.4
	c-0.4-0.6-0.5-1.3-0.3-2l4.7-17.2c0.3-0.9,0-1.8-0.7-2.4l-13.9-10.9c-0.9-0.7-1.1-2.1-0.3-3c0.4-0.5,0.9-0.7,1.5-0.8l17.9-0.9
	c0.7,0,1.7-0.5,1.9-1.4l6.4-16.5V101.5z M-1612-40.2c0.5-1,1.8-1.5,2.9-0.9c0.4,0.2,0.7,0.5,0.9,0.9l6.4,16.8
	c0.2,0.9,1.2,1.4,1.9,1.4l17.9,0.9c1.9,0,2.6,2.4,1.2,3.8l-14.2,11.1c-0.6,0.6-0.8,1.6-0.5,2.4l4.7,17c0.4,1.1-0.2,2.3-1.3,2.7
	c-0.7,0.2-1.4,0.1-2-0.3l-14.9-9.7c-0.7-0.5-1.6-0.5-2.4,0l-14.9,9.7c-0.9,0.7-2.3,0.5-3-0.4c-0.4-0.6-0.5-1.3-0.3-2l4.7-17.2
	c0.3-0.9,0-1.8-0.7-2.4l-13.9-10.9c-0.9-0.7-1.1-2.1-0.3-3c0.4-0.5,0.9-0.7,1.5-0.8l17.9-0.9c0.7,0,1.7-0.5,1.9-1.4l6.4-16.5
	L-1612-40.2z M-1612,30.6c0.5-1,1.8-1.5,2.9-0.9c0.4,0.2,0.7,0.5,0.9,0.9l6.4,16.8c0.2,0.9,1.2,1.4,1.9,1.4l17.9,0.9
	c1.9,0,2.6,2.4,1.2,3.8l-14.2,11.1c-0.6,0.6-0.8,1.6-0.5,2.4l4.7,17c0.4,1.1-0.2,2.3-1.3,2.7c-0.7,0.2-1.4,0.1-2-0.3l-14.9-9.7
	c-0.7-0.5-1.6-0.5-2.4,0l-14.9,9.7c-0.9,0.7-2.3,0.5-3-0.4c-0.4-0.6-0.5-1.3-0.3-2l4.7-17.2c0.3-0.9,0-1.8-0.7-2.4l-13.9-10.9
	c-0.9-0.7-1.1-2.1-0.3-3c0.4-0.5,0.9-0.7,1.5-0.8l17.9-0.9c0.7,0,1.7-0.5,1.9-1.4l6.4-16.5L-1612,30.6z M-1612,101.5
	c0.5-1,1.8-1.5,2.9-0.9c0.4,0.2,0.7,0.5,0.9,0.9l6.4,16.8c0.2,0.9,1.2,1.4,1.9,1.4l17.9,0.9c1.9,0,2.6,2.4,1.2,3.8l-14.2,11.1
	c-0.6,0.6-0.8,1.6-0.5,2.4l4.7,17c0.4,1.1-0.2,2.3-1.3,2.7c-0.7,0.2-1.4,0.1-2-0.3l-14.9-9.7c-0.7-0.5-1.6-0.5-2.4,0l-14.9,9.7
	c-0.9,0.7-2.3,0.5-3-0.4c-0.4-0.6-0.5-1.3-0.3-2l4.7-17.2c0.3-0.9,0-1.8-0.7-2.4l-13.9-10.9c-0.9-0.7-1.1-2.1-0.3-3
	c0.4-0.5,0.9-0.7,1.5-0.8l17.9-0.9c0.7,0,1.7-0.5,1.9-1.4l6.4-16.5L-1612,101.5z"/>
</svg>
