<?xml version="1.0" encoding="utf-8"?>
<!-- Generator: Adobe Illustrator 24.2.1, SVG Export Plug-In . SVG Version: 6.00 Build 0)  -->
<svg version="1.1" id="Layer_1" xmlns="http://www.w3.org/2000/svg" xmlns:xlink="http://www.w3.org/1999/xlink" x="0px" y="0px"
	 viewBox="0 0 1057.3 1057.3" style="enable-background:new 0 0 1057.3 1057.3;" xml:space="preserve">
<style type="text/css">
	.st0{fill:#008DE4;}
	.st1{display:none;}
	.st2{display:inline;fill:#FFFFFF;}
	.st3{display:inline;fill:#00AF92;}
	.st4{display:none;fill-rule:evenodd;clip-rule:evenodd;fill:#F6F6F6;}
	.st5{display:inline;}
	.st6{display:inline;fill-rule:evenodd;clip-rule:evenodd;fill:#8DC351;}
	.st7{fill:#FFFFFF;}
	.st8{display:inline;fill:#0C48B6;}
	.st9{fill:#FFE15A;}
	.st10{display:inline;fill:#E7474B;}
	.st11{display:inline;fill-rule:evenodd;clip-rule:evenodd;fill:#F6F6F6;}
	.st12{fill:#F6F6F6;}
	.st13{fill:#FA4051;}
	.st14{fill:#1739C9;}
	.st15{fill:#F5F5F5;}
	.st16{fill:#8C8C8C;}
	.st17{fill:#393939;}
	.st18{fill:#343434;}
	.st19{fill:#141414;}
	.st20{fill:#3C3C3B;}
	.st21{fill:#F8F9FD;}
	.st22{fill:#EF5350;}
	.st23{fill:#1E88E5;}
</style>
<image style="display:none;overflow:visible;enable-background:new    ;" width="1904" height="1042" xlink:href="../CF27FC1.html"  transform="matrix(0.9994 0 0 0.9994 -2041.8302 -728.7764)">
</image>
<g id="BTC_1_">
	<path class="st0" d="M509.9,744.9H157.4c-82.8,0-150-67.2-150-150V242.4c0-82.8,67.2-150,150-150h352.5c82.8,0,150,67.2,150,150
		v352.5C659.9,677.8,592.8,744.9,509.9,744.9z"/>
	<g class="st1">
		<path class="st2" d="M295.2,579.6l-134.7-56V290.5l179.6-63.2L459,282.6l-163.8,58.7V579.6z"/>
		<path class="st3" d="M461,517.4l-155.4-63.8V350.1L461,292.2V517.4z"/>
	</g>
	<path class="st4" d="M436.4,432.4c22.9-4.6,40.3-18.5,45.5-47.9c7.2-40.1-24.5-62.4-68.2-77.8l15.4-54.3l-34.6-9l-15,52.9
		c-9.1-2.4-18.5-4.6-27.8-6.8l15.1-53.2l-34.6-9l-15.4,54.3c-7.5-1.8-14.9-3.6-22.1-5.4l0.1-0.2L247,263.6l-10,35.3
		c0,0,25.7,6.2,25.2,6.5c14,3.6,16.4,12.6,15.8,19.6l-42.3,148.7c-1.8,4-6.3,10.1-16.1,7.6c0.3,0.5-25.2-6.5-25.2-6.5l-18.1,37.6
		l45.1,11.7c8.4,2.2,16.6,4.5,24.7,6.6l-15.6,54.9l34.6,9l15.4-54.3c9.4,2.6,18.6,5.1,27.6,7.4l-15.4,54.1l34.7,9L343,556
		c59.1,11.9,103.9,8.5,123.8-42.4C482.7,472.7,467.3,448.5,436.4,432.4z M341.6,328.6c19.5,5.1,82.7,15,71.6,54
		c-10.6,37.3-70.8,17.1-90.4,12C322.8,394.5,341.6,328.6,341.6,328.6z M292.6,500.6l20.7-72.7c23.5,6,98.9,18.7,86.8,61.5
		C388.4,530.4,316.1,506.6,292.6,500.6z"/>
	<g id="Layer_2_1_" class="st1">
		<g id="Layer_1-2" class="st5">
			<path d="M398.3,263.3c11.5,0,20.8-9.5,20.8-21.1c0-11.7-9.3-21.1-20.8-21.1c-11.5,0.1-20.8,9.5-20.8,21.2
				S386.9,263.3,398.3,263.3z M404.5,318.2c9.8-0.1,17.7-8.1,17.6-17.9l0,0c0-9.8-7.9-17.9-17.6-17.9s-17.6,8-17.6,17.9
				C386.9,310.2,394.7,318.2,404.5,318.2z M452.9,325.2c9.7,0,17.6-8,17.6-17.9c0-9.9-7.9-17.9-17.6-17.9s-17.6,8-17.6,17.9
				C435.3,317.2,443.2,325.2,452.9,325.2z M447.1,372.2c8.3,0,15-6.8,15-15.2s-6.7-15.2-15-15.2c-8.3,0-15,6.8-15,15.2
				S438.8,372.2,447.1,372.2z M485.8,387.4c8.4,0,15.1-6.9,15.1-15.4s-6.8-15.4-15.1-15.4c-8.4,0.1-15.2,6.9-15.1,15.4c0,0,0,0,0,0
				l0,0C470.7,380.5,477.5,387.4,485.8,387.4z M398.4,365.8c8.6,0,15.5-7,15.4-15.6c0,0,0,0,0,0l0,0v0c0-8.6-6.9-15.6-15.4-15.6
				c-8.5,0-15.4,7-15.4,15.6C383,358.8,389.9,365.8,398.4,365.8z M384.4,403.2c7.2,0,12.9-5.9,12.9-13.1c0.1-7.2-5.7-13-12.9-13.1h0
				c-7.2,0-12.9,5.9-12.9,13.1C371.5,397.3,377.3,403.2,384.4,403.2z M432.9,409.8c7.1,0,12.9-5.9,12.8-13c0,0,0,0,0,0l0,0v0
				c0-7.2-5.7-13-12.8-13s-12.8,5.8-12.8,13c-0.1,7.1,5.6,12.9,12.7,13c0,0,0,0,0,0H432.9L432.9,409.8z M471.5,425
				c7.2,0,12.9-5.9,12.9-13.1c0-7.3-5.8-13.1-12.9-13.1c-7.2,0-12.9,5.9-12.9,13.1C458.5,419,464.3,424.9,471.5,425L471.5,425z
				 M452.4,453.3c6,0,10.9-5,10.9-11.1c0-6.1-4.9-11.1-10.9-11.1c-6,0-10.9,5-10.9,11.1C441.5,448.4,446.4,453.3,452.4,453.3z
				 M413.6,438.4c6.1,0,11.2-5.1,11.2-11.3s-5-11.3-11.2-11.3c-6.2,0-11.2,5.1-11.2,11.3S407.5,438.4,413.6,438.4z M365.2,431.5
				c6.2-0.1,11.2-5.2,11.1-11.4c-0.1-6.1-5-10.9-11-11.1h0c-6.2,0.1-11.2,5.2-11.1,11.4C354.2,426.5,359.1,431.4,365.2,431.5
				L365.2,431.5z M392.1,458.1c5.3,0,9.6-4.4,9.6-9.7c0.1-5.3-4.2-9.7-9.6-9.7h-0.1c-5.3,0-9.6,4.4-9.6,9.7
				c-0.1,5.3,4.2,9.7,9.5,9.7H392.1z M430.9,473.3c5.3,0,9.7-4.4,9.7-9.8s-4.3-9.8-9.7-9.8c-5.4,0-9.8,4.4-9.8,9.8
				S425.5,473.3,430.9,473.3z M409.1,484.7c4.2,0,7.7-3.5,7.7-7.8c0-4.3-3.4-7.7-7.7-7.8c-4.2,0-7.7,3.5-7.7,7.8
				C401.4,481.2,404.8,484.7,409.1,484.7z M388.3,490.8c3.9,0,7-3.2,6.9-7c0,0,0,0,0,0v0c0-3.9-3.1-7-6.9-7c-3.9,0-7,3.2-6.9,7
				c0,0,0,0,0,0v0c-0.1,3.8,3,7,6.8,7L388.3,490.8z M370.2,470.6c4.6,0,8.3-3.8,8.3-8.4s-3.7-8.4-8.3-8.4c-4.6,0-8.3,3.8-8.3,8.4
				C361.9,466.8,365.6,470.5,370.2,470.6z M343.6,451.4c5.3,0,9.6-4.3,9.6-9.7c0-5.4-4.3-9.7-9.6-9.7c-5.3,0-9.6,4.3-9.6,9.7
				C334,447,338.3,451.3,343.6,451.4z M422.5,573.4c11.4,0,20.7-9.4,20.7-21s-9.3-21-20.7-21c-11.4,0-20.7,9.4-20.7,21
				S411.1,573.4,422.5,573.4L422.5,573.4z M369.9,546.8c9.5,0,17.3-7.8,17.3-17.5c0-9.7-7.7-17.5-17.3-17.5
				c-9.5,0-17.3,7.8-17.3,17.5C352.6,538.9,360.4,546.8,369.9,546.8z M339.8,585.3c9.6,0,17.4-7.9,17.4-17.7
				c0-9.7-7.8-17.7-17.4-17.7c-9.6,0-17.4,7.9-17.4,17.7C322.4,577.3,330.2,585.2,339.8,585.3L339.8,585.3z M330.8,514.3
				c8.4-0.1,15.2-6.9,15.1-15.3c0,0,0,0,0,0l0,0c0.1-8.4-6.7-15.3-15.1-15.3c0,0,0,0,0,0l0,0c-8.4,0.1-15.2,6.9-15.1,15.3
				c0,0,0,0,0,0l0,0C315.7,507.4,322.5,514.3,330.8,514.3L330.8,514.3z M300.8,553.4c8.3,0,15-6.8,15-15.2s-6.7-15.2-15-15.2
				s-15,6.8-15,15.2C285.7,546.5,292.4,553.3,300.8,553.4L300.8,553.4z M268.5,579.9c8.3,0,15-6.8,15-15.2c0-8.4-6.7-15.2-15-15.2
				c-8.3,0-15,6.8-15,15.2S260.2,579.9,268.5,579.9L268.5,579.9z M241.6,545.4c7.1-0.1,12.8-5.9,12.8-13c0-7.2-5.7-13-12.8-13
				c-7.2,0.1-12.9,6-12.8,13.2C228.9,539.6,234.6,545.3,241.6,545.4z M274,518.8c7.1,0,12.9-5.9,12.8-13c0-7.2-5.7-13-12.8-13
				c-7.2,0.1-12.9,6-12.8,13.1C261.3,513,266.9,518.6,274,518.8L274,518.8z M304.2,479.7c7.1,0,12.9-5.9,12.8-13c0,0,0,0,0,0l0,0v0
				c0-7.2-5.7-13-12.8-13c-7.1,0-12.9,5.9-12.8,13c0,0,0,0,0,0l0,0v0C291.4,473.9,297.1,479.7,304.2,479.7z M258,485.1
				c6.1,0,11.1-5,11.1-11.3c0-6.2-5-11.3-11.1-11.3c-6.1,0-11.1,5-11.1,11.3C246.8,480.1,251.8,485.1,258,485.1z M225.8,511.6
				c6.1,0,11.1-5,11-11.1c0,0,0,0,0,0l0,0v0c0.1-6.1-4.8-11.1-11-11.2h-0.1c-6.1,0-11.1,5-11,11.1c0,0,0,0,0,0l0,0v0
				C214.7,506.6,219.6,511.6,225.8,511.6C225.8,511.6,225.8,511.6,225.8,511.6L225.8,511.6z M218.4,480.5c5.3,0,9.5-4.3,9.5-9.6
				c0-5.3-4.3-9.6-9.5-9.6s-9.5,4.3-9.5,9.6C208.8,476.3,213.1,480.5,218.4,480.5z M218.1,453.3c4.5,0,8.2-3.8,8.2-8.3c0,0,0,0,0,0
				l0,0c0-4.6-3.7-8.3-8.2-8.3c-4.5,0-8.2,3.7-8.2,8.3S213.6,453.3,218.1,453.3z M222.6,430.6c3.9,0,6.9-3.2,6.9-7
				c0-3.9-3.1-7-6.9-7c-3.9,0-6.9,3.2-6.9,7C215.6,427.4,218.7,430.6,222.6,430.6z M250.3,426.8c4.6,0,8.3-3.8,8.3-8.4
				s-3.7-8.4-8.3-8.4c-4.6,0-8.3,3.8-8.3,8.4C242.1,423,245.8,426.8,250.3,426.8z M280.8,414.9c5.3,0,9.6-4.4,9.6-9.7
				c0.1-5.3-4.2-9.7-9.6-9.7h-0.1c-5.3,0-9.6,4.4-9.6,9.7C271.1,410.5,275.4,414.9,280.8,414.9C280.8,414.9,280.8,414.9,280.8,414.9
				L280.8,414.9z M288.1,445.9c6,0,10.9-4.9,10.9-11c0-6-4.9-10.9-11-10.9c-6,0-10.9,4.9-10.9,11C277.1,441,282,445.9,288.1,445.9
				L288.1,445.9z M250.7,454.1c5.3,0,9.5-4.3,9.5-9.7s-4.3-9.7-9.5-9.7c-5.3,0-9.6,4.4-9.5,9.6c0,0,0,0,0,0v0
				c-0.1,5.3,4.1,9.6,9.4,9.7c0,0,0,0,0,0L250.7,454.1L250.7,454.1z M145.4,439.7c11.4,0,20.7-9.4,20.7-20.9
				c0-11.5-9.3-20.9-20.7-20.9c-11.4,0-20.7,9.4-20.7,20.9C124.7,430.4,134,439.7,145.4,439.7L145.4,439.7z M192.2,402.4
				c9.8,0,17.7-8.1,17.7-18c0-9.9-7.9-18-17.7-18c-9.8,0.1-17.8,8.1-17.7,17.9v0C174.5,394.4,182.5,402.4,192.2,402.4L192.2,402.4z
				 M173.9,356.3c9.7,0,17.6-8,17.6-17.9c0-9.9-7.9-17.9-17.6-17.9c-9.8,0.1-17.6,8-17.6,17.8c0,0,0,0,0,0v0
				C156.3,348.2,164.1,356.2,173.9,356.3L173.9,356.3z M219.1,334.5c8.3,0,15.1-6.8,15.1-15.3c0-8.5-6.8-15.3-15.1-15.3
				c-8.3,0-15.1,6.8-15.1,15.3C204,327.6,210.8,334.5,219.1,334.5L219.1,334.5z M237.6,380.4c8.4,0,15.1-6.9,15.1-15.4
				s-6.8-15.4-15.1-15.4s-15.1,6.9-15.1,15.4S229.2,380.4,237.6,380.4z M278.7,370.9c7.2-0.1,12.9-5.9,12.9-13.1l0,0
				c0.1-7.1-5.6-13-12.7-13.1c-7.1-0.1-13,5.6-13.1,12.7c0,0.1,0,0.3,0,0.4l0,0C265.8,364.9,271.5,370.8,278.7,370.9L278.7,370.9z
				 M314.3,371c6.1,0,11.1-5,11.1-11.2c0-6.2-5-11.2-11.1-11.2c-6.2,0-11.2,5-11.2,11.2S308.1,371,314.3,371L314.3,371z
				 M343.6,377.8c5.1,0,9.4-4.2,9.4-9.5c0-5.3-4.2-9.5-9.4-9.5c-5.2,0-9.4,4.3-9.4,9.5C334.3,373.5,338.5,377.8,343.6,377.8z
				 M347.4,343.2c4.5,0,8.2-3.7,8.2-8.3c0-4.6-3.7-8.3-8.2-8.3s-8.2,3.7-8.2,8.3C339.2,339.4,342.9,343.1,347.4,343.2z M324.9,331.9
				c5.2,0,9.4-4.2,9.4-9.4c0-5.2-4.2-9.4-9.4-9.4c-5.2,0-9.4,4.2-9.4,9.4C315.4,327.6,319.6,331.8,324.9,331.9L324.9,331.9z
				 M295.8,325c6.1,0,11.1-5,11-11.2c0-6.2-4.9-11.2-11-11.2s-11,5-11,11.2C284.8,319.9,289.7,324.9,295.8,325
				C295.8,325,295.8,325,295.8,325L295.8,325z M260.4,325c7.2,0,12.9-5.9,12.9-13.1c0-7.2-5.8-13.1-12.9-13.1
				c-7.2,0-12.9,5.9-12.9,13.1C247.4,319.1,253.2,325,260.4,325z M212.6,292.3c8.1,0,14.6-6.6,14.6-14.8c0-8.2-6.6-14.8-14.6-14.8
				c-8.1,0-14.6,6.6-14.6,14.8C198,285.7,204.6,292.3,212.6,292.3z M253.7,283.3c7.2,0,12.9-5.9,12.9-13.1c0-7.2-5.8-13.1-12.9-13.1
				c-7.2,0-12.9,5.9-12.9,13.1C240.8,277.5,246.6,283.3,253.7,283.3z M289.2,283.5c6.1,0,11.1-5,11.1-11.3c0-6.2-5-11.3-11.1-11.3
				c-6.2,0-11.2,5.1-11.1,11.2c0,0,0,0,0,0l0,0v0C278.1,278.4,283.1,283.4,289.2,283.5z M318.4,290.2c5.2,0,9.4-4.2,9.4-9.5
				c0-5.3-4.2-9.5-9.4-9.5c-5.2,0-9.5,4.2-9.5,9.5C308.9,286,313.1,290.2,318.4,290.2z M340.8,301.8c4.6,0,8.4-3.8,8.4-8.5
				c0-4.7-3.8-8.5-8.4-8.5s-8.4,3.8-8.4,8.5C332.4,298,336.2,301.8,340.8,301.8z M357.2,315.2c3.8,0,6.9-3.1,6.9-7c0,0,0,0,0,0l0,0
				v0c0-3.8-3-7-6.9-7c0,0,0,0,0,0h0c-3.8,0-6.9,3.1-6.9,7c0,0,0,0,0,0l0,0v0c-0.1,3.8,3,6.9,6.8,7c0,0,0,0,0,0L357.2,315.2
				L357.2,315.2z"/>
		</g>
	</g>
	<g class="st1">
		<circle class="st6" cx="318.7" cy="416" r="265.2"/>
		<path class="st2" d="M404.9,324.8c-13.3-33.1-44.8-34.8-82.9-28.2l-13.3-46.4l-28.2,8.3l13.3,44.8c-6.6,1.7-14.9,5-23.2,6.6
			l-13.3-46.4l-28.2,8.3l13.3,46.4c-6.6,1.7-11.6,3.3-18.2,5l0,0l-38.1,13.3l8.3,29.8c0,0,21.5-6.6,19.9-6.6
			c11.6-3.3,16.6,1.7,19.9,8.3l14.9,53c0,0,1.7,0,3.3,0l-3.3,1.7l21.5,74.6c0,3.3,0,9.9-8.3,13.3l-19.9,6.6l3.3,34.8l36.5-9.9
			c6.6-1.7,13.3-3.3,19.9-5l13.3,46.4l28.2-8.3l-13.3-46.4c8.3-1.7,14.9-3.3,23.2-6.6l13.3,46.4l28.2-8.3l-13.3-46.4
			c46.4-16.6,76.2-38.1,68-84.5c-6.6-36.5-28.2-48.1-58-46.4C408.2,366.2,414.8,349.7,404.9,324.8L404.9,324.8z M394.9,437.5
			c9.9,34.8-51.4,48.1-71.3,54.7l-18.2-63C325.3,424.2,383.3,401,394.9,437.5L394.9,437.5z M355.1,353c9.9,31.5-41.4,43.1-58,48.1
			l-16.6-56.4C297.1,339.7,346.9,319.8,355.1,353L355.1,353z"/>
	</g>
	<g id="Layer_2_3_">
		<g id="Layer_1-2_2_">
			<path class="st7" d="M384.1,251.3H243.3l-11.7,65.2l127.1,0.2c62.6,0,81.1,22.8,80.5,60.4c-0.3,19.3-8.7,52-12.3,62.6
				c-9.6,28.3-29.5,60.4-103.7,60.3L199.7,500L188,565.3h140.5c49.6,0,70.6-5.8,93-16c49.5-23,79-71.8,90.8-135.5
				C529.8,318.8,507.9,251.3,384.1,251.3"/>
			<path class="st7" d="M182.5,375.5c-36.9,0-42.2,24-45.7,38.6c-4.6,19-6.1,26.7-6.1,26.7H275c36.9,0,42.2-24,45.7-38.6
				c4.6-19,6.1-26.7,6.1-26.7L182.5,375.5z"/>
		</g>
	</g>
	<g id="Layer_2_2_" class="st1">
		<g id="Layer_1-2_1_" class="st5">
			<path d="M452.3,281.9l-43.8,22.3L197.3,411.8c-0.7-5.5-1.1-10.9-1.1-16.4c0.1-69.5,56.5-125.8,126.1-125.7
				c21.4,0,42.5,5.5,61.2,16l25-12.8l3.7-1.9c-68.7-49.9-164.9-34.6-214.8,34.1c-19.1,26.3-29.3,57.9-29.3,90.3
				c0,3.9,0.1,7.8,0.4,11.7c0.9,11.3-5.1,21.9-15.2,27l-13.2,6.7v31.4l38.9-19.8l0,0l12.6-6.4l12.4-6.3l0,0l222.8-113.5l25-12.7
				l51.7-26.4v-31.4L452.3,281.9z"/>
			<path d="M503.6,318.5L216.7,464.6l-25,12.8l-51.5,26.2V535l51.2-26.1l43.8-22.3l211.5-107.8c0.7,5.5,1.1,11,1.1,16.5
				c0,69.5-56.4,125.9-126,125.8c-21.5,0-42.7-5.6-61.5-16.1l-1.5,0.8l-27.2,13.8c68.7,49.9,164.9,34.6,214.8-34.1
				c19.1-26.2,29.3-57.9,29.3-90.3c0-4-0.2-7.9-0.4-11.8c-0.8-11.2,5.1-21.9,15.2-27l13.2-6.7V318.5z"/>
		</g>
	</g>
</g>
<g id="Euro" class="st1">
	<path class="st8" d="M510,744.9H157.4c-82.8,0-150-67.2-150-150V242.4c0-82.8,67.2-150,150-150h352.5c82.8,0,150,67.2,150,150
		v352.5C660,677.8,592.8,744.9,510,744.9z"/>
	<g class="st5">
		<g>
			<path class="st9" d="M254.9,243.2l4.2,14.6h15.6c2.8,0,4.1,3.5,1.9,5.3l-12.3,10l5.3,14.6c1,2.8-2.2,5.2-4.6,3.4l-12.5-9.5
				l-12.3,9.7c-2.3,1.8-5.6-0.4-4.7-3.2l4.6-15l-12.8-10c-2.3-1.8-1-5.4,1.9-5.4h15.9l4.1-14.4C249.9,240.4,254,240.3,254.9,243.2z"
				/>
			<path class="st9" d="M254.9,546l4.2,14.6h15.6c2.8,0,4.1,3.5,1.9,5.3l-12.3,10l5.3,14.6c1,2.8-2.2,5.2-4.6,3.4l-12.5-9.5
				l-12.3,9.7c-2.3,1.8-5.6-0.4-4.7-3.2l4.6-15l-12.8-10c-2.3-1.8-1-5.4,1.9-5.4h15.9l4.1-14.4C249.9,543.1,254,543.1,254.9,546z"/>
			<path class="st9" d="M190.9,307.2l4.2,14.6h15.6c2.8,0,4.1,3.5,1.9,5.3l-12.3,10l5.3,14.6c1,2.8-2.2,5.2-4.6,3.4l-12.5-9.5
				l-12.3,9.7c-2.3,1.8-5.6-0.4-4.7-3.2l4.6-15l-12.8-10c-2.3-1.8-1-5.4,1.9-5.4h15.9l4.1-14.4C186,304.3,190.1,304.3,190.9,307.2z"
				/>
			<path class="st9" d="M190.9,481.8l4.2,14.6h15.6c2.8,0,4.1,3.5,1.9,5.3l-12.3,10l5.3,14.6c1,2.8-2.2,5.2-4.6,3.4l-12.5-9.5
				l-12.3,9.7c-2.3,1.8-5.6-0.4-4.7-3.2l4.6-15l-12.8-10c-2.3-1.8-1-5.4,1.9-5.4h15.9l4.1-14.4C186,479,190.1,478.9,190.9,481.8z"/>
			<path class="st9" d="M164.9,398.4l4.2,14.6h15.6c2.8,0,4.1,3.5,1.9,5.3l-12.3,10l5.3,14.6c1,2.8-2.2,5.2-4.6,3.4l-12.5-9.5
				l-12.3,9.7c-2.3,1.8-5.6-0.4-4.7-3.2l4.6-15l-12.8-10c-2.3-1.8-1-5.4,1.9-5.4h15.9l4.1-14.4C160,395.5,164.1,395.5,164.9,398.4z"
				/>
			<path class="st9" d="M339.5,223.7l4.2,14.6h15.6c2.8,0,4.1,3.5,1.9,5.3l-12.3,10l5.3,14.6c1,2.8-2.2,5.2-4.6,3.4l-12.5-9.5
				l-12.3,9.7c-2.3,1.8-5.6-0.4-4.7-3.2l4.6-15l-12.8-10c-2.3-1.8-1-5.4,1.9-5.4h15.9l4.1-14.4C334.6,220.8,338.7,220.8,339.5,223.7
				z"/>
			<path class="st9" d="M339.5,572.9l4.2,14.6h15.6c2.8,0,4.1,3.5,1.9,5.3l-12.3,10l5.3,14.6c1,2.8-2.2,5.2-4.6,3.4l-12.5-9.5
				l-12.3,9.7c-2.3,1.8-5.6-0.4-4.7-3.2l4.6-15l-12.8-10c-2.3-1.8-1-5.4,1.9-5.4h15.9l4.1-14.4C334.6,570,338.7,570,339.5,572.9z"/>
		</g>
		<g>
			<path class="st9" d="M423.8,243.2l-4.2,14.6H404c-2.8,0-4.1,3.5-1.9,5.3l12.3,10l-5.3,14.6c-1,2.8,2.2,5.2,4.6,3.4l12.5-9.5
				l12.3,9.7c2.3,1.8,5.6-0.4,4.7-3.2l-4.6-15l12.8-10c2.3-1.8,1-5.4-1.9-5.4h-15.9l-4.1-14.4C428.8,240.4,424.6,240.3,423.8,243.2z
				"/>
			<path class="st9" d="M423.8,546l-4.2,14.6H404c-2.8,0-4.1,3.5-1.9,5.3l12.3,10l-5.3,14.6c-1,2.8,2.2,5.2,4.6,3.4l12.5-9.5
				l12.3,9.7c2.3,1.8,5.6-0.4,4.7-3.2l-4.6-15l12.8-10c2.3-1.8,1-5.4-1.9-5.4h-15.9l-4.1-14.4C428.8,543.1,424.6,543.1,423.8,546z"
				/>
			<path class="st9" d="M487.8,307.2l-4.2,14.6H468c-2.8,0-4.1,3.5-1.9,5.3l12.3,10l-5.3,14.6c-1,2.8,2.2,5.2,4.6,3.4l12.5-9.5
				l12.3,9.7c2.3,1.8,5.6-0.4,4.7-3.2l-4.6-15l12.8-10c2.3-1.8,1-5.4-1.9-5.4h-15.9l-4.1-14.4C492.7,304.3,488.6,304.3,487.8,307.2z
				"/>
			<path class="st9" d="M487.8,481.8l-4.2,14.6H468c-2.8,0-4.1,3.5-1.9,5.3l12.3,10l-5.3,14.6c-1,2.8,2.2,5.2,4.6,3.4l12.5-9.5
				l12.3,9.7c2.3,1.8,5.6-0.4,4.7-3.2l-4.6-15l12.8-10c2.3-1.8,1-5.4-1.9-5.4h-15.9l-4.1-14.4C492.7,479,488.6,478.9,487.8,481.8z"
				/>
			<path class="st9" d="M513.8,398.4l-4.2,14.6H494c-2.8,0-4.1,3.5-1.9,5.3l12.3,10l-5.3,14.6c-1,2.8,2.2,5.2,4.6,3.4l12.5-9.5
				l12.3,9.7c2.3,1.8,5.6-0.4,4.7-3.2l-4.6-15l12.8-10c2.3-1.8,1-5.4-1.9-5.4h-15.9l-4.1-14.4C518.7,395.5,514.6,395.5,513.8,398.4z
				"/>
		</g>
	</g>
</g>
<g id="BTC_2_" class="st1">
	<path class="st10" d="M894.2,964.6H541.7c-82.8,0-150-67.2-150-150V462.1c0-82.8,67.2-150,150-150h352.5c82.8,0,150,67.2,150,150
		v352.5C1044.2,897.5,977.1,964.6,894.2,964.6z"/>
	<path class="st11" d="M820.7,652.1c22.9-4.6,40.3-18.5,45.5-47.9c7.2-40.1-24.5-62.4-68.2-77.8l15.4-54.3l-34.6-9l-15,52.9
		c-9.1-2.4-18.5-4.6-27.8-6.8l15.1-53.2l-34.6-9l-15.4,54.3c-7.5-1.8-14.9-3.6-22.1-5.4l0.1-0.2l-47.8-12.4l-10,35.3
		c0,0,25.7,6.2,25.2,6.5c14,3.6,16.4,12.6,15.8,19.6L620,693.4c-1.8,4-6.3,10.1-16.1,7.6c0.3,0.5-25.2-6.5-25.2-6.5l-18.1,37.6
		l45.1,11.7c8.4,2.2,16.6,4.5,24.7,6.6l-15.6,54.9l34.6,9l15.4-54.3c9.4,2.6,18.6,5.1,27.6,7.4L677,821.5l34.7,9l15.6-54.8
		c59.1,11.9,103.9,8.5,123.8-42.4C867,692.4,851.6,668.2,820.7,652.1z M725.9,548.3c19.5,5.1,82.7,15,71.6,54
		c-10.6,37.3-70.8,17.1-90.4,12C707.1,614.2,725.9,548.3,725.9,548.3z M676.9,720.3l20.7-72.7c23.5,6,98.9,18.7,86.8,61.5
		C772.7,750.1,700.4,726.3,676.9,720.3z"/>
	<g class="st5">
		<g>
			<path class="st12" d="M633.2,681.2c-57.9,0-104.5-48.3-101.8-106.8c2.4-52,44.5-94.3,96.5-97c23.8-1.2,45.9,5.7,63.8,18.3
				c2.4,1.7,5.2-1.5,3.2-3.7c-24-25-58.1-40.2-95.7-39.1c-67.4,1.9-122.2,57-123.8,124.4c-1.7,71.8,56,130.6,127.5,130.6
				c36.2,0,68.8-15.1,92-39.3c2.8-3-1.1-7.4-4.4-5.1C674.1,674.7,654.4,681.2,633.2,681.2z"/>
		</g>
		<path class="st12" d="M779.3,582.8l19.3-26.3c1.5-2.1-0.5-4.9-3-4.1L764.7,563l-18.2-24.8c-1.5-2.1-4.8-1-4.8,1.6v31l-27.8,9.4
			c-2.4,0.8-2.4,4.3,0.1,5l27.7,8.7v31.9c0,2.6,3.3,3.6,4.8,1.6l19.1-26l27.9,8.8c2.4,0.8,4.4-2,2.9-4.1L779.3,582.8z"/>
	</g>
</g>
<g>
	<g>
		<path class="st13" d="M741.6,462.7h302.9v-10.2c0-13.8-2-27.2-5.7-39.8H741.6V462.7z"/>
		<rect x="741.6" y="612.7" class="st13" width="302.9" height="50"/>
		<rect x="741.6" y="511.9" class="st13" width="302.9" height="50"/>
		<rect x="394.6" y="713.4" class="st13" width="650" height="50"/>
		<path class="st13" d="M534.6,962.5h370c43,0,81.5-19.4,107.2-50H427.3C453,943.1,491.5,962.5,534.6,962.5z"/>
		<path class="st13" d="M394.6,822.5c0,13.9,2,27.4,5.8,40.1h638.3c3.8-12.7,5.8-26.2,5.8-40.1v-9.9h-650v9.9H394.6z"/>
		<path class="st13" d="M1011.8,362.5c-25.7-30.6-64.2-50-107.2-50h-163v50H1011.8z"/>
	</g>
	<g>
		<rect x="394.6" y="763.4" class="st7" width="650" height="49.2"/>
		<path class="st7" d="M427.3,912.5h584.5c12.1-14.4,21.4-31.4,26.9-49.9H400.4C405.9,881.1,415.2,898,427.3,912.5z"/>
		<polygon class="st7" points="394.6,662.7 394.6,713.4 1044.6,713.4 1044.6,662.7 741.6,662.7 741.6,662.7 		"/>
		<rect x="741.6" y="462.7" class="st7" width="302.9" height="49.2"/>
		<rect x="741.6" y="561.9" class="st7" width="302.9" height="50.8"/>
		<path class="st7" d="M1038.8,412.7c-5.5-18.7-14.8-35.7-27-50.2H741.6v50.2H1038.8z"/>
		<rect x="741.6" y="612.7" class="st14" width="0" height="50"/>
		<rect x="741.6" y="412.7" class="st14" width="0" height="50"/>
		<rect x="741.6" y="511.9" class="st14" width="0" height="50"/>
		<path class="st14" d="M741.6,511.9L741.6,511.9v-49.2l0,0v-50l0,0v-50.2l0,0v-50h-207c-35,0-67,12.8-91.5,34.1l1.5,5.1h8.2
			c1.5,0,2.1,1.9,1,2.8l-6.4,5.2l3,7.5c0.5,1.5-1.2,2.7-2.4,1.8l-6.9-5.6l-6.5,5.8c-1.2,1-2.9-0.2-2.5-1.7l2.6-7.8l-2.7-2.1
			c-23.1,25-37.2,58.4-37.2,95.1v210.2h347.1v-50l0,0v-50.8l0,0v-50.2L741.6,511.9L741.6,511.9z M453.7,628.4l-6.4,5.2l3,7.5
			c0.5,1.5-1.2,2.7-2.4,1.8l-6.9-5.6l-6.5,5.8c-1.2,1-2.9-0.2-2.5-1.7l2.6-7.8l-6.7-5.2c-1.2-0.9-0.5-2.8,1-2.8h8.3l2.1-7.6
			c0.4-1.5,2.6-1.5,3,0l2.2,7.7h8.2C454.1,625.6,454.8,627.5,453.7,628.4z M453.7,565.6l-6.4,5.2l3,7.5c0.5,1.5-1.2,2.7-2.4,1.8
			l-6.9-5.6l-6.5,5.8c-1.2,1-2.9-0.2-2.5-1.7l2.6-7.8l-6.7-5.2c-1.2-0.9-0.5-2.8,1-2.8h8.3l2.1-7.6c0.4-1.5,2.6-1.5,3,0l2.2,7.7h8.2
			C454.1,562.8,454.8,564.6,453.7,565.6z M453.7,496.8l-6.4,5.2l3,7.5c0.5,1.5-1.2,2.7-2.4,1.8l-6.9-5.6l-6.5,5.8
			c-1.2,1-2.9-0.2-2.5-1.7l2.6-7.8l-6.7-5.2c-1.2-0.9-0.5-2.8,1-2.8h8.3l2.1-7.6c0.4-1.5,2.6-1.5,3,0l2.2,7.7h8.2
			C454.1,494,454.8,495.9,453.7,496.8z M453.7,422l-6.4,5.2l3,7.5c0.5,1.5-1.2,2.7-2.4,1.8l-6.9-5.6l-6.5,5.8
			c-1.2,1-2.9-0.2-2.5-1.7l2.6-7.8l-6.7-5.2c-1.2-0.9-0.5-2.8,1-2.8h8.3l2.1-7.6c0.4-1.5,2.6-1.5,3,0l2.2,7.7h8.2
			C454.1,419.2,454.8,421,453.7,422z M486.8,596.2l-6.4,5.2l3,7.5c0.5,1.5-1.2,2.7-2.4,1.8l-6.9-5.6l-6.5,5.8
			c-1.2,1-2.9-0.2-2.5-1.7l2.6-7.8l-6.7-5.2c-1.2-0.9-0.5-2.8,1-2.8h8.3l2.1-7.6c0.4-1.5,2.6-1.5,3,0l2.2,7.7h8.2
			C487.3,593.4,487.9,595.3,486.8,596.2z M486.8,532.5l-6.4,5.2l3,7.5c0.5,1.5-1.2,2.7-2.4,1.8l-6.9-5.6l-6.5,5.8
			c-1.2,1-2.9-0.2-2.5-1.7l2.6-7.8l-6.7-5.2c-1.2-0.9-0.5-2.8,1-2.8h8.3l2.1-7.6c0.4-1.5,2.6-1.5,3,0l2.2,7.7h8.2
			C487.3,529.7,487.9,531.6,486.8,532.5z M486.8,461.5l-6.4,5.2l3,7.5c0.5,1.5-1.2,2.7-2.4,1.8l-6.9-5.6l-6.5,5.8
			c-1.2,1-2.9-0.2-2.5-1.7l2.6-7.8l-6.7-5.2c-1.2-0.9-0.5-2.8,1-2.8h8.3l2.1-7.6c0.4-1.5,2.6-1.5,3,0l2.2,7.7h8.2
			C487.3,458.7,487.9,460.5,486.8,461.5z M486.8,386.6l-6.4,5.2l3,7.5c0.5,1.5-1.2,2.7-2.4,1.8l-6.9-5.6l-6.5,5.8
			c-1.2,1-2.9-0.2-2.5-1.7l2.6-7.8l-6.7-5.2c-1.2-0.9-0.5-2.8,1-2.8h8.3l2.1-7.6c0.4-1.5,2.6-1.5,3,0l2.2,7.7h8.2
			C487.3,383.8,487.9,385.7,486.8,386.6z M519.9,628.4l-6.4,5.2l3,7.5c0.5,1.5-1.2,2.7-2.4,1.8l-6.9-5.6l-6.5,5.8
			c-1.2,1-2.9-0.2-2.5-1.7l2.6-7.8l-6.7-5.2c-1.2-0.9-0.5-2.8,1-2.8h8.3l2.1-7.6c0.4-1.5,2.6-1.5,3,0l2.2,7.7h8.2
			C520.4,625.6,521.1,627.5,519.9,628.4z M519.9,565.6l-6.4,5.2l3,7.5c0.5,1.5-1.2,2.7-2.4,1.8l-6.9-5.6l-6.5,5.8
			c-1.2,1-2.9-0.2-2.5-1.7l2.6-7.8l-6.7-5.2c-1.2-0.9-0.5-2.8,1-2.8h8.3l2.1-7.6c0.4-1.5,2.6-1.5,3,0l2.2,7.7h8.2
			C520.4,562.8,521.1,564.6,519.9,565.6z M519.9,496.8l-6.4,5.2l3,7.5c0.5,1.5-1.2,2.7-2.4,1.8l-6.9-5.6l-6.5,5.8
			c-1.2,1-2.9-0.2-2.5-1.7l2.6-7.8l-6.7-5.2c-1.2-0.9-0.5-2.8,1-2.8h8.3l2.1-7.6c0.4-1.5,2.6-1.5,3,0l2.2,7.7h8.2
			C520.4,494,521.1,495.9,519.9,496.8z M519.9,422l-6.4,5.2l3,7.5c0.5,1.5-1.2,2.7-2.4,1.8l-6.9-5.6l-6.5,5.8
			c-1.2,1-2.9-0.2-2.5-1.7l2.6-7.8l-6.7-5.2c-1.2-0.9-0.5-2.8,1-2.8h8.3l2.1-7.6c0.4-1.5,2.6-1.5,3,0l2.2,7.7h8.2
			C520.4,419.2,521.1,421,519.9,422z M519.9,354.4l-6.4,5.2l3,7.5c0.5,1.5-1.2,2.7-2.4,1.8l-6.9-5.6l-6.5,5.8
			c-1.2,1-2.9-0.2-2.5-1.7l2.6-7.8l-6.7-5.2c-1.2-0.9-0.5-2.8,1-2.8h8.3l2.1-7.6c0.4-1.5,2.6-1.5,3,0l2.2,7.7h8.2
			C520.4,351.6,521.1,353.4,519.9,354.4z M553,596.2l-6.4,5.2l3,7.5c0.5,1.5-1.2,2.7-2.4,1.8l-6.9-5.6l-6.5,5.8
			c-1.2,1-2.9-0.2-2.5-1.7l2.6-7.8l-6.7-5.2c-1.2-0.9-0.5-2.8,1-2.8h8.3l2.1-7.6c0.4-1.5,2.6-1.5,3,0l2.2,7.7h8.2
			C553.5,593.4,554.2,595.3,553,596.2z M553,532.5l-6.4,5.2l3,7.5c0.5,1.5-1.2,2.7-2.4,1.8l-6.9-5.6l-6.5,5.8
			c-1.2,1-2.9-0.2-2.5-1.7l2.6-7.8l-6.7-5.2c-1.2-0.9-0.5-2.8,1-2.8h8.3l2.1-7.6c0.4-1.5,2.6-1.5,3,0l2.2,7.7h8.2
			C553.5,529.7,554.2,531.6,553,532.5z M553,461.5l-6.4,5.2l3,7.5c0.5,1.5-1.2,2.7-2.4,1.8l-6.9-5.6l-6.5,5.8
			c-1.2,1-2.9-0.2-2.5-1.7l2.6-7.8l-6.7-5.2c-1.2-0.9-0.5-2.8,1-2.8h8.3l2.1-7.6c0.4-1.5,2.6-1.5,3,0l2.2,7.7h8.2
			C553.5,458.7,554.2,460.5,553,461.5z M553,386.6l-6.4,5.2l3,7.5c0.5,1.5-1.2,2.7-2.4,1.8l-6.9-5.6l-6.5,5.8
			c-1.2,1-2.9-0.2-2.5-1.7l2.6-7.8l-6.7-5.2c-1.2-0.9-0.5-2.8,1-2.8h8.3l2.1-7.6c0.4-1.5,2.6-1.5,3,0l2.2,7.7h8.2
			C553.5,383.8,554.2,385.7,553,386.6z M585.4,628.4l-6.4,5.2l3,7.5c0.5,1.5-1.2,2.7-2.4,1.8l-6.9-5.6l-6.5,5.8
			c-1.2,1-2.9-0.2-2.5-1.7l2.6-7.8l-6.7-5.2c-1.2-0.9-0.5-2.8,1-2.8h8.3l2.1-7.6c0.4-1.5,2.6-1.5,3,0l2.2,7.7h8.2
			C585.9,625.6,586.6,627.5,585.4,628.4z M585.4,565.6l-6.4,5.2l3,7.5c0.5,1.5-1.2,2.7-2.4,1.8l-6.9-5.6l-6.5,5.8
			c-1.2,1-2.9-0.2-2.5-1.7l2.6-7.8l-6.7-5.2c-1.2-0.9-0.5-2.8,1-2.8h8.3l2.1-7.6c0.4-1.5,2.6-1.5,3,0l2.2,7.7h8.2
			C585.9,562.8,586.6,564.6,585.4,565.6z M585.4,496.8L579,502l3,7.5c0.5,1.5-1.2,2.7-2.4,1.8l-6.9-5.6l-6.5,5.8
			c-1.2,1-2.9-0.2-2.5-1.7l2.6-7.8l-6.7-5.2c-1.2-0.9-0.5-2.8,1-2.8h8.3l2.1-7.6c0.4-1.5,2.6-1.5,3,0l2.2,7.7h8.2
			C585.9,494,586.6,495.9,585.4,496.8z M585.4,422l-6.4,5.2l3,7.5c0.5,1.5-1.2,2.7-2.4,1.8l-6.9-5.6l-6.5,5.8
			c-1.2,1-2.9-0.2-2.5-1.7l2.6-7.8l-6.7-5.2c-1.2-0.9-0.5-2.8,1-2.8h8.3l2.1-7.6c0.4-1.5,2.6-1.5,3,0l2.2,7.7h8.2
			C585.9,419.2,586.6,421,585.4,422z M585.4,354.4l-6.4,5.2l3,7.5c0.5,1.5-1.2,2.7-2.4,1.8l-6.9-5.6l-6.5,5.8
			c-1.2,1-2.9-0.2-2.5-1.7l2.6-7.8l-6.7-5.2c-1.2-0.9-0.5-2.8,1-2.8h8.3l2.1-7.6c0.4-1.5,2.6-1.5,3,0l2.2,7.7h8.2
			C585.9,351.6,586.6,353.4,585.4,354.4z M618.5,596.2l-6.4,5.2l3,7.5c0.5,1.5-1.2,2.7-2.4,1.8l-6.9-5.6l-6.5,5.8
			c-1.2,1-2.9-0.2-2.5-1.7l2.6-7.8l-6.7-5.2c-1.2-0.9-0.5-2.8,1-2.8h8.3l2.1-7.6c0.4-1.5,2.6-1.5,3,0l2.2,7.7h8.2
			C619,593.4,619.7,595.3,618.5,596.2z M618.5,532.5l-6.4,5.2l3,7.5c0.5,1.5-1.2,2.7-2.4,1.8l-6.9-5.6l-6.5,5.8
			c-1.2,1-2.9-0.2-2.5-1.7l2.6-7.8l-6.7-5.2c-1.2-0.9-0.5-2.8,1-2.8h8.3l2.1-7.6c0.4-1.5,2.6-1.5,3,0l2.2,7.7h8.2
			C619,529.7,619.7,531.6,618.5,532.5z M618.5,461.5l-6.4,5.2l3,7.5c0.5,1.5-1.2,2.7-2.4,1.8l-6.9-5.6l-6.5,5.8
			c-1.2,1-2.9-0.2-2.5-1.7l2.6-7.8l-6.7-5.2c-1.2-0.9-0.5-2.8,1-2.8h8.3l2.1-7.6c0.4-1.5,2.6-1.5,3,0l2.2,7.7h8.2
			C619,458.7,619.7,460.5,618.5,461.5z M618.5,386.6l-6.4,5.2l3,7.5c0.5,1.5-1.2,2.7-2.4,1.8l-6.9-5.6l-6.5,5.8
			c-1.2,1-2.9-0.2-2.5-1.7l2.6-7.8l-6.7-5.2c-1.2-0.9-0.5-2.8,1-2.8h8.3l2.1-7.6c0.4-1.5,2.6-1.5,3,0l2.2,7.7h8.2
			C619,383.8,619.7,385.7,618.5,386.6z M650.8,628.4l-6.4,5.2l3,7.5c0.5,1.5-1.2,2.7-2.4,1.8l-6.9-5.6l-6.5,5.8
			c-1.2,1-2.9-0.2-2.5-1.7l2.6-7.8l-6.7-5.2c-1.2-0.9-0.5-2.8,1-2.8h8.3l2.1-7.6c0.4-1.5,2.6-1.5,3,0l2.2,7.7h8.2
			C651.2,625.6,651.9,627.5,650.8,628.4z M650.8,565.6l-6.4,5.2l3,7.5c0.5,1.5-1.2,2.7-2.4,1.8l-6.9-5.6l-6.5,5.8
			c-1.2,1-2.9-0.2-2.5-1.7l2.6-7.8l-6.7-5.2c-1.2-0.9-0.5-2.8,1-2.8h8.3l2.1-7.6c0.4-1.5,2.6-1.5,3,0l2.2,7.7h8.2
			C651.2,562.8,651.9,564.6,650.8,565.6z M650.8,496.8l-6.4,5.2l3,7.5c0.5,1.5-1.2,2.7-2.4,1.8l-6.9-5.6l-6.5,5.8
			c-1.2,1-2.9-0.2-2.5-1.7l2.6-7.8l-6.7-5.2c-1.2-0.9-0.5-2.8,1-2.8h8.3l2.1-7.6c0.4-1.5,2.6-1.5,3,0l2.2,7.7h8.2
			C651.2,494,651.9,495.9,650.8,496.8z M650.8,422l-6.4,5.2l3,7.5c0.5,1.5-1.2,2.7-2.4,1.8l-6.9-5.6l-6.5,5.8
			c-1.2,1-2.9-0.2-2.5-1.7l2.6-7.8L625,422c-1.2-0.9-0.5-2.8,1-2.8h8.3l2.1-7.6c0.4-1.5,2.6-1.5,3,0l2.2,7.7h8.2
			C651.2,419.2,651.9,421,650.8,422z M650.8,354.4l-6.4,5.2l3,7.5c0.5,1.5-1.2,2.7-2.4,1.8l-6.9-5.6l-6.5,5.8
			c-1.2,1-2.9-0.2-2.5-1.7l2.6-7.8l-6.7-5.2c-1.2-0.9-0.5-2.8,1-2.8h8.3l2.1-7.6c0.4-1.5,2.6-1.5,3,0l2.2,7.7h8.2
			C651.2,351.6,651.9,353.4,650.8,354.4z M683.9,596.2l-6.4,5.2l3,7.5c0.5,1.5-1.2,2.7-2.4,1.8l-6.9-5.6l-6.5,5.8
			c-1.2,1-2.9-0.2-2.5-1.7l2.6-7.8l-6.7-5.2c-1.2-0.9-0.5-2.8,1-2.8h8.3l2.1-7.6c0.4-1.5,2.6-1.5,3,0l2.2,7.7h8.2
			C684.4,593.4,685,595.3,683.9,596.2z M683.9,532.5l-6.4,5.2l3,7.5c0.5,1.5-1.2,2.7-2.4,1.8l-6.9-5.6l-6.5,5.8
			c-1.2,1-2.9-0.2-2.5-1.7l2.6-7.8l-6.7-5.2c-1.2-0.9-0.5-2.8,1-2.8h8.3l2.1-7.6c0.4-1.5,2.6-1.5,3,0l2.2,7.7h8.2
			C684.4,529.7,685,531.6,683.9,532.5z M683.9,461.5l-6.4,5.2l3,7.5c0.5,1.5-1.2,2.7-2.4,1.8l-6.9-5.6l-6.5,5.8
			c-1.2,1-2.9-0.2-2.5-1.7l2.6-7.8l-6.7-5.2c-1.2-0.9-0.5-2.8,1-2.8h8.3l2.1-7.6c0.4-1.5,2.6-1.5,3,0l2.2,7.7h8.2
			C684.4,458.7,685,460.5,683.9,461.5z M683.9,386.6l-6.4,5.2l3,7.5c0.5,1.5-1.2,2.7-2.4,1.8l-6.9-5.6l-6.5,5.8
			c-1.2,1-2.9-0.2-2.5-1.7l2.6-7.8l-6.7-5.2c-1.2-0.9-0.5-2.8,1-2.8h8.3l2.1-7.6c0.4-1.5,2.6-1.5,3,0l2.2,7.7h8.2
			C684.4,383.8,685,385.7,683.9,386.6z M716.6,628.4l-6.4,5.2l3,7.5c0.5,1.5-1.2,2.7-2.4,1.8l-6.9-5.6l-6.5,5.8
			c-1.2,1-2.9-0.2-2.5-1.7l2.6-7.8l-6.7-5.2c-1.2-0.9-0.5-2.8,1-2.8h8.3l2.1-7.6c0.4-1.5,2.6-1.5,3,0l2.2,7.7h8.2
			C717.1,625.6,717.8,627.5,716.6,628.4z M716.6,565.6l-6.4,5.2l3,7.5c0.5,1.5-1.2,2.7-2.4,1.8l-6.9-5.6l-6.5,5.8
			c-1.2,1-2.9-0.2-2.5-1.7l2.6-7.8l-6.7-5.2c-1.2-0.9-0.5-2.8,1-2.8h8.3l2.1-7.6c0.4-1.5,2.6-1.5,3,0l2.2,7.7h8.2
			C717.1,562.8,717.8,564.6,716.6,565.6z M716.6,496.8l-6.4,5.2l3,7.5c0.5,1.5-1.2,2.7-2.4,1.8l-6.9-5.6l-6.5,5.8
			c-1.2,1-2.9-0.2-2.5-1.7l2.6-7.8l-6.7-5.2c-1.2-0.9-0.5-2.8,1-2.8h8.3l2.1-7.6c0.4-1.5,2.6-1.5,3,0l2.2,7.7h8.2
			C717.1,494,717.8,495.9,716.6,496.8z M716.6,422l-6.4,5.2l3,7.5c0.5,1.5-1.2,2.7-2.4,1.8l-6.9-5.6l-6.5,5.8
			c-1.2,1-2.9-0.2-2.5-1.7l2.6-7.8l-6.7-5.2c-1.2-0.9-0.5-2.8,1-2.8h8.3l2.1-7.6c0.4-1.5,2.6-1.5,3,0l2.2,7.7h8.2
			C717.1,419.2,717.8,421,716.6,422z M716.6,354.4l-6.4,5.2l3,7.5c0.5,1.5-1.2,2.7-2.4,1.8l-6.9-5.6l-6.5,5.8
			c-1.2,1-2.9-0.2-2.5-1.7l2.6-7.8l-6.7-5.2c-1.2-0.9-0.5-2.8,1-2.8h8.3l2.1-7.6c0.4-1.5,2.6-1.5,3,0l2.2,7.7h8.2
			C717.1,351.6,717.8,353.4,716.6,354.4z"/>
		<path class="st15" d="M452.7,625.6h-8.2l-2.2-7.7c-0.4-1.5-2.6-1.5-3,0l-2.1,7.6h-8.3c-1.5,0-2.2,1.9-1,2.8l6.7,5.2l-2.6,7.8
			c-0.5,1.5,1.3,2.7,2.5,1.7l6.5-5.8l6.9,5.6c1.3,0.9,3-0.3,2.4-1.8l-3-7.5l6.4-5.2C454.8,627.5,454.1,625.6,452.7,625.6z"/>
		<path class="st15" d="M485.8,593.4h-8.2l-2.2-7.7c-0.4-1.5-2.6-1.5-3,0l-2.1,7.6H462c-1.5,0-2.2,1.9-1,2.8l6.7,5.2l-2.6,7.8
			c-0.5,1.5,1.3,2.7,2.5,1.7l6.5-5.8l6.9,5.6c1.3,0.9,3-0.3,2.4-1.8l-3-7.5l6.4-5.2C487.9,595.3,487.3,593.4,485.8,593.4z"/>
		<path class="st15" d="M452.7,562.8h-8.2l-2.2-7.7c-0.4-1.5-2.6-1.5-3,0l-2.1,7.6h-8.3c-1.5,0-2.2,1.9-1,2.8l6.7,5.2l-2.6,7.8
			c-0.5,1.5,1.3,2.7,2.5,1.7l6.5-5.8l6.9,5.6c1.3,0.9,3-0.3,2.4-1.8l-3-7.5l6.4-5.2C454.8,564.6,454.1,562.8,452.7,562.8z"/>
		<path class="st15" d="M485.8,529.7h-8.2l-2.2-7.7c-0.4-1.5-2.6-1.5-3,0l-2.1,7.6H462c-1.5,0-2.2,1.9-1,2.8l6.7,5.2l-2.6,7.8
			c-0.5,1.5,1.3,2.7,2.5,1.7l6.5-5.8l6.9,5.6c1.3,0.9,3-0.3,2.4-1.8l-3-7.5l6.4-5.2C487.9,531.6,487.3,529.7,485.8,529.7z"/>
		<path class="st15" d="M452.7,494h-8.2l-2.2-7.7c-0.4-1.5-2.6-1.5-3,0l-2.1,7.6h-8.3c-1.5,0-2.2,1.9-1,2.8l6.7,5.2l-2.6,7.8
			c-0.5,1.5,1.3,2.7,2.5,1.7l6.5-5.8l6.9,5.6c1.3,0.9,3-0.3,2.4-1.8l-3-7.5l6.4-5.2C454.8,495.9,454.1,494,452.7,494z"/>
		<path class="st15" d="M485.8,458.7h-8.2l-2.2-7.7c-0.4-1.5-2.6-1.5-3,0l-2.1,7.6H462c-1.5,0-2.2,1.9-1,2.8l6.7,5.2l-2.6,7.8
			c-0.5,1.5,1.3,2.7,2.5,1.7l6.5-5.8l6.9,5.6c1.3,0.9,3-0.3,2.4-1.8l-3-7.5l6.4-5.2C487.9,460.5,487.3,458.7,485.8,458.7z"/>
		<path class="st15" d="M452.7,419.2h-8.2l-2.2-7.7c-0.4-1.5-2.6-1.5-3,0l-2.1,7.6h-8.3c-1.5,0-2.2,1.9-1,2.8l6.7,5.2l-2.6,7.8
			c-0.5,1.5,1.3,2.7,2.5,1.7l6.5-5.8l6.9,5.6c1.3,0.9,3-0.3,2.4-1.8l-3-7.5l6.4-5.2C454.8,421,454.1,419.2,452.7,419.2z"/>
		<path class="st15" d="M431.8,357.4l2.7,2.1l-2.6,7.8c-0.5,1.5,1.3,2.7,2.5,1.7l6.5-5.8l6.9,5.6c1.3,0.9,3-0.3,2.4-1.8l-3-7.5
			l6.4-5.2c1.2-0.9,0.5-2.8-1-2.8h-8.2l-1.5-5.1C439.1,350,435.3,353.6,431.8,357.4z"/>
		<path class="st15" d="M485.8,383.8h-8.2l-2.2-7.7c-0.4-1.5-2.6-1.5-3,0l-2.1,7.6H462c-1.5,0-2.2,1.9-1,2.8l6.7,5.2l-2.6,7.8
			c-0.5,1.5,1.3,2.7,2.5,1.7l6.5-5.8l6.9,5.6c1.3,0.9,3-0.3,2.4-1.8l-3-7.5l6.4-5.2C487.9,385.7,487.3,383.8,485.8,383.8z"/>
		<path class="st15" d="M518.9,625.6h-8.2l-2.2-7.7c-0.4-1.5-2.6-1.5-3,0l-2.1,7.6h-8.3c-1.5,0-2.2,1.9-1,2.8l6.7,5.2l-2.6,7.8
			c-0.5,1.5,1.3,2.7,2.5,1.7l6.5-5.8l6.9,5.6c1.3,0.9,3-0.3,2.4-1.8l-3-7.5l6.4-5.2C521.1,627.5,520.4,625.6,518.9,625.6z"/>
		<path class="st15" d="M552,593.4h-8.2l-2.2-7.7c-0.4-1.5-2.6-1.5-3,0l-2.1,7.6h-8.3c-1.5,0-2.2,1.9-1,2.8l6.7,5.2l-2.6,7.8
			c-0.5,1.5,1.3,2.7,2.5,1.7l6.5-5.8l6.9,5.6c1.3,0.9,3-0.3,2.4-1.8l-3-7.5l6.4-5.2C554.2,595.3,553.5,593.4,552,593.4z"/>
		<path class="st15" d="M518.9,562.8h-8.2l-2.2-7.7c-0.4-1.5-2.6-1.5-3,0l-2.1,7.6h-8.3c-1.5,0-2.2,1.9-1,2.8l6.7,5.2l-2.6,7.8
			c-0.5,1.5,1.3,2.7,2.5,1.7l6.5-5.8l6.9,5.6c1.3,0.9,3-0.3,2.4-1.8l-3-7.5l6.4-5.2C521.1,564.6,520.4,562.8,518.9,562.8z"/>
		<path class="st15" d="M552,529.7h-8.2l-2.2-7.7c-0.4-1.5-2.6-1.5-3,0l-2.1,7.6h-8.3c-1.5,0-2.2,1.9-1,2.8l6.7,5.2l-2.6,7.8
			c-0.5,1.5,1.3,2.7,2.5,1.7l6.5-5.8l6.9,5.6c1.3,0.9,3-0.3,2.4-1.8l-3-7.5l6.4-5.2C554.2,531.6,553.5,529.7,552,529.7z"/>
		<path class="st15" d="M518.9,494h-8.2l-2.2-7.7c-0.4-1.5-2.6-1.5-3,0l-2.1,7.6h-8.3c-1.5,0-2.2,1.9-1,2.8l6.7,5.2l-2.6,7.8
			c-0.5,1.5,1.3,2.7,2.5,1.7l6.5-5.8l6.9,5.6c1.3,0.9,3-0.3,2.4-1.8l-3-7.5l6.4-5.2C521.1,495.9,520.4,494,518.9,494z"/>
		<path class="st15" d="M552,458.7h-8.2l-2.2-7.7c-0.4-1.5-2.6-1.5-3,0l-2.1,7.6h-8.3c-1.5,0-2.2,1.9-1,2.8l6.7,5.2l-2.6,7.8
			c-0.5,1.5,1.3,2.7,2.5,1.7l6.5-5.8l6.9,5.6c1.3,0.9,3-0.3,2.4-1.8l-3-7.5l6.4-5.2C554.2,460.5,553.5,458.7,552,458.7z"/>
		<path class="st15" d="M518.9,419.2h-8.2l-2.2-7.7c-0.4-1.5-2.6-1.5-3,0l-2.1,7.6h-8.3c-1.5,0-2.2,1.9-1,2.8l6.7,5.2l-2.6,7.8
			c-0.5,1.5,1.3,2.7,2.5,1.7l6.5-5.8l6.9,5.6c1.3,0.9,3-0.3,2.4-1.8l-3-7.5l6.4-5.2C521.1,421,520.4,419.2,518.9,419.2z"/>
		<path class="st15" d="M518.9,351.6h-8.2l-2.2-7.7c-0.4-1.5-2.6-1.5-3,0l-2.1,7.6h-8.3c-1.5,0-2.2,1.9-1,2.8l6.7,5.2l-2.6,7.8
			c-0.5,1.5,1.3,2.7,2.5,1.7l6.5-5.8l6.9,5.6c1.3,0.9,3-0.3,2.4-1.8l-3-7.5l6.4-5.2C521.1,353.4,520.4,351.6,518.9,351.6z"/>
		<path class="st15" d="M552,383.8h-8.2l-2.2-7.7c-0.4-1.5-2.6-1.5-3,0l-2.1,7.6h-8.3c-1.5,0-2.2,1.9-1,2.8l6.7,5.2l-2.6,7.8
			c-0.5,1.5,1.3,2.7,2.5,1.7l6.5-5.8l6.9,5.6c1.3,0.9,3-0.3,2.4-1.8l-3-7.5l6.4-5.2C554.2,385.7,553.5,383.8,552,383.8z"/>
		<path class="st15" d="M584.4,625.6h-8.2L574,618c-0.4-1.5-2.6-1.5-3,0l-2.1,7.6h-8.3c-1.5,0-2.2,1.9-1,2.8l6.7,5.2l-2.6,7.8
			c-0.5,1.5,1.3,2.7,2.5,1.7l6.5-5.8l6.9,5.6c1.3,0.9,3-0.3,2.4-1.8l-3-7.5l6.4-5.2C586.6,627.5,585.9,625.6,584.4,625.6z"/>
		<path class="st15" d="M617.5,593.4h-8.2l-2.2-7.7c-0.4-1.5-2.6-1.5-3,0l-2.1,7.6h-8.3c-1.5,0-2.2,1.9-1,2.8l6.7,5.2l-2.6,7.8
			c-0.5,1.5,1.3,2.7,2.5,1.7l6.5-5.8l6.9,5.6c1.3,0.9,3-0.3,2.4-1.8l-3-7.5l6.4-5.2C619.7,595.3,619,593.4,617.5,593.4z"/>
		<path class="st15" d="M584.4,562.8h-8.2l-2.2-7.7c-0.4-1.5-2.6-1.5-3,0l-2.1,7.6h-8.3c-1.5,0-2.2,1.9-1,2.8l6.7,5.2l-2.6,7.8
			c-0.5,1.5,1.3,2.7,2.5,1.7l6.5-5.8l6.9,5.6c1.3,0.9,3-0.3,2.4-1.8l-3-7.5l6.4-5.2C586.6,564.6,585.9,562.8,584.4,562.8z"/>
		<path class="st15" d="M617.5,529.7h-8.2l-2.2-7.7c-0.4-1.5-2.6-1.5-3,0l-2.1,7.6h-8.3c-1.5,0-2.2,1.9-1,2.8l6.7,5.2l-2.6,7.8
			c-0.5,1.5,1.3,2.7,2.5,1.7l6.5-5.8l6.9,5.6c1.3,0.9,3-0.3,2.4-1.8l-3-7.5l6.4-5.2C619.7,531.6,619,529.7,617.5,529.7z"/>
		<path class="st15" d="M584.4,494h-8.2l-2.2-7.7c-0.4-1.5-2.6-1.5-3,0l-2.1,7.6h-8.3c-1.5,0-2.2,1.9-1,2.8l6.7,5.2l-2.6,7.8
			c-0.5,1.5,1.3,2.7,2.5,1.7l6.5-5.8l6.9,5.6c1.3,0.9,3-0.3,2.4-1.8l-3-7.5l6.4-5.2C586.6,495.9,585.9,494,584.4,494z"/>
		<path class="st15" d="M617.5,458.7h-8.2l-2.2-7.7c-0.4-1.5-2.6-1.5-3,0l-2.1,7.6h-8.3c-1.5,0-2.2,1.9-1,2.8l6.7,5.2l-2.6,7.8
			c-0.5,1.5,1.3,2.7,2.5,1.7l6.5-5.8l6.9,5.6c1.3,0.9,3-0.3,2.4-1.8l-3-7.5l6.4-5.2C619.7,460.5,619,458.7,617.5,458.7z"/>
		<path class="st15" d="M584.4,419.2h-8.2l-2.2-7.7c-0.4-1.5-2.6-1.5-3,0l-2.1,7.6h-8.3c-1.5,0-2.2,1.9-1,2.8l6.7,5.2l-2.6,7.8
			c-0.5,1.5,1.3,2.7,2.5,1.7l6.5-5.8l6.9,5.6c1.3,0.9,3-0.3,2.4-1.8l-3-7.5l6.4-5.2C586.6,421,585.9,419.2,584.4,419.2z"/>
		<path class="st15" d="M584.4,351.6h-8.2l-2.2-7.7c-0.4-1.5-2.6-1.5-3,0l-2.1,7.6h-8.3c-1.5,0-2.2,1.9-1,2.8l6.7,5.2l-2.6,7.8
			c-0.5,1.5,1.3,2.7,2.5,1.7l6.5-5.8l6.9,5.6c1.3,0.9,3-0.3,2.4-1.8l-3-7.5l6.4-5.2C586.6,353.4,585.9,351.6,584.4,351.6z"/>
		<path class="st15" d="M617.5,383.8h-8.2l-2.2-7.7c-0.4-1.5-2.6-1.5-3,0l-2.1,7.6h-8.3c-1.5,0-2.2,1.9-1,2.8l6.7,5.2l-2.6,7.8
			c-0.5,1.5,1.3,2.7,2.5,1.7l6.5-5.8l6.9,5.6c1.3,0.9,3-0.3,2.4-1.8l-3-7.5l6.4-5.2C619.7,385.7,619,383.8,617.5,383.8z"/>
		<path class="st15" d="M649.8,625.6h-8.2l-2.2-7.7c-0.4-1.5-2.6-1.5-3,0l-2.1,7.6H626c-1.5,0-2.2,1.9-1,2.8l6.7,5.2l-2.6,7.8
			c-0.5,1.5,1.3,2.7,2.5,1.7l6.5-5.8l6.9,5.6c1.3,0.9,3-0.3,2.4-1.8l-3-7.5l6.4-5.2C651.9,627.5,651.2,625.6,649.8,625.6z"/>
		<path class="st15" d="M682.9,593.4h-8.2l-2.2-7.7c-0.4-1.5-2.6-1.5-3,0l-2.1,7.6h-8.3c-1.5,0-2.2,1.9-1,2.8l6.7,5.2l-2.6,7.8
			c-0.5,1.5,1.3,2.7,2.5,1.7l6.5-5.8l6.9,5.6c1.3,0.9,3-0.3,2.4-1.8l-3-7.5l6.4-5.2C685,595.3,684.4,593.4,682.9,593.4z"/>
		<path class="st15" d="M649.8,562.8h-8.2l-2.2-7.7c-0.4-1.5-2.6-1.5-3,0l-2.1,7.6H626c-1.5,0-2.2,1.9-1,2.8l6.7,5.2l-2.6,7.8
			c-0.5,1.5,1.3,2.7,2.5,1.7l6.5-5.8l6.9,5.6c1.3,0.9,3-0.3,2.4-1.8l-3-7.5l6.4-5.2C651.9,564.6,651.2,562.8,649.8,562.8z"/>
		<path class="st15" d="M682.9,529.7h-8.2l-2.2-7.7c-0.4-1.5-2.6-1.5-3,0l-2.1,7.6h-8.3c-1.5,0-2.2,1.9-1,2.8l6.7,5.2l-2.6,7.8
			c-0.5,1.5,1.3,2.7,2.5,1.7l6.5-5.8l6.9,5.6c1.3,0.9,3-0.3,2.4-1.8l-3-7.5l6.4-5.2C685,531.6,684.4,529.7,682.9,529.7z"/>
		<path class="st15" d="M649.8,494h-8.2l-2.2-7.7c-0.4-1.5-2.6-1.5-3,0l-2.1,7.6H626c-1.5,0-2.2,1.9-1,2.8l6.7,5.2l-2.6,7.8
			c-0.5,1.5,1.3,2.7,2.5,1.7l6.5-5.8l6.9,5.6c1.3,0.9,3-0.3,2.4-1.8l-3-7.5l6.4-5.2C651.9,495.9,651.2,494,649.8,494z"/>
		<path class="st15" d="M682.9,458.7h-8.2l-2.2-7.7c-0.4-1.5-2.6-1.5-3,0l-2.1,7.6h-8.3c-1.5,0-2.2,1.9-1,2.8l6.7,5.2l-2.6,7.8
			c-0.5,1.5,1.3,2.7,2.5,1.7l6.5-5.8l6.9,5.6c1.3,0.9,3-0.3,2.4-1.8l-3-7.5l6.4-5.2C685,460.5,684.4,458.7,682.9,458.7z"/>
		<path class="st15" d="M649.8,419.2h-8.2l-2.2-7.7c-0.4-1.5-2.6-1.5-3,0l-2.1,7.6H626c-1.5,0-2.2,1.9-1,2.8l6.7,5.2l-2.6,7.8
			c-0.5,1.5,1.3,2.7,2.5,1.7l6.5-5.8l6.9,5.6c1.3,0.9,3-0.3,2.4-1.8l-3-7.5l6.4-5.2C651.9,421,651.2,419.2,649.8,419.2z"/>
		<path class="st15" d="M649.8,351.6h-8.2l-2.2-7.7c-0.4-1.5-2.6-1.5-3,0l-2.1,7.6H626c-1.5,0-2.2,1.9-1,2.8l6.7,5.2l-2.6,7.8
			c-0.5,1.5,1.3,2.7,2.5,1.7l6.5-5.8l6.9,5.6c1.3,0.9,3-0.3,2.4-1.8l-3-7.5l6.4-5.2C651.9,353.4,651.2,351.6,649.8,351.6z"/>
		<path class="st15" d="M715.6,625.6h-8.2l-2.2-7.7c-0.4-1.5-2.6-1.5-3,0l-2.1,7.6h-8.3c-1.5,0-2.2,1.9-1,2.8l6.7,5.2l-2.6,7.8
			c-0.5,1.5,1.3,2.7,2.5,1.7l6.5-5.8l6.9,5.6c1.3,0.9,3-0.3,2.4-1.8l-3-7.5l6.4-5.2C717.8,627.5,717.1,625.6,715.6,625.6z"/>
		<path class="st15" d="M715.6,562.8h-8.2l-2.2-7.7c-0.4-1.5-2.6-1.5-3,0l-2.1,7.6h-8.3c-1.5,0-2.2,1.9-1,2.8l6.7,5.2l-2.6,7.8
			c-0.5,1.5,1.3,2.7,2.5,1.7l6.5-5.8l6.9,5.6c1.3,0.9,3-0.3,2.4-1.8l-3-7.5l6.4-5.2C717.8,564.6,717.1,562.8,715.6,562.8z"/>
		<path class="st15" d="M715.6,494h-8.2l-2.2-7.7c-0.4-1.5-2.6-1.5-3,0l-2.1,7.6h-8.3c-1.5,0-2.2,1.9-1,2.8l6.7,5.2l-2.6,7.8
			c-0.5,1.5,1.3,2.7,2.5,1.7l6.5-5.8l6.9,5.6c1.3,0.9,3-0.3,2.4-1.8l-3-7.5l6.4-5.2C717.8,495.9,717.1,494,715.6,494z"/>
		<path class="st15" d="M715.6,419.2h-8.2l-2.2-7.7c-0.4-1.5-2.6-1.5-3,0l-2.1,7.6h-8.3c-1.5,0-2.2,1.9-1,2.8l6.7,5.2l-2.6,7.8
			c-0.5,1.5,1.3,2.7,2.5,1.7l6.5-5.8l6.9,5.6c1.3,0.9,3-0.3,2.4-1.8l-3-7.5l6.4-5.2C717.8,421,717.1,419.2,715.6,419.2z"/>
		<path class="st15" d="M715.6,351.6h-8.2l-2.2-7.7c-0.4-1.5-2.6-1.5-3,0l-2.1,7.6h-8.3c-1.5,0-2.2,1.9-1,2.8l6.7,5.2l-2.6,7.8
			c-0.5,1.5,1.3,2.7,2.5,1.7l6.5-5.8l6.9,5.6c1.3,0.9,3-0.3,2.4-1.8l-3-7.5l6.4-5.2C717.8,353.4,717.1,351.6,715.6,351.6z"/>
		<path class="st15" d="M682.9,383.8h-8.2l-2.2-7.7c-0.4-1.5-2.6-1.5-3,0l-2.1,7.6h-8.3c-1.5,0-2.2,1.9-1,2.8l6.7,5.2l-2.6,7.8
			c-0.5,1.5,1.3,2.7,2.5,1.7l6.5-5.8l6.9,5.6c1.3,0.9,3-0.3,2.4-1.8l-3-7.5l6.4-5.2C685,385.7,684.4,383.8,682.9,383.8z"/>
	</g>
</g>
<g>
	<polygon class="st16" points="-619.4,470.5 -697.1,600.2 -619.4,565.4 	"/>
	<polygon class="st17" points="-697.1,600.2 -619.4,647.6 -619.4,565.4 	"/>
	<polygon class="st16" points="-697.1,616.1 -619.4,726.5 -619.4,662.1 	"/>
	<polygon class="st18" points="-541.2,600.2 -619.4,470.5 -619.4,565.4 	"/>
	<polygon class="st19" points="-541.2,600.2 -619.4,565.4 -619.4,647.6 -619.2,647.7 	"/>
	<polygon class="st20" points="-619.4,662.1 -619.4,726.5 -541.2,616.1 	"/>
</g>
<path class="st21" d="M-1810.8-69h425.1v425.1h-425.1V-69z"/>
<path class="st22" d="M-1551,25.4h165.3V-69H-1551V25.4z M-1810.8,356.1h425.1v-94.5h-425.1V356.1z M-1551,190.8h165.3V96.3H-1551
	V190.8z"/>
<path class="st23" d="M-1810.8-69h259.8v259.8h-259.8V-69z"/>
<path class="st21" d="M-1753.7-40.2c0.5-1,1.8-1.5,2.9-0.9c0.4,0.2,0.7,0.5,0.9,0.9l6.4,16.8c0.2,0.9,1.2,1.4,1.9,1.4l17.9,0.9
	c1.9,0,2.6,2.4,1.2,3.8l-14.2,11.1c-0.6,0.6-0.8,1.6-0.5,2.4l4.7,17c0.4,1.1-0.2,2.3-1.3,2.7c-0.7,0.2-1.4,0.1-2-0.3l-14.9-9.7
	c-0.7-0.5-1.6-0.5-2.4,0l-14.9,9.7c-0.9,0.7-2.3,0.5-3-0.4c-0.4-0.6-0.5-1.3-0.3-2l4.7-17.2c0.3-0.9,0-1.8-0.7-2.4l-13.9-10.9
	c-0.9-0.7-1.1-2.1-0.3-3c0.4-0.5,0.9-0.7,1.5-0.8l17.9-0.9c0.7,0,1.7-0.5,1.9-1.4l6.4-16.5v-0.3H-1753.7z M-1753.7,30.6
	c0.5-1,1.8-1.5,2.9-0.9c0.4,0.2,0.7,0.5,0.9,0.9l6.4,16.8c0.2,0.9,1.2,1.4,1.9,1.4l17.9,0.9c1.9,0,2.6,2.4,1.2,3.8l-14.2,11.1
	c-0.6,0.6-0.8,1.6-0.5,2.4l4.7,17c0.4,1.1-0.2,2.3-1.3,2.7c-0.7,0.2-1.4,0.1-2-0.3l-14.9-9.7c-0.7-0.5-1.6-0.5-2.4,0l-14.9,9.7
	c-0.9,0.7-2.3,0.5-3-0.4c-0.4-0.6-0.5-1.3-0.3-2l4.7-17.2c0.3-0.9,0-1.8-0.7-2.4l-13.9-10.9c-0.9-0.7-1.1-2.1-0.3-3
	c0.4-0.5,0.9-0.7,1.5-0.8l17.9-0.9c0.7,0,1.7-0.5,1.9-1.4l6.4-16.5v-0.3C-1753.8,30.6-1753.7,30.6-1753.7,30.6z M-1753.7,101.5
	c0.5-1,1.8-1.5,2.9-0.9c0.4,0.2,0.7,0.5,0.9,0.9l6.4,16.8c0.2,0.9,1.2,1.4,1.9,1.4l17.9,0.9c1.9,0,2.6,2.4,1.2,3.8l-14.2,11.1
	c-0.6,0.6-0.8,1.6-0.5,2.4l4.7,17c0.4,1.1-0.2,2.3-1.3,2.7c-0.7,0.2-1.4,0.1-2-0.3l-14.9-9.7c-0.7-0.5-1.6-0.5-2.4,0l-14.9,9.7
	c-0.9,0.7-2.3,0.5-3-0.4c-0.4-0.6-0.5-1.3-0.3-2l4.7-17.2c0.3-0.9,0-1.8-0.7-2.4l-13.9-10.9c-0.9-0.7-1.1-2.1-0.3-3
	c0.4-0.5,0.9-0.7,1.5-0.8l17.9-0.9c0.7,0,1.7-0.5,1.9-1.4l6.4-16.5v-0.3C-1753.8,101.5-1753.7,101.5-1753.7,101.5z M-1682.8-40.2
	c0.5-1,1.8-1.5,2.9-0.9c0.4,0.2,0.7,0.5,0.9,0.9l6.4,16.8c0.2,0.9,1.2,1.4,1.9,1.4l17.9,0.9c1.9,0,2.6,2.4,1.2,3.8l-14.2,11.1
	c-0.6,0.6-0.8,1.6-0.5,2.4l4.7,17c0.4,1.1-0.2,2.3-1.3,2.7c-0.7,0.2-1.4,0.1-2-0.3l-14.9-9.7c-0.7-0.5-1.6-0.5-2.4,0l-14.9,9.7
	c-0.9,0.7-2.3,0.5-3-0.4c-0.4-0.6-0.5-1.3-0.3-2l4.7-17.2c0.3-0.9,0-1.8-0.7-2.4l-13.9-10.9c-0.9-0.7-1.1-2.1-0.3-3
	c0.4-0.5,0.9-0.7,1.5-0.8l17.9-0.9c0.7,0,1.7-0.5,1.9-1.4l6.4-16.5v-0.3H-1682.8z M-1682.8,30.6c0.5-1,1.8-1.5,2.9-0.9
	c0.4,0.2,0.7,0.5,0.9,0.9l6.4,16.8c0.2,0.9,1.2,1.4,1.9,1.4l17.9,0.9c1.9,0,2.6,2.4,1.2,3.8l-14.2,11.1c-0.6,0.6-0.8,1.6-0.5,2.4
	l4.7,17c0.4,1.1-0.2,2.3-1.3,2.7c-0.7,0.2-1.4,0.1-2-0.3l-14.9-9.7c-0.7-0.5-1.6-0.5-2.4,0l-14.9,9.7c-0.9,0.7-2.3,0.5-3-0.4
	c-0.4-0.6-0.5-1.3-0.3-2l4.7-17.2c0.3-0.9,0-1.8-0.7-2.4l-13.9-10.9c-0.9-0.7-1.1-2.1-0.3-3c0.4-0.5,0.9-0.7,1.5-0.8l17.9-0.9
	c0.7,0,1.7-0.5,1.9-1.4l6.4-16.5v-0.3C-1682.9,30.6-1682.8,30.6-1682.8,30.6z M-1682.8,101.5c0.5-1,1.8-1.5,2.9-0.9
	c0.4,0.2,0.7,0.5,0.9,0.9l6.4,16.8c0.2,0.9,1.2,1.4,1.9,1.4l17.9,0.9c1.9,0,2.6,2.4,1.2,3.8l-14.2,11.1c-0.6,0.6-0.8,1.6-0.5,2.4
	l4.7,17c0.4,1.1-0.2,2.3-1.3,2.7c-0.7,0.2-1.4,0.1-2-0.3l-14.9-9.7c-0.7-0.5-1.6-0.5-2.4,0l-14.9,9.7c-0.9,0.7-2.3,0.5-3-0.4
	c-0.4-0.6-0.5-1.3-0.3-2l4.7-17.2c0.3-0.9,0-1.8-0.7-2.4l-13.9-10.9c-0.9-0.7-1.1-2.1-0.3-3c0.4-0.5,0.9-0.7,1.5-0.8l17.9-0.9
	c0.7,0,1.7-0.5,1.9-1.4l6.4-16.5v-0.3C-1682.9,101.5-1682.8,101.5-1682.8,101.5z M-1612-40.2c0.5-1,1.8-1.5,2.9-0.9
	c0.4,0.2,0.7,0.5,0.9,0.9l6.4,16.8c0.2,0.9,1.2,1.4,1.9,1.4l17.9,0.9c1.9,0,2.6,2.4,1.2,3.8L-1595-6.2c-0.6,0.6-0.8,1.6-0.5,2.4
	l4.7,17c0.4,1.1-0.2,2.3-1.3,2.7c-0.7,0.2-1.4,0.1-2-0.3l-14.9-9.7c-0.7-0.5-1.6-0.5-2.4,0l-14.9,9.7c-0.9,0.7-2.3,0.5-3-0.4
	c-0.4-0.6-0.5-1.3-0.3-2l4.7-17.2c0.3-0.9,0-1.8-0.7-2.4l-13.9-10.9c-0.9-0.7-1.1-2.1-0.3-3c0.4-0.5,0.9-0.7,1.5-0.8l17.9-0.9
	c0.7,0,1.7-0.5,1.9-1.4l6.4-16.5L-1612-40.2z M-1612,30.6c0.5-1,1.8-1.5,2.9-0.9c0.4,0.2,0.7,0.5,0.9,0.9l6.4,16.8
	c0.2,0.9,1.2,1.4,1.9,1.4l17.9,0.9c1.9,0,2.6,2.4,1.2,3.8l-14.2,11.1c-0.6,0.6-0.8,1.6-0.5,2.4l4.7,17c0.4,1.1-0.2,2.3-1.3,2.7
	c-0.7,0.2-1.4,0.1-2-0.3l-14.9-9.7c-0.7-0.5-1.6-0.5-2.4,0l-14.9,9.7c-0.9,0.7-2.3,0.5-3-0.4c-0.4-0.6-0.5-1.3-0.3-2l4.7-17.2
	c0.3-0.9,0-1.8-0.7-2.4l-13.9-10.9c-0.9-0.7-1.1-2.1-0.3-3c0.4-0.5,0.9-0.7,1.5-0.8l17.9-0.9c0.7,0,1.7-0.5,1.9-1.4l6.4-16.5
	L-1612,30.6z M-1612,101.5c0.5-1,1.8-1.5,2.9-0.9c0.4,0.2,0.7,0.5,0.9,0.9l6.4,16.8c0.2,0.9,1.2,1.4,1.9,1.4l17.9,0.9
	c1.9,0,2.6,2.4,1.2,3.8l-14.2,11.1c-0.6,0.6-0.8,1.6-0.5,2.4l4.7,17c0.4,1.1-0.2,2.3-1.3,2.7c-0.7,0.2-1.4,0.1-2-0.3l-14.9-9.7
	c-0.7-0.5-1.6-0.5-2.4,0l-14.9,9.7c-0.9,0.7-2.3,0.5-3-0.4c-0.4-0.6-0.5-1.3-0.3-2l4.7-17.2c0.3-0.9,0-1.8-0.7-2.4l-13.9-10.9
	c-0.9-0.7-1.1-2.1-0.3-3c0.4-0.5,0.9-0.7,1.5-0.8l17.9-0.9c0.7,0,1.7-0.5,1.9-1.4l6.4-16.5L-1612,101.5z"/>
</svg>
