<?xml version="1.0" encoding="utf-8"?>
<!-- Generator: Adobe Illustrator 24.2.1, SVG Export Plug-In . SVG Version: 6.00 Build 0)  -->
<svg version="1.1" id="Layer_1" xmlns="http://www.w3.org/2000/svg" xmlns:xlink="http://www.w3.org/1999/xlink" x="0px" y="0px"
	 viewBox="0 0 1057.3 1057.3" style="enable-background:new 0 0 1057.3 1057.3;" xml:space="preserve">
<style type="text/css">
	.st0{fill:#0C48B6;}
	.st1{fill:#FFE15A;}
	.st2{fill:#ECEFF0;}
	.st3{fill:#8C8C8C;}
	.st4{fill:#393939;}
	.st5{fill:#343434;}
	.st6{fill:#141414;}
	.st7{fill:#3C3C3B;}
	.st8{fill:#FA4051;}
	.st9{fill:#FFFFFF;}
	.st10{fill:#1739C9;}
	.st11{fill:#F5F5F5;}
	.st12{fill:#F8F9FD;}
	.st13{fill:#EF5350;}
	.st14{fill:#1E88E5;}
</style>
<g id="Euro">
	<path class="st0" d="M-914.2,1114.3h-352.5c-82.8,0-150-67.2-150-150V611.8c0-82.8,67.2-150,150-150h352.5c82.8,0,150,67.2,150,150
		v352.5C-764.2,1047.1-831.3,1114.3-914.2,1114.3z"/>
	<g>
		<g>
			<path class="st1" d="M-1169.2,612.6l4.2,14.6l15.6,0c2.8,0,4.1,3.5,1.9,5.3l-12.3,10l5.3,14.6c1,2.8-2.2,5.2-4.6,3.4l-12.5-9.5
				l-12.3,9.7c-2.3,1.8-5.6-0.4-4.7-3.2l4.6-15l-12.8-10c-2.3-1.8-1-5.4,1.9-5.4l15.9,0l4.1-14.4
				C-1174.2,609.7-1170.1,609.7-1169.2,612.6z"/>
			<path class="st1" d="M-1169.2,915.4l4.2,14.6l15.6,0c2.8,0,4.1,3.5,1.9,5.3l-12.3,10l5.3,14.6c1,2.8-2.2,5.2-4.6,3.4l-12.5-9.5
				l-12.3,9.7c-2.3,1.8-5.6-0.4-4.7-3.2l4.6-15l-12.8-10c-2.3-1.8-1-5.4,1.9-5.4l15.9,0l4.1-14.4
				C-1174.2,912.5-1170.1,912.5-1169.2,915.4z"/>
			<path class="st1" d="M-1233.2,676.6l4.2,14.6l15.6,0c2.8,0,4.1,3.5,1.9,5.3l-12.3,10l5.3,14.6c1,2.8-2.2,5.2-4.6,3.4l-12.5-9.5
				l-12.3,9.7c-2.3,1.8-5.6-0.4-4.7-3.2l4.6-15l-12.8-10c-2.3-1.8-1-5.4,1.9-5.4l15.9,0l4.1-14.4
				C-1238.2,673.7-1234,673.7-1233.2,676.6z"/>
			<path class="st1" d="M-1233.2,851.2l4.2,14.6l15.6,0c2.8,0,4.1,3.5,1.9,5.3l-12.3,10l5.3,14.6c1,2.8-2.2,5.2-4.6,3.4l-12.5-9.5
				l-12.3,9.7c-2.3,1.8-5.6-0.4-4.7-3.2l4.6-15l-12.8-10c-2.3-1.8-1-5.4,1.9-5.4l15.9,0l4.1-14.4
				C-1238.2,848.3-1234,848.3-1233.2,851.2z"/>
			<path class="st1" d="M-1259.2,767.7l4.2,14.6l15.6,0c2.8,0,4.1,3.5,1.9,5.3l-12.3,10l5.3,14.6c1,2.8-2.2,5.2-4.6,3.4l-12.5-9.5
				l-12.3,9.7c-2.3,1.8-5.6-0.4-4.7-3.2l4.6-15l-12.8-10c-2.3-1.8-1-5.4,1.9-5.4l15.9,0l4.1-14.4
				C-1264.2,764.8-1260,764.8-1259.2,767.7z"/>
			<path class="st1" d="M-1084.6,593.1l4.2,14.6l15.6,0c2.8,0,4.1,3.5,1.9,5.3l-12.3,10l5.3,14.6c1,2.8-2.2,5.2-4.6,3.4l-12.5-9.5
				l-12.3,9.7c-2.3,1.8-5.6-0.4-4.7-3.2l4.6-15l-12.8-10c-2.3-1.8-1-5.4,1.9-5.4l15.9,0l4.1-14.4
				C-1089.6,590.2-1085.4,590.2-1084.6,593.1z"/>
			<path class="st1" d="M-1084.6,942.2l4.2,14.6l15.6,0c2.8,0,4.1,3.5,1.9,5.3l-12.3,10l5.3,14.6c1,2.8-2.2,5.2-4.6,3.4l-12.5-9.5
				l-12.3,9.7c-2.3,1.8-5.6-0.4-4.7-3.2l4.6-15l-12.8-10c-2.3-1.8-1-5.4,1.9-5.4l15.9,0l4.1-14.4
				C-1089.6,939.3-1085.4,939.3-1084.6,942.2z"/>
		</g>
		<g>
			<path class="st1" d="M-1000.3,612.6l-4.2,14.6l-15.6,0c-2.8,0-4.1,3.5-1.9,5.3l12.3,10l-5.3,14.6c-1,2.8,2.2,5.2,4.6,3.4
				l12.5-9.5l12.3,9.7c2.3,1.8,5.6-0.4,4.7-3.2l-4.6-15l12.8-10c2.3-1.8,1-5.4-1.9-5.4l-15.9,0l-4.1-14.4
				C-995.4,609.7-999.5,609.7-1000.3,612.6z"/>
			<path class="st1" d="M-1000.3,915.4l-4.2,14.6l-15.6,0c-2.8,0-4.1,3.5-1.9,5.3l12.3,10l-5.3,14.6c-1,2.8,2.2,5.2,4.6,3.4
				l12.5-9.5l12.3,9.7c2.3,1.8,5.6-0.4,4.7-3.2l-4.6-15l12.8-10c2.3-1.8,1-5.4-1.9-5.4l-15.9,0l-4.1-14.4
				C-995.4,912.5-999.5,912.5-1000.3,915.4z"/>
			<path class="st1" d="M-936.4,676.6l-4.2,14.6l-15.6,0c-2.8,0-4.1,3.5-1.9,5.3l12.3,10l-5.3,14.6c-1,2.8,2.2,5.2,4.6,3.4l12.5-9.5
				l12.3,9.7c2.3,1.8,5.6-0.4,4.7-3.2l-4.6-15l12.8-10c2.3-1.8,1-5.4-1.9-5.4l-15.9,0l-4.1-14.4
				C-931.4,673.7-935.5,673.7-936.4,676.6z"/>
			<path class="st1" d="M-936.4,851.2l-4.2,14.6l-15.6,0c-2.8,0-4.1,3.5-1.9,5.3l12.3,10l-5.3,14.6c-1,2.8,2.2,5.2,4.6,3.4l12.5-9.5
				l12.3,9.7c2.3,1.8,5.6-0.4,4.7-3.2l-4.6-15l12.8-10c2.3-1.8,1-5.4-1.9-5.4l-15.9,0l-4.1-14.4
				C-931.4,848.3-935.5,848.3-936.4,851.2z"/>
			<path class="st1" d="M-910.4,767.7l-4.2,14.6l-15.6,0c-2.8,0-4.1,3.5-1.9,5.3l12.3,10l-5.3,14.6c-1,2.8,2.2,5.2,4.6,3.4l12.5-9.5
				l12.3,9.7c2.3,1.8,5.6-0.4,4.7-3.2l-4.6-15l12.8-10c2.3-1.8,1-5.4-1.9-5.4l-15.9,0l-4.1-14.4
				C-905.4,764.8-909.5,764.8-910.4,767.7z"/>
		</g>
	</g>
</g>
<image style="display:none;overflow:visible;" width="1903" height="1041" xlink:href="9C54CE1D.html"  transform="matrix(1 0 0 1 -2041.9255 -728.6022)">
</image>
<g id="BTC_1_">
	<path class="st2" d="M509.9,744.9H157.4c-82.8,0-150-67.2-150-150V242.4c0-82.8,67.2-150,150-150h352.5c82.8,0,150,67.2,150,150
		v352.5C659.9,677.8,592.8,744.9,509.9,744.9z"/>
	<g>
		<polygon class="st3" points="320.6,211.3 196.5,418.4 320.6,362.8 		"/>
		<polygon class="st4" points="196.5,418.4 320.6,494.1 320.6,362.8 		"/>
		<polygon class="st3" points="196.5,443.8 320.6,620.1 320.6,517.2 		"/>
		<polygon class="st5" points="445.4,418.4 320.6,211.3 320.6,362.8 		"/>
		<polygon class="st6" points="445.4,418.4 320.6,362.8 320.6,494.1 320.9,494.3 		"/>
		<polygon class="st7" points="320.6,517.2 320.6,620.1 445.4,443.8 		"/>
	</g>
</g>
<g>
	<g>
		<path class="st8" d="M741.6,462.7h302.9v-10.2c0-13.8-2-27.2-5.7-39.8H741.6V462.7z"/>
		<rect x="741.6" y="612.7" class="st8" width="302.9" height="50"/>
		<rect x="741.6" y="511.9" class="st8" width="302.9" height="50"/>
		<rect x="394.6" y="713.4" class="st8" width="650" height="50"/>
		<path class="st8" d="M534.6,962.5h370c43,0,81.5-19.4,107.2-50H427.3C453,943.1,491.5,962.5,534.6,962.5z"/>
		<path class="st8" d="M394.6,822.5c0,13.9,2,27.4,5.8,40.1h638.3c3.8-12.7,5.8-26.2,5.8-40.1v-9.9h-650V822.5z"/>
		<path class="st8" d="M1011.8,362.5c-25.7-30.6-64.2-50-107.2-50H741.6v50H1011.8z"/>
	</g>
	<g>
		<rect x="394.6" y="763.4" class="st9" width="650" height="49.2"/>
		<path class="st9" d="M427.3,912.5h584.5c12.1-14.4,21.4-31.4,26.9-49.9H400.4C405.9,881.1,415.2,898,427.3,912.5z"/>
		<polygon class="st9" points="394.6,662.7 394.6,713.4 1044.6,713.4 1044.6,662.7 741.6,662.7 741.6,662.7 		"/>
		<rect x="741.6" y="462.7" class="st9" width="302.9" height="49.2"/>
		<rect x="741.6" y="561.9" class="st9" width="302.9" height="50.8"/>
		<path class="st9" d="M1038.8,412.7c-5.5-18.7-14.8-35.7-27-50.2H741.6v50.2H1038.8z"/>
		<rect x="741.6" y="612.7" class="st10" width="0" height="50"/>
		<rect x="741.6" y="412.7" class="st10" width="0" height="50"/>
		<rect x="741.6" y="511.9" class="st10" width="0" height="50"/>
		<path class="st10" d="M741.6,511.9L741.6,511.9v-49.2l0,0v-50l0,0v-50.2l0,0v-50H534.6c-35,0-67,12.8-91.5,34.1l1.5,5.1l8.2,0
			c1.5,0,2.1,1.9,1,2.8l-6.4,5.2l3,7.5c0.5,1.5-1.2,2.7-2.4,1.8l-6.9-5.6l-6.5,5.8c-1.2,1-2.9-0.2-2.5-1.7l2.6-7.8l-2.7-2.1
			c-23.1,25-37.2,58.4-37.2,95.1v210.2h347.1v-50l0,0v-50.8l0,0V511.9z M453.7,628.4l-6.4,5.2l3,7.5c0.5,1.5-1.2,2.7-2.4,1.8
			l-6.9-5.6l-6.5,5.8c-1.2,1-2.9-0.2-2.5-1.7l2.6-7.8l-6.7-5.2c-1.2-0.9-0.5-2.8,1-2.8l8.3,0l2.1-7.6c0.4-1.5,2.6-1.5,3,0l2.2,7.7
			l8.2,0C454.1,625.6,454.8,627.5,453.7,628.4z M453.7,565.6l-6.4,5.2l3,7.5c0.5,1.5-1.2,2.7-2.4,1.8l-6.9-5.6l-6.5,5.8
			c-1.2,1-2.9-0.2-2.5-1.7l2.6-7.8l-6.7-5.2c-1.2-0.9-0.5-2.8,1-2.8l8.3,0l2.1-7.6c0.4-1.5,2.6-1.5,3,0l2.2,7.7l8.2,0
			C454.1,562.8,454.8,564.6,453.7,565.6z M453.7,496.8l-6.4,5.2l3,7.5c0.5,1.5-1.2,2.7-2.4,1.8l-6.9-5.6l-6.5,5.8
			c-1.2,1-2.9-0.2-2.5-1.7l2.6-7.8l-6.7-5.2c-1.2-0.9-0.5-2.8,1-2.8l8.3,0l2.1-7.6c0.4-1.5,2.6-1.5,3,0l2.2,7.7l8.2,0
			C454.1,494,454.8,495.9,453.7,496.8z M453.7,422l-6.4,5.2l3,7.5c0.5,1.5-1.2,2.7-2.4,1.8l-6.9-5.6l-6.5,5.8
			c-1.2,1-2.9-0.2-2.5-1.7l2.6-7.8l-6.7-5.2c-1.2-0.9-0.5-2.8,1-2.8l8.3,0l2.1-7.6c0.4-1.5,2.6-1.5,3,0l2.2,7.7l8.2,0
			C454.1,419.2,454.8,421,453.7,422z M486.8,596.2l-6.4,5.2l3,7.5c0.5,1.5-1.2,2.7-2.4,1.8l-6.9-5.6l-6.5,5.8
			c-1.2,1-2.9-0.2-2.5-1.7l2.6-7.8l-6.7-5.2c-1.2-0.9-0.5-2.8,1-2.8l8.3,0l2.1-7.6c0.4-1.5,2.6-1.5,3,0l2.2,7.7l8.2,0
			C487.3,593.4,487.9,595.3,486.8,596.2z M486.8,532.5l-6.4,5.2l3,7.5c0.5,1.5-1.2,2.7-2.4,1.8l-6.9-5.6l-6.5,5.8
			c-1.2,1-2.9-0.2-2.5-1.7l2.6-7.8l-6.7-5.2c-1.2-0.9-0.5-2.8,1-2.8l8.3,0l2.1-7.6c0.4-1.5,2.6-1.5,3,0l2.2,7.7l8.2,0
			C487.3,529.7,487.9,531.6,486.8,532.5z M486.8,461.5l-6.4,5.2l3,7.5c0.5,1.5-1.2,2.7-2.4,1.8l-6.9-5.6l-6.5,5.8
			c-1.2,1-2.9-0.2-2.5-1.7l2.6-7.8l-6.7-5.2c-1.2-0.9-0.5-2.8,1-2.8l8.3,0l2.1-7.6c0.4-1.5,2.6-1.5,3,0l2.2,7.7l8.2,0
			C487.3,458.7,487.9,460.5,486.8,461.5z M486.8,386.6l-6.4,5.2l3,7.5c0.5,1.5-1.2,2.7-2.4,1.8l-6.9-5.6l-6.5,5.8
			c-1.2,1-2.9-0.2-2.5-1.7l2.6-7.8l-6.7-5.2c-1.2-0.9-0.5-2.8,1-2.8l8.3,0l2.1-7.6c0.4-1.5,2.6-1.5,3,0l2.2,7.7l8.2,0
			C487.3,383.8,487.9,385.7,486.8,386.6z M519.9,628.4l-6.4,5.2l3,7.5c0.5,1.5-1.2,2.7-2.4,1.8l-6.9-5.6l-6.5,5.8
			c-1.2,1-2.9-0.2-2.5-1.7l2.6-7.8l-6.7-5.2c-1.2-0.9-0.5-2.8,1-2.8l8.3,0l2.1-7.6c0.4-1.5,2.6-1.5,3,0l2.2,7.7l8.2,0
			C520.4,625.6,521.1,627.5,519.9,628.4z M519.9,565.6l-6.4,5.2l3,7.5c0.5,1.5-1.2,2.7-2.4,1.8l-6.9-5.6l-6.5,5.8
			c-1.2,1-2.9-0.2-2.5-1.7l2.6-7.8l-6.7-5.2c-1.2-0.9-0.5-2.8,1-2.8l8.3,0l2.1-7.6c0.4-1.5,2.6-1.5,3,0l2.2,7.7l8.2,0
			C520.4,562.8,521.1,564.6,519.9,565.6z M519.9,496.8l-6.4,5.2l3,7.5c0.5,1.5-1.2,2.7-2.4,1.8l-6.9-5.6l-6.5,5.8
			c-1.2,1-2.9-0.2-2.5-1.7l2.6-7.8l-6.7-5.2c-1.2-0.9-0.5-2.8,1-2.8l8.3,0l2.1-7.6c0.4-1.5,2.6-1.5,3,0l2.2,7.7l8.2,0
			C520.4,494,521.1,495.9,519.9,496.8z M519.9,422l-6.4,5.2l3,7.5c0.5,1.5-1.2,2.7-2.4,1.8l-6.9-5.6l-6.5,5.8
			c-1.2,1-2.9-0.2-2.5-1.7l2.6-7.8l-6.7-5.2c-1.2-0.9-0.5-2.8,1-2.8l8.3,0l2.1-7.6c0.4-1.5,2.6-1.5,3,0l2.2,7.7l8.2,0
			C520.4,419.2,521.1,421,519.9,422z M519.9,354.4l-6.4,5.2l3,7.5c0.5,1.5-1.2,2.7-2.4,1.8l-6.9-5.6l-6.5,5.8
			c-1.2,1-2.9-0.2-2.5-1.7l2.6-7.8l-6.7-5.2c-1.2-0.9-0.5-2.8,1-2.8l8.3,0l2.1-7.6c0.4-1.5,2.6-1.5,3,0l2.2,7.7l8.2,0
			C520.4,351.6,521.1,353.4,519.9,354.4z M553,596.2l-6.4,5.2l3,7.5c0.5,1.5-1.2,2.7-2.4,1.8l-6.9-5.6l-6.5,5.8
			c-1.2,1-2.9-0.2-2.5-1.7l2.6-7.8l-6.7-5.2c-1.2-0.9-0.5-2.8,1-2.8l8.3,0l2.1-7.6c0.4-1.5,2.6-1.5,3,0l2.2,7.7l8.2,0
			C553.5,593.4,554.2,595.3,553,596.2z M553,532.5l-6.4,5.2l3,7.5c0.5,1.5-1.2,2.7-2.4,1.8l-6.9-5.6l-6.5,5.8
			c-1.2,1-2.9-0.2-2.5-1.7l2.6-7.8l-6.7-5.2c-1.2-0.9-0.5-2.8,1-2.8l8.3,0l2.1-7.6c0.4-1.5,2.6-1.5,3,0l2.2,7.7l8.2,0
			C553.5,529.7,554.2,531.6,553,532.5z M553,461.5l-6.4,5.2l3,7.5c0.5,1.5-1.2,2.7-2.4,1.8l-6.9-5.6l-6.5,5.8
			c-1.2,1-2.9-0.2-2.5-1.7l2.6-7.8l-6.7-5.2c-1.2-0.9-0.5-2.8,1-2.8l8.3,0l2.1-7.6c0.4-1.5,2.6-1.5,3,0l2.2,7.7l8.2,0
			C553.5,458.7,554.2,460.5,553,461.5z M553,386.6l-6.4,5.2l3,7.5c0.5,1.5-1.2,2.7-2.4,1.8l-6.9-5.6l-6.5,5.8
			c-1.2,1-2.9-0.2-2.5-1.7l2.6-7.8l-6.7-5.2c-1.2-0.9-0.5-2.8,1-2.8l8.3,0l2.1-7.6c0.4-1.5,2.6-1.5,3,0l2.2,7.7l8.2,0
			C553.5,383.8,554.2,385.7,553,386.6z M585.4,628.4l-6.4,5.2l3,7.5c0.5,1.5-1.2,2.7-2.4,1.8l-6.9-5.6l-6.5,5.8
			c-1.2,1-2.9-0.2-2.5-1.7l2.6-7.8l-6.7-5.2c-1.2-0.9-0.5-2.8,1-2.8l8.3,0l2.1-7.6c0.4-1.5,2.6-1.5,3,0l2.2,7.7l8.2,0
			C585.9,625.6,586.6,627.5,585.4,628.4z M585.4,565.6l-6.4,5.2l3,7.5c0.5,1.5-1.2,2.7-2.4,1.8l-6.9-5.6l-6.5,5.8
			c-1.2,1-2.9-0.2-2.5-1.7l2.6-7.8l-6.7-5.2c-1.2-0.9-0.5-2.8,1-2.8l8.3,0l2.1-7.6c0.4-1.5,2.6-1.5,3,0l2.2,7.7l8.2,0
			C585.9,562.8,586.6,564.6,585.4,565.6z M585.4,496.8l-6.4,5.2l3,7.5c0.5,1.5-1.2,2.7-2.4,1.8l-6.9-5.6l-6.5,5.8
			c-1.2,1-2.9-0.2-2.5-1.7l2.6-7.8l-6.7-5.2c-1.2-0.9-0.5-2.8,1-2.8l8.3,0l2.1-7.6c0.4-1.5,2.6-1.5,3,0l2.2,7.7l8.2,0
			C585.9,494,586.6,495.9,585.4,496.8z M585.4,422l-6.4,5.2l3,7.5c0.5,1.5-1.2,2.7-2.4,1.8l-6.9-5.6l-6.5,5.8
			c-1.2,1-2.9-0.2-2.5-1.7l2.6-7.8l-6.7-5.2c-1.2-0.9-0.5-2.8,1-2.8l8.3,0l2.1-7.6c0.4-1.5,2.6-1.5,3,0l2.2,7.7l8.2,0
			C585.9,419.2,586.6,421,585.4,422z M585.4,354.4l-6.4,5.2l3,7.5c0.5,1.5-1.2,2.7-2.4,1.8l-6.9-5.6l-6.5,5.8
			c-1.2,1-2.9-0.2-2.5-1.7l2.6-7.8l-6.7-5.2c-1.2-0.9-0.5-2.8,1-2.8l8.3,0l2.1-7.6c0.4-1.5,2.6-1.5,3,0l2.2,7.7l8.2,0
			C585.9,351.6,586.6,353.4,585.4,354.4z M618.5,596.2l-6.4,5.2l3,7.5c0.5,1.5-1.2,2.7-2.4,1.8l-6.9-5.6l-6.5,5.8
			c-1.2,1-2.9-0.2-2.5-1.7l2.6-7.8l-6.7-5.2c-1.2-0.9-0.5-2.8,1-2.8l8.3,0l2.1-7.6c0.4-1.5,2.6-1.5,3,0l2.2,7.7l8.2,0
			C619,593.4,619.7,595.3,618.5,596.2z M618.5,532.5l-6.4,5.2l3,7.5c0.5,1.5-1.2,2.7-2.4,1.8l-6.9-5.6l-6.5,5.8
			c-1.2,1-2.9-0.2-2.5-1.7l2.6-7.8l-6.7-5.2c-1.2-0.9-0.5-2.8,1-2.8l8.3,0l2.1-7.6c0.4-1.5,2.6-1.5,3,0l2.2,7.7l8.2,0
			C619,529.7,619.7,531.6,618.5,532.5z M618.5,461.5l-6.4,5.2l3,7.5c0.5,1.5-1.2,2.7-2.4,1.8l-6.9-5.6l-6.5,5.8
			c-1.2,1-2.9-0.2-2.5-1.7l2.6-7.8l-6.7-5.2c-1.2-0.9-0.5-2.8,1-2.8l8.3,0l2.1-7.6c0.4-1.5,2.6-1.5,3,0l2.2,7.7l8.2,0
			C619,458.7,619.7,460.5,618.5,461.5z M618.5,386.6l-6.4,5.2l3,7.5c0.5,1.5-1.2,2.7-2.4,1.8l-6.9-5.6l-6.5,5.8
			c-1.2,1-2.9-0.2-2.5-1.7l2.6-7.8l-6.7-5.2c-1.2-0.9-0.5-2.8,1-2.8l8.3,0l2.1-7.6c0.4-1.5,2.6-1.5,3,0l2.2,7.7l8.2,0
			C619,383.8,619.7,385.7,618.5,386.6z M650.8,628.4l-6.4,5.2l3,7.5c0.5,1.5-1.2,2.7-2.4,1.8l-6.9-5.6l-6.5,5.8
			c-1.2,1-2.9-0.2-2.5-1.7l2.6-7.8l-6.7-5.2c-1.2-0.9-0.5-2.8,1-2.8l8.3,0l2.1-7.6c0.4-1.5,2.6-1.5,3,0l2.2,7.7l8.2,0
			C651.2,625.6,651.9,627.5,650.8,628.4z M650.8,565.6l-6.4,5.2l3,7.5c0.5,1.5-1.2,2.7-2.4,1.8l-6.9-5.6l-6.5,5.8
			c-1.2,1-2.9-0.2-2.5-1.7l2.6-7.8l-6.7-5.2c-1.2-0.9-0.5-2.8,1-2.8l8.3,0l2.1-7.6c0.4-1.5,2.6-1.5,3,0l2.2,7.7l8.2,0
			C651.2,562.8,651.9,564.6,650.8,565.6z M650.8,496.8l-6.4,5.2l3,7.5c0.5,1.5-1.2,2.7-2.4,1.8l-6.9-5.6l-6.5,5.8
			c-1.2,1-2.9-0.2-2.5-1.7l2.6-7.8l-6.7-5.2c-1.2-0.9-0.5-2.8,1-2.8l8.3,0l2.1-7.6c0.4-1.5,2.6-1.5,3,0l2.2,7.7l8.2,0
			C651.2,494,651.9,495.9,650.8,496.8z M650.8,422l-6.4,5.2l3,7.5c0.5,1.5-1.2,2.7-2.4,1.8l-6.9-5.6l-6.5,5.8
			c-1.2,1-2.9-0.2-2.5-1.7l2.6-7.8l-6.7-5.2c-1.2-0.9-0.5-2.8,1-2.8l8.3,0l2.1-7.6c0.4-1.5,2.6-1.5,3,0l2.2,7.7l8.2,0
			C651.2,419.2,651.9,421,650.8,422z M650.8,354.4l-6.4,5.2l3,7.5c0.5,1.5-1.2,2.7-2.4,1.8l-6.9-5.6l-6.5,5.8
			c-1.2,1-2.9-0.2-2.5-1.7l2.6-7.8l-6.7-5.2c-1.2-0.9-0.5-2.8,1-2.8l8.3,0l2.1-7.6c0.4-1.5,2.6-1.5,3,0l2.2,7.7l8.2,0
			C651.2,351.6,651.9,353.4,650.8,354.4z M683.9,596.2l-6.4,5.2l3,7.5c0.5,1.5-1.2,2.7-2.4,1.8l-6.9-5.6l-6.5,5.8
			c-1.2,1-2.9-0.2-2.5-1.7l2.6-7.8l-6.7-5.2c-1.2-0.9-0.5-2.8,1-2.8l8.3,0l2.1-7.6c0.4-1.5,2.6-1.5,3,0l2.2,7.7l8.2,0
			C684.4,593.4,685,595.3,683.9,596.2z M683.9,532.5l-6.4,5.2l3,7.5c0.5,1.5-1.2,2.7-2.4,1.8l-6.9-5.6l-6.5,5.8
			c-1.2,1-2.9-0.2-2.5-1.7l2.6-7.8l-6.7-5.2c-1.2-0.9-0.5-2.8,1-2.8l8.3,0l2.1-7.6c0.4-1.5,2.6-1.5,3,0l2.2,7.7l8.2,0
			C684.4,529.7,685,531.6,683.9,532.5z M683.9,461.5l-6.4,5.2l3,7.5c0.5,1.5-1.2,2.7-2.4,1.8l-6.9-5.6l-6.5,5.8
			c-1.2,1-2.9-0.2-2.5-1.7l2.6-7.8l-6.7-5.2c-1.2-0.9-0.5-2.8,1-2.8l8.3,0l2.1-7.6c0.4-1.5,2.6-1.5,3,0l2.2,7.7l8.2,0
			C684.4,458.7,685,460.5,683.9,461.5z M683.9,386.6l-6.4,5.2l3,7.5c0.5,1.5-1.2,2.7-2.4,1.8l-6.9-5.6l-6.5,5.8
			c-1.2,1-2.9-0.2-2.5-1.7l2.6-7.8l-6.7-5.2c-1.2-0.9-0.5-2.8,1-2.8l8.3,0l2.1-7.6c0.4-1.5,2.6-1.5,3,0l2.2,7.7l8.2,0
			C684.4,383.8,685,385.7,683.9,386.6z M716.6,628.4l-6.4,5.2l3,7.5c0.5,1.5-1.2,2.7-2.4,1.8l-6.9-5.6l-6.5,5.8
			c-1.2,1-2.9-0.2-2.5-1.7l2.6-7.8l-6.7-5.2c-1.2-0.9-0.5-2.8,1-2.8l8.3,0l2.1-7.6c0.4-1.5,2.6-1.5,3,0l2.2,7.7l8.2,0
			C717.1,625.6,717.8,627.5,716.6,628.4z M716.6,565.6l-6.4,5.2l3,7.5c0.5,1.5-1.2,2.7-2.4,1.8l-6.9-5.6l-6.5,5.8
			c-1.2,1-2.9-0.2-2.5-1.7l2.6-7.8l-6.7-5.2c-1.2-0.9-0.5-2.8,1-2.8l8.3,0l2.1-7.6c0.4-1.5,2.6-1.5,3,0l2.2,7.7l8.2,0
			C717.1,562.8,717.8,564.6,716.6,565.6z M716.6,496.8l-6.4,5.2l3,7.5c0.5,1.5-1.2,2.7-2.4,1.8l-6.9-5.6l-6.5,5.8
			c-1.2,1-2.9-0.2-2.5-1.7l2.6-7.8l-6.7-5.2c-1.2-0.9-0.5-2.8,1-2.8l8.3,0l2.1-7.6c0.4-1.5,2.6-1.5,3,0l2.2,7.7l8.2,0
			C717.1,494,717.8,495.9,716.6,496.8z M716.6,422l-6.4,5.2l3,7.5c0.5,1.5-1.2,2.7-2.4,1.8l-6.9-5.6l-6.5,5.8
			c-1.2,1-2.9-0.2-2.5-1.7l2.6-7.8l-6.7-5.2c-1.2-0.9-0.5-2.8,1-2.8l8.3,0l2.1-7.6c0.4-1.5,2.6-1.5,3,0l2.2,7.7l8.2,0
			C717.1,419.2,717.8,421,716.6,422z M716.6,354.4l-6.4,5.2l3,7.5c0.5,1.5-1.2,2.7-2.4,1.8l-6.9-5.6l-6.5,5.8
			c-1.2,1-2.9-0.2-2.5-1.7l2.6-7.8l-6.7-5.2c-1.2-0.9-0.5-2.8,1-2.8l8.3,0l2.1-7.6c0.4-1.5,2.6-1.5,3,0l2.2,7.7l8.2,0
			C717.1,351.6,717.8,353.4,716.6,354.4z"/>
		<path class="st11" d="M452.7,625.6l-8.2,0l-2.2-7.7c-0.4-1.5-2.6-1.5-3,0l-2.1,7.6l-8.3,0c-1.5,0-2.2,1.9-1,2.8l6.7,5.2l-2.6,7.8
			c-0.5,1.5,1.3,2.7,2.5,1.7l6.5-5.8l6.9,5.6c1.3,0.9,3-0.3,2.4-1.8l-3-7.5l6.4-5.2C454.8,627.5,454.1,625.6,452.7,625.6z"/>
		<path class="st11" d="M485.8,593.4l-8.2,0l-2.2-7.7c-0.4-1.5-2.6-1.5-3,0l-2.1,7.6l-8.3,0c-1.5,0-2.2,1.9-1,2.8l6.7,5.2l-2.6,7.8
			c-0.5,1.5,1.3,2.7,2.5,1.7l6.5-5.8l6.9,5.6c1.3,0.9,3-0.3,2.4-1.8l-3-7.5l6.4-5.2C487.9,595.3,487.3,593.4,485.8,593.4z"/>
		<path class="st11" d="M452.7,562.8l-8.2,0l-2.2-7.7c-0.4-1.5-2.6-1.5-3,0l-2.1,7.6l-8.3,0c-1.5,0-2.2,1.9-1,2.8l6.7,5.2l-2.6,7.8
			c-0.5,1.5,1.3,2.7,2.5,1.7l6.5-5.8l6.9,5.6c1.3,0.9,3-0.3,2.4-1.8l-3-7.5l6.4-5.2C454.8,564.6,454.1,562.8,452.7,562.8z"/>
		<path class="st11" d="M485.8,529.7l-8.2,0l-2.2-7.7c-0.4-1.5-2.6-1.5-3,0l-2.1,7.6l-8.3,0c-1.5,0-2.2,1.9-1,2.8l6.7,5.2l-2.6,7.8
			c-0.5,1.5,1.3,2.7,2.5,1.7l6.5-5.8l6.9,5.6c1.3,0.9,3-0.3,2.4-1.8l-3-7.5l6.4-5.2C487.9,531.6,487.3,529.7,485.8,529.7z"/>
		<path class="st11" d="M452.7,494l-8.2,0l-2.2-7.7c-0.4-1.5-2.6-1.5-3,0l-2.1,7.6l-8.3,0c-1.5,0-2.2,1.9-1,2.8l6.7,5.2l-2.6,7.8
			c-0.5,1.5,1.3,2.7,2.5,1.7l6.5-5.8l6.9,5.6c1.3,0.9,3-0.3,2.4-1.8l-3-7.5l6.4-5.2C454.8,495.9,454.1,494,452.7,494z"/>
		<path class="st11" d="M485.8,458.7l-8.2,0l-2.2-7.7c-0.4-1.5-2.6-1.5-3,0l-2.1,7.6l-8.3,0c-1.5,0-2.2,1.9-1,2.8l6.7,5.2l-2.6,7.8
			c-0.5,1.5,1.3,2.7,2.5,1.7l6.5-5.8l6.9,5.6c1.3,0.9,3-0.3,2.4-1.8l-3-7.5l6.4-5.2C487.9,460.5,487.3,458.7,485.8,458.7z"/>
		<path class="st11" d="M452.7,419.2l-8.2,0l-2.2-7.7c-0.4-1.5-2.6-1.5-3,0l-2.1,7.6l-8.3,0c-1.5,0-2.2,1.9-1,2.8l6.7,5.2l-2.6,7.8
			c-0.5,1.5,1.3,2.7,2.5,1.7l6.5-5.8l6.9,5.6c1.3,0.9,3-0.3,2.4-1.8l-3-7.5l6.4-5.2C454.8,421,454.1,419.2,452.7,419.2z"/>
		<path class="st11" d="M431.8,357.4l2.7,2.1l-2.6,7.8c-0.5,1.5,1.3,2.7,2.5,1.7l6.5-5.8l6.9,5.6c1.3,0.9,3-0.3,2.4-1.8l-3-7.5
			l6.4-5.2c1.2-0.9,0.5-2.8-1-2.8l-8.2,0l-1.5-5.1C439.1,350,435.3,353.6,431.8,357.4z"/>
		<path class="st11" d="M485.8,383.8l-8.2,0l-2.2-7.7c-0.4-1.5-2.6-1.5-3,0l-2.1,7.6l-8.3,0c-1.5,0-2.2,1.9-1,2.8l6.7,5.2l-2.6,7.8
			c-0.5,1.5,1.3,2.7,2.5,1.7l6.5-5.8l6.9,5.6c1.3,0.9,3-0.3,2.4-1.8l-3-7.5l6.4-5.2C487.9,385.7,487.3,383.8,485.8,383.8z"/>
		<path class="st11" d="M518.9,625.6l-8.2,0l-2.2-7.7c-0.4-1.5-2.6-1.5-3,0l-2.1,7.6l-8.3,0c-1.5,0-2.2,1.9-1,2.8l6.7,5.2l-2.6,7.8
			c-0.5,1.5,1.3,2.7,2.5,1.7l6.5-5.8l6.9,5.6c1.3,0.9,3-0.3,2.4-1.8l-3-7.5l6.4-5.2C521.1,627.5,520.4,625.6,518.9,625.6z"/>
		<path class="st11" d="M552,593.4l-8.2,0l-2.2-7.7c-0.4-1.5-2.6-1.5-3,0l-2.1,7.6l-8.3,0c-1.5,0-2.2,1.9-1,2.8l6.7,5.2l-2.6,7.8
			c-0.5,1.5,1.3,2.7,2.5,1.7l6.5-5.8l6.9,5.6c1.3,0.9,3-0.3,2.4-1.8l-3-7.5l6.4-5.2C554.2,595.3,553.5,593.4,552,593.4z"/>
		<path class="st11" d="M518.9,562.8l-8.2,0l-2.2-7.7c-0.4-1.5-2.6-1.5-3,0l-2.1,7.6l-8.3,0c-1.5,0-2.2,1.9-1,2.8l6.7,5.2l-2.6,7.8
			c-0.5,1.5,1.3,2.7,2.5,1.7l6.5-5.8l6.9,5.6c1.3,0.9,3-0.3,2.4-1.8l-3-7.5l6.4-5.2C521.1,564.6,520.4,562.8,518.9,562.8z"/>
		<path class="st11" d="M552,529.7l-8.2,0l-2.2-7.7c-0.4-1.5-2.6-1.5-3,0l-2.1,7.6l-8.3,0c-1.5,0-2.2,1.9-1,2.8l6.7,5.2l-2.6,7.8
			c-0.5,1.5,1.3,2.7,2.5,1.7l6.5-5.8l6.9,5.6c1.3,0.9,3-0.3,2.4-1.8l-3-7.5l6.4-5.2C554.2,531.6,553.5,529.7,552,529.7z"/>
		<path class="st11" d="M518.9,494l-8.2,0l-2.2-7.7c-0.4-1.5-2.6-1.5-3,0l-2.1,7.6l-8.3,0c-1.5,0-2.2,1.9-1,2.8l6.7,5.2l-2.6,7.8
			c-0.5,1.5,1.3,2.7,2.5,1.7l6.5-5.8l6.9,5.6c1.3,0.9,3-0.3,2.4-1.8l-3-7.5l6.4-5.2C521.1,495.9,520.4,494,518.9,494z"/>
		<path class="st11" d="M552,458.7l-8.2,0l-2.2-7.7c-0.4-1.5-2.6-1.5-3,0l-2.1,7.6l-8.3,0c-1.5,0-2.2,1.9-1,2.8l6.7,5.2l-2.6,7.8
			c-0.5,1.5,1.3,2.7,2.5,1.7l6.5-5.8l6.9,5.6c1.3,0.9,3-0.3,2.4-1.8l-3-7.5l6.4-5.2C554.2,460.5,553.5,458.7,552,458.7z"/>
		<path class="st11" d="M518.9,419.2l-8.2,0l-2.2-7.7c-0.4-1.5-2.6-1.5-3,0l-2.1,7.6l-8.3,0c-1.5,0-2.2,1.9-1,2.8l6.7,5.2l-2.6,7.8
			c-0.5,1.5,1.3,2.7,2.5,1.7l6.5-5.8l6.9,5.6c1.3,0.9,3-0.3,2.4-1.8l-3-7.5l6.4-5.2C521.1,421,520.4,419.2,518.9,419.2z"/>
		<path class="st11" d="M518.9,351.6l-8.2,0l-2.2-7.7c-0.4-1.5-2.6-1.5-3,0l-2.1,7.6l-8.3,0c-1.5,0-2.2,1.9-1,2.8l6.7,5.2l-2.6,7.8
			c-0.5,1.5,1.3,2.7,2.5,1.7l6.5-5.8l6.9,5.6c1.3,0.9,3-0.3,2.4-1.8l-3-7.5l6.4-5.2C521.1,353.4,520.4,351.6,518.9,351.6z"/>
		<path class="st11" d="M552,383.8l-8.2,0l-2.2-7.7c-0.4-1.5-2.6-1.5-3,0l-2.1,7.6l-8.3,0c-1.5,0-2.2,1.9-1,2.8l6.7,5.2l-2.6,7.8
			c-0.5,1.5,1.3,2.7,2.5,1.7l6.5-5.8l6.9,5.6c1.3,0.9,3-0.3,2.4-1.8l-3-7.5l6.4-5.2C554.2,385.7,553.5,383.8,552,383.8z"/>
		<path class="st11" d="M584.4,625.6l-8.2,0L574,618c-0.4-1.5-2.6-1.5-3,0l-2.1,7.6l-8.3,0c-1.5,0-2.2,1.9-1,2.8l6.7,5.2l-2.6,7.8
			c-0.5,1.5,1.3,2.7,2.5,1.7l6.5-5.8l6.9,5.6c1.3,0.9,3-0.3,2.4-1.8l-3-7.5l6.4-5.2C586.6,627.5,585.9,625.6,584.4,625.6z"/>
		<path class="st11" d="M617.5,593.4l-8.2,0l-2.2-7.7c-0.4-1.5-2.6-1.5-3,0l-2.1,7.6l-8.3,0c-1.5,0-2.2,1.9-1,2.8l6.7,5.2l-2.6,7.8
			c-0.5,1.5,1.3,2.7,2.5,1.7l6.5-5.8l6.9,5.6c1.3,0.9,3-0.3,2.4-1.8l-3-7.5l6.4-5.2C619.7,595.3,619,593.4,617.5,593.4z"/>
		<path class="st11" d="M584.4,562.8l-8.2,0l-2.2-7.7c-0.4-1.5-2.6-1.5-3,0l-2.1,7.6l-8.3,0c-1.5,0-2.2,1.9-1,2.8l6.7,5.2l-2.6,7.8
			c-0.5,1.5,1.3,2.7,2.5,1.7l6.5-5.8l6.9,5.6c1.3,0.9,3-0.3,2.4-1.8l-3-7.5l6.4-5.2C586.6,564.6,585.9,562.8,584.4,562.8z"/>
		<path class="st11" d="M617.5,529.7l-8.2,0l-2.2-7.7c-0.4-1.5-2.6-1.5-3,0l-2.1,7.6l-8.3,0c-1.5,0-2.2,1.9-1,2.8l6.7,5.2l-2.6,7.8
			c-0.5,1.5,1.3,2.7,2.5,1.7l6.5-5.8l6.9,5.6c1.3,0.9,3-0.3,2.4-1.8l-3-7.5l6.4-5.2C619.7,531.6,619,529.7,617.5,529.7z"/>
		<path class="st11" d="M584.4,494l-8.2,0l-2.2-7.7c-0.4-1.5-2.6-1.5-3,0l-2.1,7.6l-8.3,0c-1.5,0-2.2,1.9-1,2.8l6.7,5.2l-2.6,7.8
			c-0.5,1.5,1.3,2.7,2.5,1.7l6.5-5.8l6.9,5.6c1.3,0.9,3-0.3,2.4-1.8l-3-7.5l6.4-5.2C586.6,495.9,585.9,494,584.4,494z"/>
		<path class="st11" d="M617.5,458.7l-8.2,0l-2.2-7.7c-0.4-1.5-2.6-1.5-3,0l-2.1,7.6l-8.3,0c-1.5,0-2.2,1.9-1,2.8l6.7,5.2l-2.6,7.8
			c-0.5,1.5,1.3,2.7,2.5,1.7l6.5-5.8l6.9,5.6c1.3,0.9,3-0.3,2.4-1.8l-3-7.5l6.4-5.2C619.7,460.5,619,458.7,617.5,458.7z"/>
		<path class="st11" d="M584.4,419.2l-8.2,0l-2.2-7.7c-0.4-1.5-2.6-1.5-3,0l-2.1,7.6l-8.3,0c-1.5,0-2.2,1.9-1,2.8l6.7,5.2l-2.6,7.8
			c-0.5,1.5,1.3,2.7,2.5,1.7l6.5-5.8l6.9,5.6c1.3,0.9,3-0.3,2.4-1.8l-3-7.5l6.4-5.2C586.6,421,585.9,419.2,584.4,419.2z"/>
		<path class="st11" d="M584.4,351.6l-8.2,0l-2.2-7.7c-0.4-1.5-2.6-1.5-3,0l-2.1,7.6l-8.3,0c-1.5,0-2.2,1.9-1,2.8l6.7,5.2l-2.6,7.8
			c-0.5,1.5,1.3,2.7,2.5,1.7l6.5-5.8l6.9,5.6c1.3,0.9,3-0.3,2.4-1.8l-3-7.5l6.4-5.2C586.6,353.4,585.9,351.6,584.4,351.6z"/>
		<path class="st11" d="M617.5,383.8l-8.2,0l-2.2-7.7c-0.4-1.5-2.6-1.5-3,0l-2.1,7.6l-8.3,0c-1.5,0-2.2,1.9-1,2.8l6.7,5.2l-2.6,7.8
			c-0.5,1.5,1.3,2.7,2.5,1.7l6.5-5.8l6.9,5.6c1.3,0.9,3-0.3,2.4-1.8l-3-7.5l6.4-5.2C619.7,385.7,619,383.8,617.5,383.8z"/>
		<path class="st11" d="M649.8,625.6l-8.2,0l-2.2-7.7c-0.4-1.5-2.6-1.5-3,0l-2.1,7.6l-8.3,0c-1.5,0-2.2,1.9-1,2.8l6.7,5.2l-2.6,7.8
			c-0.5,1.5,1.3,2.7,2.5,1.7l6.5-5.8l6.9,5.6c1.3,0.9,3-0.3,2.4-1.8l-3-7.5l6.4-5.2C651.9,627.5,651.2,625.6,649.8,625.6z"/>
		<path class="st11" d="M682.9,593.4l-8.2,0l-2.2-7.7c-0.4-1.5-2.6-1.5-3,0l-2.1,7.6l-8.3,0c-1.5,0-2.2,1.9-1,2.8l6.7,5.2l-2.6,7.8
			c-0.5,1.5,1.3,2.7,2.5,1.7l6.5-5.8l6.9,5.6c1.3,0.9,3-0.3,2.4-1.8l-3-7.5l6.4-5.2C685,595.3,684.4,593.4,682.9,593.4z"/>
		<path class="st11" d="M649.8,562.8l-8.2,0l-2.2-7.7c-0.4-1.5-2.6-1.5-3,0l-2.1,7.6l-8.3,0c-1.5,0-2.2,1.9-1,2.8l6.7,5.2l-2.6,7.8
			c-0.5,1.5,1.3,2.7,2.5,1.7l6.5-5.8l6.9,5.6c1.3,0.9,3-0.3,2.4-1.8l-3-7.5l6.4-5.2C651.9,564.6,651.2,562.8,649.8,562.8z"/>
		<path class="st11" d="M682.9,529.7l-8.2,0l-2.2-7.7c-0.4-1.5-2.6-1.5-3,0l-2.1,7.6l-8.3,0c-1.5,0-2.2,1.9-1,2.8l6.7,5.2l-2.6,7.8
			c-0.5,1.5,1.3,2.7,2.5,1.7l6.5-5.8l6.9,5.6c1.3,0.9,3-0.3,2.4-1.8l-3-7.5l6.4-5.2C685,531.6,684.4,529.7,682.9,529.7z"/>
		<path class="st11" d="M649.8,494l-8.2,0l-2.2-7.7c-0.4-1.5-2.6-1.5-3,0l-2.1,7.6l-8.3,0c-1.5,0-2.2,1.9-1,2.8l6.7,5.2l-2.6,7.8
			c-0.5,1.5,1.3,2.7,2.5,1.7l6.5-5.8l6.9,5.6c1.3,0.9,3-0.3,2.4-1.8l-3-7.5l6.4-5.2C651.9,495.9,651.2,494,649.8,494z"/>
		<path class="st11" d="M682.9,458.7l-8.2,0l-2.2-7.7c-0.4-1.5-2.6-1.5-3,0l-2.1,7.6l-8.3,0c-1.5,0-2.2,1.9-1,2.8l6.7,5.2l-2.6,7.8
			c-0.5,1.5,1.3,2.7,2.5,1.7l6.5-5.8l6.9,5.6c1.3,0.9,3-0.3,2.4-1.8l-3-7.5l6.4-5.2C685,460.5,684.4,458.7,682.9,458.7z"/>
		<path class="st11" d="M649.8,419.2l-8.2,0l-2.2-7.7c-0.4-1.5-2.6-1.5-3,0l-2.1,7.6l-8.3,0c-1.5,0-2.2,1.9-1,2.8l6.7,5.2l-2.6,7.8
			c-0.5,1.5,1.3,2.7,2.5,1.7l6.5-5.8l6.9,5.6c1.3,0.9,3-0.3,2.4-1.8l-3-7.5l6.4-5.2C651.9,421,651.2,419.2,649.8,419.2z"/>
		<path class="st11" d="M649.8,351.6l-8.2,0l-2.2-7.7c-0.4-1.5-2.6-1.5-3,0l-2.1,7.6l-8.3,0c-1.5,0-2.2,1.9-1,2.8l6.7,5.2l-2.6,7.8
			c-0.5,1.5,1.3,2.7,2.5,1.7l6.5-5.8l6.9,5.6c1.3,0.9,3-0.3,2.4-1.8l-3-7.5l6.4-5.2C651.9,353.4,651.2,351.6,649.8,351.6z"/>
		<path class="st11" d="M715.6,625.6l-8.2,0l-2.2-7.7c-0.4-1.5-2.6-1.5-3,0l-2.1,7.6l-8.3,0c-1.5,0-2.2,1.9-1,2.8l6.7,5.2l-2.6,7.8
			c-0.5,1.5,1.3,2.7,2.5,1.7l6.5-5.8l6.9,5.6c1.3,0.9,3-0.3,2.4-1.8l-3-7.5l6.4-5.2C717.8,627.5,717.1,625.6,715.6,625.6z"/>
		<path class="st11" d="M715.6,562.8l-8.2,0l-2.2-7.7c-0.4-1.5-2.6-1.5-3,0l-2.1,7.6l-8.3,0c-1.5,0-2.2,1.9-1,2.8l6.7,5.2l-2.6,7.8
			c-0.5,1.5,1.3,2.7,2.5,1.7l6.5-5.8l6.9,5.6c1.3,0.9,3-0.3,2.4-1.8l-3-7.5l6.4-5.2C717.8,564.6,717.1,562.8,715.6,562.8z"/>
		<path class="st11" d="M715.6,494l-8.2,0l-2.2-7.7c-0.4-1.5-2.6-1.5-3,0l-2.1,7.6l-8.3,0c-1.5,0-2.2,1.9-1,2.8l6.7,5.2l-2.6,7.8
			c-0.5,1.5,1.3,2.7,2.5,1.7l6.5-5.8l6.9,5.6c1.3,0.9,3-0.3,2.4-1.8l-3-7.5l6.4-5.2C717.8,495.9,717.1,494,715.6,494z"/>
		<path class="st11" d="M715.6,419.2l-8.2,0l-2.2-7.7c-0.4-1.5-2.6-1.5-3,0l-2.1,7.6l-8.3,0c-1.5,0-2.2,1.9-1,2.8l6.7,5.2l-2.6,7.8
			c-0.5,1.5,1.3,2.7,2.5,1.7l6.5-5.8l6.9,5.6c1.3,0.9,3-0.3,2.4-1.8l-3-7.5l6.4-5.2C717.8,421,717.1,419.2,715.6,419.2z"/>
		<path class="st11" d="M715.6,351.6l-8.2,0l-2.2-7.7c-0.4-1.5-2.6-1.5-3,0l-2.1,7.6l-8.3,0c-1.5,0-2.2,1.9-1,2.8l6.7,5.2l-2.6,7.8
			c-0.5,1.5,1.3,2.7,2.5,1.7l6.5-5.8l6.9,5.6c1.3,0.9,3-0.3,2.4-1.8l-3-7.5l6.4-5.2C717.8,353.4,717.1,351.6,715.6,351.6z"/>
		<path class="st11" d="M682.9,383.8l-8.2,0l-2.2-7.7c-0.4-1.5-2.6-1.5-3,0l-2.1,7.6l-8.3,0c-1.5,0-2.2,1.9-1,2.8l6.7,5.2l-2.6,7.8
			c-0.5,1.5,1.3,2.7,2.5,1.7l6.5-5.8l6.9,5.6c1.3,0.9,3-0.3,2.4-1.8l-3-7.5l6.4-5.2C685,385.7,684.4,383.8,682.9,383.8z"/>
	</g>
</g>
<path class="st12" d="M-1810.8-69h425.1v425.1h-425.1V-69z"/>
<path class="st13" d="M-1551,25.4h165.3V-69H-1551V25.4z M-1810.8,356.1h425.1v-94.5h-425.1V356.1z M-1551,190.8h165.3V96.3H-1551
	V190.8z"/>
<path class="st14" d="M-1810.8-69h259.8v259.8h-259.8V-69z"/>
<path class="st12" d="M-1753.7-40.2c0.5-1,1.8-1.5,2.9-0.9c0.4,0.2,0.7,0.5,0.9,0.9l6.4,16.8c0.2,0.9,1.2,1.4,1.9,1.4l17.9,0.9
	c1.9,0,2.6,2.4,1.2,3.8l-14.2,11.1c-0.6,0.6-0.8,1.6-0.5,2.4l4.7,17c0.4,1.1-0.2,2.3-1.3,2.7c-0.7,0.2-1.4,0.1-2-0.3l-14.9-9.7
	c-0.7-0.5-1.6-0.5-2.4,0l-14.9,9.7c-0.9,0.7-2.3,0.5-3-0.4c-0.4-0.6-0.5-1.3-0.3-2l4.7-17.2c0.3-0.9,0-1.8-0.7-2.4l-13.9-10.9
	c-0.9-0.7-1.1-2.1-0.3-3c0.4-0.5,0.9-0.7,1.5-0.8l17.9-0.9c0.7,0,1.7-0.5,1.9-1.4l6.4-16.5V-40.2z M-1753.7,30.6
	c0.5-1,1.8-1.5,2.9-0.9c0.4,0.2,0.7,0.5,0.9,0.9l6.4,16.8c0.2,0.9,1.2,1.4,1.9,1.4l17.9,0.9c1.9,0,2.6,2.4,1.2,3.8l-14.2,11.1
	c-0.6,0.6-0.8,1.6-0.5,2.4l4.7,17c0.4,1.1-0.2,2.3-1.3,2.7c-0.7,0.2-1.4,0.1-2-0.3l-14.9-9.7c-0.7-0.5-1.6-0.5-2.4,0l-14.9,9.7
	c-0.9,0.7-2.3,0.5-3-0.4c-0.4-0.6-0.5-1.3-0.3-2l4.7-17.2c0.3-0.9,0-1.8-0.7-2.4l-13.9-10.9c-0.9-0.7-1.1-2.1-0.3-3
	c0.4-0.5,0.9-0.7,1.5-0.8l17.9-0.9c0.7,0,1.7-0.5,1.9-1.4l6.4-16.5V30.6z M-1753.7,101.5c0.5-1,1.8-1.5,2.9-0.9
	c0.4,0.2,0.7,0.5,0.9,0.9l6.4,16.8c0.2,0.9,1.2,1.4,1.9,1.4l17.9,0.9c1.9,0,2.6,2.4,1.2,3.8l-14.2,11.1c-0.6,0.6-0.8,1.6-0.5,2.4
	l4.7,17c0.4,1.1-0.2,2.3-1.3,2.7c-0.7,0.2-1.4,0.1-2-0.3l-14.9-9.7c-0.7-0.5-1.6-0.5-2.4,0l-14.9,9.7c-0.9,0.7-2.3,0.5-3-0.4
	c-0.4-0.6-0.5-1.3-0.3-2l4.7-17.2c0.3-0.9,0-1.8-0.7-2.4l-13.9-10.9c-0.9-0.7-1.1-2.1-0.3-3c0.4-0.5,0.9-0.7,1.5-0.8l17.9-0.9
	c0.7,0,1.7-0.5,1.9-1.4l6.4-16.5V101.5z M-1682.8-40.2c0.5-1,1.8-1.5,2.9-0.9c0.4,0.2,0.7,0.5,0.9,0.9l6.4,16.8
	c0.2,0.9,1.2,1.4,1.9,1.4l17.9,0.9c1.9,0,2.6,2.4,1.2,3.8l-14.2,11.1c-0.6,0.6-0.8,1.6-0.5,2.4l4.7,17c0.4,1.1-0.2,2.3-1.3,2.7
	c-0.7,0.2-1.4,0.1-2-0.3l-14.9-9.7c-0.7-0.5-1.6-0.5-2.4,0l-14.9,9.7c-0.9,0.7-2.3,0.5-3-0.4c-0.4-0.6-0.5-1.3-0.3-2l4.7-17.2
	c0.3-0.9,0-1.8-0.7-2.4l-13.9-10.9c-0.9-0.7-1.1-2.1-0.3-3c0.4-0.5,0.9-0.7,1.5-0.8l17.9-0.9c0.7,0,1.7-0.5,1.9-1.4l6.4-16.5V-40.2z
	 M-1682.8,30.6c0.5-1,1.8-1.5,2.9-0.9c0.4,0.2,0.7,0.5,0.9,0.9l6.4,16.8c0.2,0.9,1.2,1.4,1.9,1.4l17.9,0.9c1.9,0,2.6,2.4,1.2,3.8
	l-14.2,11.1c-0.6,0.6-0.8,1.6-0.5,2.4l4.7,17c0.4,1.1-0.2,2.3-1.3,2.7c-0.7,0.2-1.4,0.1-2-0.3l-14.9-9.7c-0.7-0.5-1.6-0.5-2.4,0
	l-14.9,9.7c-0.9,0.7-2.3,0.5-3-0.4c-0.4-0.6-0.5-1.3-0.3-2l4.7-17.2c0.3-0.9,0-1.8-0.7-2.4l-13.9-10.9c-0.9-0.7-1.1-2.1-0.3-3
	c0.4-0.5,0.9-0.7,1.5-0.8l17.9-0.9c0.7,0,1.7-0.5,1.9-1.4l6.4-16.5V30.6z M-1682.8,101.5c0.5-1,1.8-1.5,2.9-0.9
	c0.4,0.2,0.7,0.5,0.9,0.9l6.4,16.8c0.2,0.9,1.2,1.4,1.9,1.4l17.9,0.9c1.9,0,2.6,2.4,1.2,3.8l-14.2,11.1c-0.6,0.6-0.8,1.6-0.5,2.4
	l4.7,17c0.4,1.1-0.2,2.3-1.3,2.7c-0.7,0.2-1.4,0.1-2-0.3l-14.9-9.7c-0.7-0.5-1.6-0.5-2.4,0l-14.9,9.7c-0.9,0.7-2.3,0.5-3-0.4
	c-0.4-0.6-0.5-1.3-0.3-2l4.7-17.2c0.3-0.9,0-1.8-0.7-2.4l-13.9-10.9c-0.9-0.7-1.1-2.1-0.3-3c0.4-0.5,0.9-0.7,1.5-0.8l17.9-0.9
	c0.7,0,1.7-0.5,1.9-1.4l6.4-16.5V101.5z M-1612-40.2c0.5-1,1.8-1.5,2.9-0.9c0.4,0.2,0.7,0.5,0.9,0.9l6.4,16.8
	c0.2,0.9,1.2,1.4,1.9,1.4l17.9,0.9c1.9,0,2.6,2.4,1.2,3.8l-14.2,11.1c-0.6,0.6-0.8,1.6-0.5,2.4l4.7,17c0.4,1.1-0.2,2.3-1.3,2.7
	c-0.7,0.2-1.4,0.1-2-0.3l-14.9-9.7c-0.7-0.5-1.6-0.5-2.4,0l-14.9,9.7c-0.9,0.7-2.3,0.5-3-0.4c-0.4-0.6-0.5-1.3-0.3-2l4.7-17.2
	c0.3-0.9,0-1.8-0.7-2.4l-13.9-10.9c-0.9-0.7-1.1-2.1-0.3-3c0.4-0.5,0.9-0.7,1.5-0.8l17.9-0.9c0.7,0,1.7-0.5,1.9-1.4l6.4-16.5
	L-1612-40.2z M-1612,30.6c0.5-1,1.8-1.5,2.9-0.9c0.4,0.2,0.7,0.5,0.9,0.9l6.4,16.8c0.2,0.9,1.2,1.4,1.9,1.4l17.9,0.9
	c1.9,0,2.6,2.4,1.2,3.8l-14.2,11.1c-0.6,0.6-0.8,1.6-0.5,2.4l4.7,17c0.4,1.1-0.2,2.3-1.3,2.7c-0.7,0.2-1.4,0.1-2-0.3l-14.9-9.7
	c-0.7-0.5-1.6-0.5-2.4,0l-14.9,9.7c-0.9,0.7-2.3,0.5-3-0.4c-0.4-0.6-0.5-1.3-0.3-2l4.7-17.2c0.3-0.9,0-1.8-0.7-2.4l-13.9-10.9
	c-0.9-0.7-1.1-2.1-0.3-3c0.4-0.5,0.9-0.7,1.5-0.8l17.9-0.9c0.7,0,1.7-0.5,1.9-1.4l6.4-16.5L-1612,30.6z M-1612,101.5
	c0.5-1,1.8-1.5,2.9-0.9c0.4,0.2,0.7,0.5,0.9,0.9l6.4,16.8c0.2,0.9,1.2,1.4,1.9,1.4l17.9,0.9c1.9,0,2.6,2.4,1.2,3.8l-14.2,11.1
	c-0.6,0.6-0.8,1.6-0.5,2.4l4.7,17c0.4,1.1-0.2,2.3-1.3,2.7c-0.7,0.2-1.4,0.1-2-0.3l-14.9-9.7c-0.7-0.5-1.6-0.5-2.4,0l-14.9,9.7
	c-0.9,0.7-2.3,0.5-3-0.4c-0.4-0.6-0.5-1.3-0.3-2l4.7-17.2c0.3-0.9,0-1.8-0.7-2.4l-13.9-10.9c-0.9-0.7-1.1-2.1-0.3-3
	c0.4-0.5,0.9-0.7,1.5-0.8l17.9-0.9c0.7,0,1.7-0.5,1.9-1.4l6.4-16.5L-1612,101.5z"/>
</svg>
