<?xml version="1.0" encoding="utf-8"?>
<!-- Generator: Adobe Illustrator 24.2.1, SVG Export Plug-In . SVG Version: 6.00 Build 0)  -->
<svg version="1.1" id="Layer_1" xmlns="http://www.w3.org/2000/svg" xmlns:xlink="http://www.w3.org/1999/xlink" x="0px" y="0px"
	 viewBox="0 0 1057.3 1057.3" style="enable-background:new 0 0 1057.3 1057.3;" xml:space="preserve">
<style type="text/css">
	.st0{fill:#E0E0E0;}
	.st1{fill:#0071C5;}
</style>
<path class="st0" d="M800.7,960.7h-544c-88.4,0-160-71.6-160-160v-544c0-88.4,71.6-160,160-160h544c88.4,0,160,71.6,160,160v544
	C960.7,889,889,960.7,800.7,960.7z"/>
<g id="g4421" transform="matrix(3.3724426,0,0,3.3724426,-3.3724432,-3.3728222)">
	<path id="path4423" class="st1" d="M119.4,148.4v30.2h-9.6v-37.9l19.8,0c8.4,0,11.3,5.9,11.3,11.3v26.6h-9.6v-26.5
		c0-2.3-1.2-3.6-4-3.6L119.4,148.4L119.4,148.4z M184.7,148c-3.3,0-5.8,1.7-6.9,4c-0.6,1.4-0.8,2.4-0.9,4.1h14.8
		C191.5,151.9,189.6,148,184.7,148 M176.9,162.6c0,4.9,3.1,8.5,8.5,8.5c4.2,0,6.3-1.2,8.8-3.6l5.9,5.7c-3.8,3.7-7.8,6-14.8,6
		c-9.2,0-18-5-18-19.6c0-12.5,7.7-19.5,17.8-19.5c10.2,0,16.1,8.3,16.1,19.1v3.5H176.9 M159.2,178.5c-7.8,0-11.1-5.4-11.1-10.8
		v-37.4h9.6v10.3h7.2v7.8h-7.2v18.7c0,2.2,1,3.4,3.3,3.4h3.9v8H159.2 M101.2,135.4h-9.7v-9.2h9.7V135.4z M101.3,179
		c-7.2-0.7-9.7-5.1-9.7-10.2l0-28.2h9.7L101.3,179L101.3,179z M216.5,178.2c-7.2-0.7-9.7-5.1-9.7-10.1v-43.1h9.7V178.2z
		 M250.3,131.2c-8.8-42.8-91.8-45.5-145.3-12.9v3.6c53.4-27.5,129.2-27.3,136.1,12.1c2.3,13-5,26.6-18.1,34.4v10.2
		C238.9,172.8,255,154.1,250.3,131.2 M153.1,206c-36.9,3.4-75.4-1.9-80.8-30.8c-2.6-14.2,3.8-29.3,12.4-38.7v-5
		c-15.5,13.6-23.9,30.7-19,51c6.2,26,39.2,40.8,89.6,35.9c19.9-1.9,46-8.4,64.2-18.3V186C203,195.8,175.8,203.9,153.1,206"/>
	<path id="path4425" class="st1" d="M227.7,127.8c0-0.5-0.3-0.6-0.9-0.6h-0.6v1.3c0.1,0,0.5,0,0.6,0
		C227.4,128.5,227.7,128.3,227.7,127.8L227.7,127.8L227.7,127.8z M228.6,131.1h-0.7c-0.1,0-0.1,0-0.1-0.1l-1-1.7
		c0,0-0.1-0.1-0.1-0.1h-0.4v1.6c0,0.1-0.1,0.2-0.2,0.2h-0.6c-0.1,0-0.2-0.1-0.2-0.2v-4.2c0-0.2,0.1-0.3,0.3-0.4
		c0.2,0,0.9-0.1,1.2-0.1c1.2,0,1.9,0.4,1.9,1.5v0.1c0,0.7-0.3,1.1-0.9,1.2l1,1.7c0,0,0,0.1,0,0.1C228.8,131,228.7,131.1,228.6,131.1
		 M226.9,125.6c-1.8,0-3.2,1.5-3.2,3.2c0,1.8,1.4,3.2,3.2,3.2c1.8,0,3.2-1.4,3.2-3.2C230.1,127,228.7,125.6,226.9,125.6
		 M226.9,132.6c-2.1,0-3.9-1.7-3.9-3.8c0-2.1,1.7-3.9,3.9-3.9c2.1,0,3.9,1.7,3.9,3.9C230.8,130.9,229.1,132.6,226.9,132.6"/>
</g>
</svg>
