<svg viewBox="0 0 24 24" fill="none" xmlns="http://www.w3.org/2000/svg"><path d="M0 5a3 3 0 013-3h9a3 3 0 013 3v9a3 3 0 01-3 3H3a3 3 0 01-3-3V5z" fill="#F6F6F6"/><path d="M7.5 4.25v4.359l3.281 1.22L7.5 4.25z" fill="#303030"/><path d="M7.5 12.153v2.597l3.281-4.594L7.5 12.153z" fill="#393938"/><path d="M7.5 11.61l3.281-1.782L7.5 8.61v3.001z" fill="#0C0C0C"/><path d="M7.5 4.25v4.359l-3.281 1.22L7.5 4.25zM7.5 12.153v2.597l-3.281-4.594L7.5 12.153z" fill="#8D8D8D"/><path d="M7.5 11.61L4.219 9.828 7.5 8.61v3.001z" fill="#363636"/><path d="M9 10a3 3 0 013-3h9a3 3 0 013 3v9a3 3 0 01-3 3h-9a3 3 0 01-3-3v-9z" fill="#FF9421"/><path fill-rule="evenodd" clip-rule="evenodd" d="M19.112 14.826c.56-.111.986-.452 1.113-1.17.176-.982-.6-1.528-1.667-1.902l.377-1.327-.846-.22-.368 1.292a36.03 36.03 0 00-.679-.167l.37-1.3-.847-.22-.377 1.327c-.184-.044-.365-.087-.541-.132v-.005L14.48 10.7l-.245.863s.629.15.616.159c.343.09.4.308.386.48l-.43 1.512a.69.69 0 01.089.03l-.09-.024-.602 2.118c-.044.1-.155.247-.395.185.009.012-.616-.16-.616-.16l-.442.922 1.102.285c.205.054.406.11.604.162l-.381 1.342.846.22.377-1.329c.232.066.456.126.675.182l-.376 1.322.847.22.382-1.34c1.446.29 2.54.207 3.026-1.037.392-1 .016-1.59-.74-1.985zm-2.319-2.539c.479.124 2.022.368 1.752 1.32-.26.913-1.732.417-2.21.293l.458-1.613zm-1.197 4.206l.506-1.778c.574.148 2.419.457 2.121 1.504-.284 1.003-2.053.422-2.627.274z" fill="#F6F6F6"/></svg>
