<svg viewBox="0 0 24 24" fill="none" xmlns="http://www.w3.org/2000/svg"><path d="M2 6a4 4 0 014-4h12a4 4 0 014 4v12a4 4 0 01-4 4H6a4 4 0 01-4-4V6z" fill="#EAB447"/><path d="M17.952 10.176L17.5 9l-.452 1.176L16 10.5l1.048.325L17.5 12l.452-1.175L19 10.5l-1.048-.324zM12.452 6.176L12 5l-.452 1.176L10.5 6.5l1.048.325L12 8l.452-1.175L13.5 6.5l-1.048-.324zM6.952 10.176L6.5 9l-.452 1.176L5 10.5l1.048.325L6.5 12l.452-1.175L8 10.5l-1.048-.324z" fill="#F6F6F6"/><path fill-rule="evenodd" clip-rule="evenodd" d="M14.593 13H9.408a.666.666 0 01-.648-.85l.776-2.668A.673.673 0 0110.183 9h3.634c.3 0 .565.197.648.482l.775 2.669c.123.426-.199.849-.647.849zm-1.452 5h5.185c.448 0 .77-.423.648-.85l-.776-2.668A.673.673 0 0017.55 14h-3.633c-.3 0-.565.197-.648.482l-.775 2.669c-.125.426.199.849.647.849zm-7.466 0h5.184c.449 0 .77-.423.648-.85l-.776-2.668a.673.673 0 00-.647-.482H6.45c-.3 0-.565.197-.648.482l-.775 2.669c-.125.426.2.849.648.849z" fill="#F6F6F6"/></svg>
