<?xml version="1.0" encoding="utf-8"?>
<!-- Generator: Adobe Illustrator 23.0.1, SVG Export Plug-In . SVG Version: 6.00 Build 0)  -->
<svg version="1.1" id="Layer_1" xmlns="http://www.w3.org/2000/svg" xmlns:xlink="http://www.w3.org/1999/xlink" x="0px" y="0px"
	 viewBox="0 0 1057.3 1057.3" style="enable-background:new 0 0 1057.3 1057.3;" xml:space="preserve">
<style type="text/css">
	.st0{fill:#606060;}
	.st1{display:none;}
	.st2{display:inline;fill:#0071C5;}
	.st3{display:inline;}
	.st4{fill:#FFFFFF;}
	.st5{display:none;fill:#42A5F5;}
	.st6{font-family:'Renogare-Regular';}
	.st7{font-size:160px;}
</style>
<path class="st0" d="M800.7,960.7h-544c-88.4,0-160-71.6-160-160v-544c0-88.4,71.6-160,160-160h544c88.4,0,160,71.6,160,160v544
	C960.7,889,889,960.7,800.7,960.7z"/>
<g id="g4421" transform="matrix(3.3724426,0,0,3.3724426,-3.3724432,-3.3728222)" class="st1">
	<path id="path4423" class="st2" d="M119.4,148.4v30.2h-9.6v-37.9h19.8c8.4,0,11.3,5.9,11.3,11.3v26.6h-9.6v-26.5
		c0-2.3-1.2-3.6-4-3.6L119.4,148.4L119.4,148.4z M184.7,148c-3.3,0-5.8,1.7-6.9,4c-0.6,1.4-0.8,2.4-0.9,4.1h14.8
		C191.5,151.9,189.6,148,184.7,148 M176.9,162.6c0,4.9,3.1,8.5,8.5,8.5c4.2,0,6.3-1.2,8.8-3.6l5.9,5.7c-3.8,3.7-7.8,6-14.8,6
		c-9.2,0-18-5-18-19.6c0-12.5,7.7-19.5,17.8-19.5c10.2,0,16.1,8.3,16.1,19.1v3.5L176.9,162.6 M159.2,178.5
		c-7.8,0-11.1-5.4-11.1-10.8v-37.4h9.6v10.3h7.2v7.8h-7.2v18.7c0,2.2,1,3.4,3.3,3.4h3.9v8L159.2,178.5 M101.2,135.4h-9.7v-9.2h9.7
		V135.4z M101.3,179c-7.2-0.7-9.7-5.1-9.7-10.2v-28.2h9.7V179L101.3,179z M216.5,178.2c-7.2-0.7-9.7-5.1-9.7-10.1V125h9.7V178.2z
		 M250.3,131.2c-8.8-42.8-91.8-45.5-145.3-12.9v3.6c53.4-27.5,129.2-27.3,136.1,12.1c2.3,13-5,26.6-18.1,34.4v10.2
		C238.9,172.8,255,154.1,250.3,131.2 M153.1,206c-36.9,3.4-75.4-1.9-80.8-30.8c-2.6-14.2,3.8-29.3,12.4-38.7v-5
		c-15.5,13.6-23.9,30.7-19,51c6.2,26,39.2,40.8,89.6,35.9c19.9-1.9,46-8.4,64.2-18.3V186C203,195.8,175.8,203.9,153.1,206"/>
	<path id="path4425" class="st2" d="M227.7,127.8c0-0.5-0.3-0.6-0.9-0.6h-0.6v1.3c0.1,0,0.5,0,0.6,0
		C227.4,128.5,227.7,128.3,227.7,127.8L227.7,127.8L227.7,127.8z M228.6,131.1h-0.7c-0.1,0-0.1,0-0.1-0.1l-1-1.7l-0.1-0.1h-0.4v1.6
		c0,0.1-0.1,0.2-0.2,0.2h-0.6c-0.1,0-0.2-0.1-0.2-0.2v-4.2c0-0.2,0.1-0.3,0.3-0.4c0.2,0,0.9-0.1,1.2-0.1c1.2,0,1.9,0.4,1.9,1.5v0.1
		c0,0.7-0.3,1.1-0.9,1.2l1,1.7v0.1C228.8,131,228.7,131.1,228.6,131.1 M226.9,125.6c-1.8,0-3.2,1.5-3.2,3.2c0,1.8,1.4,3.2,3.2,3.2
		s3.2-1.4,3.2-3.2C230.1,127,228.7,125.6,226.9,125.6 M226.9,132.6c-2.1,0-3.9-1.7-3.9-3.8c0-2.1,1.7-3.9,3.9-3.9
		c2.1,0,3.9,1.7,3.9,3.9C230.8,130.9,229.1,132.6,226.9,132.6"/>
</g>
<g class="st1">
	<g class="st3">
		<path class="st4" d="M781.5,657.2c-2.2-7.3-12.8-12.5-12.8-12.5l0,0c-1-0.5-1.9-1-2.6-1.4c-17.6-8.5-33.3-18.8-46.4-30.4
			c-10.6-9.4-19.6-19.7-26.9-30.6c-8.9-13.4-13.1-24.5-14.8-30.6c-1-3.9-0.8-5.5,0-7.6c0.7-1.7,2.7-3.4,3.7-4.2
			c5.9-4.2,15.5-10.4,21.4-14.2c5.1-3.3,9.5-6.2,12.1-7.9c8.3-5.8,13.9-11.7,17.3-18c4.3-8.2,4.8-17.3,1.5-26.2
			c-4.5-12-15.7-19.2-30-19.2c-3.2,0-6.4,0.4-9.7,1.1c-8.2,1.8-15.9,4.7-22.4,7.2c-0.5,0.2-1-0.2-0.9-0.7
			c0.7-16.1,1.5-37.6-0.3-58.1c-1.6-18.5-5.4-34.2-11.6-47.8c-6.3-13.7-14.4-23.8-20.8-31.1c-6.1-6.9-16.7-17.2-32.8-26.4
			c-22.6-12.9-48.4-19.5-76.6-19.5c-28.2,0-53.9,6.6-76.6,19.5c-17.1,9.7-27.9,20.7-32.9,26.4c-6.4,7.3-14.5,17.4-20.8,31.1
			c-6.3,13.6-10.1,29.2-11.6,47.8c-1.8,20.6-1.1,40.4-0.3,58.1c0,0.5-0.5,0.9-1,0.7c-6.5-2.5-14.2-5.4-22.4-7.2
			c-3.2-0.7-6.5-1.1-9.7-1.1c-14.2,0-25.4,7.2-30,19.2c-3.4,8.9-2.8,17.9,1.5,26.2c3.4,6.4,9,12.3,17.3,18c2.5,1.8,6.9,4.6,12.1,7.9
			c5.7,3.7,15.1,9.8,21,13.9c0.7,0.5,3.3,2.4,4.1,4.4c0.8,2.1,1,3.7-0.1,7.9c-1.8,6.1-6,17.2-14.7,30.3c-7.3,11-16.3,21.3-26.9,30.6
			c-13.2,11.6-28.8,21.9-46.4,30.4c-0.8,0.4-1.8,0.9-2.9,1.5l0,0c0,0-10.5,5.4-12.5,12.3c-2.9,10.3,4.9,19.9,12.8,25
			c13.1,8.4,28.9,12.9,38.2,15.4c2.6,0.7,4.9,1.3,7,1.9c1.3,0.4,4.6,1.7,6.1,3.5c1.8,2.3,2,5.2,2.6,8.4l0,0c1,5.4,3.3,12.1,9.9,16.7
			c7.4,5.1,16.7,5.4,28.5,5.9c12.4,0.5,27.7,1.1,45.4,6.9c8.2,2.7,15.6,7.3,24.1,12.5c17.9,11,40.2,24.7,78.1,24.7
			c38,0,60.5-13.7,78.5-24.8c8.5-5.2,15.8-9.7,23.8-12.4c17.6-5.8,33-6.4,45.4-6.9c11.8-0.5,21.2-0.8,28.5-5.9
			c7.2-4.9,9.2-12.3,10.2-17.8c0.5-2.7,0.8-5.2,2.4-7.2c1.4-1.7,4.4-2.9,5.8-3.4c2.2-0.7,4.6-1.3,7.3-2.1
			c9.2-2.5,20.8-5.4,34.8-13.3C782.1,674.8,783.3,663.1,781.5,657.2z"/>
	</g>
	<path class="st3" d="M796.1,651.5c-3.7-10.2-10.9-15.6-19-20.2c-1.5-0.9-2.9-1.6-4.1-2.2c-2.4-1.3-4.9-2.5-7.4-3.7
		c-25.3-13.4-45.1-30.4-58.8-50.4c-4.6-6.8-7.8-12.9-10.1-17.9c-1.2-3.4-1.1-5.3-0.3-7c0.6-1.3,2.3-2.7,3.3-3.4
		c4.4-2.9,8.8-5.8,11.9-7.7c5.4-3.5,9.7-6.3,12.5-8.2c10.4-7.3,17.7-15,22.2-23.6c6.4-12.2,7.2-26,2.3-39.1
		c-6.8-18.1-24-29.4-44.7-29.4c-4.3,0-8.7,0.5-13,1.4c-1.2,0.3-2.3,0.5-3.4,0.8c0.2-12.3-0.1-25.5-1.2-38.3
		c-3.9-45.3-19.7-69-36.3-87.9c-6.9-7.9-18.9-19.4-36.9-29.7c-25.1-14.4-53.5-21.7-84.5-21.7c-30.9,0-59.3,7.3-84.4,21.6
		c-18.1,10.3-30.1,21.9-36.9,29.7c-16.5,18.9-32.4,42.6-36.3,87.9c-1.1,12.8-1.4,26-1.2,38.3c-1.1-0.3-2.3-0.5-3.4-0.8
		c-4.3-0.9-8.7-1.4-13-1.4c-20.7,0-37.9,11.3-44.7,29.4c-4.9,13.1-4.2,26.9,2.3,39.1c4.5,8.6,11.8,16.4,22.2,23.6
		c2.8,1.9,7.1,4.7,12.5,8.2c2.9,1.9,7.2,4.7,11.4,7.5c0.6,0.4,2.9,2.1,3.7,3.7c0.9,1.8,0.9,3.7-0.4,7.3c-2.2,4.9-5.4,10.9-9.9,17.5
		c-13.4,19.6-32.6,36.3-57.1,49.5c-13,6.9-26.5,11.5-32.2,26.9c-4.3,11.7-1.5,25,9.4,36.2l0,0c3.6,3.8,8.1,7.3,13.8,10.4
		c13.4,7.4,24.7,11,33.7,13.5c1.6,0.5,5.2,1.6,6.8,3.1c4,3.5,3.4,8.7,8.7,16.4c3.2,4.8,6.9,8.1,9.9,10.2c11.1,7.7,23.6,8.2,36.9,8.7
		c11.9,0.5,25.5,1,41,6.1c6.4,2.1,13.1,6.2,20.8,10.9c18.5,11.4,43.9,27,86.4,27c42.5,0,68-15.7,86.7-27.1
		c7.7-4.7,14.3-8.8,20.5-10.8c15.5-5.1,29-5.6,41-6.1c13.3-0.5,25.7-1,36.9-8.7c3.5-2.4,7.9-6.4,11.4-12.4
		c3.8-6.5,3.7-11.1,7.3-14.2c1.5-1.3,4.7-2.4,6.4-2.9c9-2.5,20.5-6.1,34.2-13.6c6.1-3.3,10.7-6.9,14.5-11.1c0.1-0.1,0.1-0.1,0.2-0.2
		C797.8,675.8,800.3,662.9,796.1,651.5z M758.4,671.8c-23,12.7-38.4,11.4-50.3,19c-10.1,6.5-4.2,20.6-11.5,25.6
		c-9.1,6.3-35.7-0.4-70.2,10.9c-28.4,9.4-46.6,36.4-97.8,36.4c-51.3,0-68.9-26.9-97.8-36.4c-34.5-11.4-61.2-4.7-70.2-10.9
		c-7.3-5.1-1.4-19.1-11.5-25.6c-11.9-7.7-27.2-6.3-50.3-19c-14.7-8.1-6.4-13.1-1.5-15.5c83.5-40.4,96.7-102.8,97.4-107.5
		c0.7-5.6,1.5-10-4.6-15.7c-5.9-5.5-32.4-21.9-39.7-27c-12.2-8.5-17.5-16.9-13.5-27.4c2.7-7.2,9.5-9.9,16.6-9.9
		c2.2,0,4.5,0.3,6.6,0.7c13.3,2.9,26.3,9.6,33.7,11.4c1.1,0.3,1.9,0.4,2.7,0.4c4,0,5.4-2,5.1-6.6c-0.8-14.6-2.9-43-0.6-69.6
		c3.2-36.5,14.9-54.6,28.9-70.7c6.7-7.7,38.3-41,98.7-41c60.5,0,91.9,33.4,98.7,41c14,16,25.8,34.1,28.9,70.7
		c2.3,26.6,0.3,55-0.6,69.6c-0.3,4.8,1.2,6.6,5.1,6.6c0.8,0,1.7-0.1,2.7-0.4c7.5-1.8,20.4-8.5,33.7-11.4c2.2-0.5,4.4-0.7,6.6-0.7
		c7.1,0,13.8,2.7,16.6,9.9c3.9,10.4-1.4,18.9-13.5,27.4c-7.3,5.1-33.8,21.5-39.7,27c-6.2,5.7-5.4,10.1-4.6,15.7
		c0.6,4.7,13.9,67.1,97.4,107.5C764.7,658.7,773.1,663.7,758.4,671.8z"/>
</g>
<path class="st5" d="M134.1,134.1h789.1v789.1H134.1V134.1z"/>
<text transform="matrix(1 0 0 1 289.533 573.4097)" class="st4 st6 st7">SOYF</text>
</svg>
