<?xml version="1.0" encoding="utf-8"?>
<!-- Generator: Adobe Illustrator 23.0.1, SVG Export Plug-In . SVG Version: 6.00 Build 0)  -->
<svg version="1.1" id="Layer_1" xmlns="http://www.w3.org/2000/svg" xmlns:xlink="http://www.w3.org/1999/xlink" x="0px" y="0px"
	 viewBox="0 0 1057.3 1057.3" style="enable-background:new 0 0 1057.3 1057.3;" xml:space="preserve">
<style type="text/css">
	.st0{display:none;}
	.st1{display:inline;fill:url(#SVGID_1_);}
	.st2{display:inline;fill:#FFFFFF;}
	.st3{display:inline;fill:#00AF92;}
	.st4{display:inline;}
	.st5{fill:#808080;}
	.st6{fill:#F6F6F6;}
	.st7{fill-rule:evenodd;clip-rule:evenodd;fill:#F6F6F6;}
	.st8{display:inline;fill:#808080;}
	.st9{display:inline;fill:#E7474B;}
	.st10{fill:#FA4051;}
	.st11{fill:#FFFFFF;}
	.st12{fill:#1739C9;}
	.st13{fill:#F5F5F5;}
	.st14{fill:url(#SVGID_2_);}
	.st15{display:inline;fill:#0C48B6;}
	.st16{fill:#FFE15A;}
	.st17{fill:#8C8C8C;}
	.st18{fill:#393939;}
	.st19{fill:#343434;}
	.st20{fill:#141414;}
	.st21{fill:#3C3C3B;}
	.st22{fill:#F8F9FD;}
	.st23{fill:#EF5350;}
	.st24{fill:#1E88E5;}
</style>
<image style="display:none;overflow:visible;enable-background:new    ;" width="1904" height="1042" xlink:href="../CF27FC1.html"  transform="matrix(0.9994 0 0 0.9994 -2041.8302 -728.7764)">
</image>
<g id="BTC_1_" class="st0">
	<linearGradient id="SVGID_1_" gradientUnits="userSpaceOnUse" x1="7.4" y1="418.6501" x2="659.9" y2="418.6501">
		<stop  offset="0" style="stop-color:#1A1E21"/>
		<stop  offset="1" style="stop-color:#06060A"/>
	</linearGradient>
	<path class="st1" d="M509.9,744.9H157.4c-82.8,0-150-67.2-150-150V242.4c0-82.8,67.2-150,150-150h352.5c82.8,0,150,67.2,150,150
		v352.5C659.9,677.8,592.8,744.9,509.9,744.9z"/>
	<g>
		<path class="st2" d="M295.2,579.6l-134.7-56V290.5l179.6-63.2l118.9,55.3l-163.8,58.7V579.6z"/>
		<path class="st3" d="M461,517.4l-155.4-63.8V350.1L461,292.2V517.4z"/>
	</g>
	
		<image style="overflow:visible;" width="200" height="200" xlink:href="../2083.html"  transform="matrix(2.5403 0 0 2.5403 -580.3 72.5976)">
	</image>
	<g id="Canvas">
		<g id="xrp-symbol-black" class="st4">
			<path id="Vector" class="st5" d="M443,272.7h48.9L390.2,373.4c-36.8,36.4-96.5,36.4-133.3,0L155.1,272.7H204l77.3,76.5
				c23.3,23.1,61.1,23.1,84.5,0L443,272.7z"/>
			<path id="Vector_2" class="st5" d="M203.4,552.6h-48.9l102.4-101.3c36.8-36.4,96.5-36.4,133.3,0l102.4,101.3h-48.9l-77.9-77.1
				c-23.3-23.1-61.1-23.1-84.5,0L203.4,552.6z"/>
		</g>
	</g>
	
		<image style="overflow:visible;" width="64" height="64" xlink:href="../512.html"  transform="matrix(6.9469 0 0 6.9469 110 188.3)">
	</image>
	<path class="st6" d="M319.2,266.2c40.7,0,79,15.9,107.8,44.7c28.8,28.8,44.7,67.1,44.7,107.8s-15.9,79-44.7,107.8
		c-28.8,28.8-67.1,44.7-107.8,44.7c-40.7,0-79-15.9-107.8-44.7c-28.8-28.8-44.7-67.1-44.7-107.8c0-40.7,15.9-79,44.7-107.8
		C240.1,282,278.4,266.2,319.2,266.2 M319.2,236.2c-100.8,0-182.5,81.7-182.5,182.5s81.7,182.5,182.5,182.5
		c100.8,0,182.5-81.7,182.5-182.5S419.9,236.2,319.2,236.2L319.2,236.2z"/>
	<path class="st7" d="M399.5,403.3c17.5-8.4,28.8-22.9,27-47.1c-2.3-33-32.5-43.8-70.9-46.7l1.4-45.8l-29.8,0.2l-1.3,44.6
		c-7.8,0-15.9,0.3-23.8,0.5l1.4-44.9l-29.8,0.2l-1.4,45.8c-6.4,0.2-12.8,0.3-18.9,0.4l0-0.2l-41.1,0.3l-0.9,29.8
		c0,0,22-0.5,21.7-0.2c12-0.1,15.8,6.4,16.7,12.1l-3.9,125.5c-0.6,3.5-3,9.2-11.4,9.3c0.3,0.3-21.7,0.2-21.7,0.2l-7,33.3l38.8-0.3
		c7.2,0,14.3,0.1,21.3,0l-1.4,53l29.8-0.2l1.4-52.5c8.1,0.1,16,0.1,23.8,0l-1.4,52.4l29.8-0.2l1.4-52.9c50.1-3,85.6-15.1,91.3-59.2
		C445,425.2,427.7,409.5,399.5,403.3z M301.9,341.7c16.8-0.1,69.8-5.5,68.8,27.4c-1,31.5-53.7,28.2-70.5,28.3
		C300.1,397.3,301.9,341.7,301.9,341.7z M297.3,486.9l1.9-61.3c20.2-0.2,83.6-6,82.6,30.1C380.7,490.2,317.5,486.7,297.3,486.9z"/>
	<g>
		<path class="st8" d="M450.1,512.2l-44-169c-0.3-1.1-0.8-2.2-1.5-3.1l-81.2-107c-3-3.9-8.5-4.6-12.4-1.7c-0.6,0.5-1.2,1-1.7,1.6
			l-82.1,107c-0.7,0.9-1.3,2-1.5,3.2l-43,169c-1,3.9,0.8,7.9,4.3,9.8l125.2,69.2c2.7,1.5,5.9,1.5,8.6,0l125.2-69.2
			C449.3,520.1,451.1,516.1,450.1,512.2z M418.7,461.9l-33.5-53l11.2-32.8L418.7,461.9L418.7,461.9z M325.2,264.6l62.5,82.3
			l-14.6,42.8l-47.9-75.7L325.2,264.6L325.2,264.6z M316.4,333.1l49.4,78.1l-32.2,94.4h-34.8v0l-32.3-93.7L316.4,333.1L316.4,333.1z
			 M307.5,264.4v49.7l-48.4,76.5l-15-43.6C244.1,347,307.5,264.4,307.5,264.4z M235.5,376.2l11.6,33.5h0l-33.6,53.1L235.5,376.2z
			 M254.4,431l25.7,74.6h-72.9C207.2,505.6,254.4,431,254.4,431z M225.3,523.2h60.9l14.4,41.6L225.3,523.2z M316.3,556.4l-11.5-33.2
			h22.8L316.3,556.4z M332.1,564.8l14.2-41.7h61.2L332.1,564.8L332.1,564.8z M352.3,505.6l25.6-75.3l47.6,75.3H352.3z"/>
	</g>
</g>
<image style="display:none;overflow:visible;" width="1366" height="568" xlink:href="14B8AEA4.html"  transform="matrix(1.8386 0 0 1.8386 -733.2531 6.4929)">
</image>
<g id="BTC_2_" class="st0">
	<path class="st9" d="M894.2,964.6H541.7c-82.8,0-150-67.2-150-150V462.1c0-82.8,67.2-150,150-150h352.5c82.8,0,150,67.2,150,150
		v352.5C1044.2,897.5,977.1,964.6,894.2,964.6z"/>
	<path class="st7" d="M820.7,652.1c22.9-4.6,40.3-18.5,45.5-47.9c7.2-40.1-24.5-62.4-68.2-77.8l15.4-54.3l-34.6-9l-15,52.9
		c-9.1-2.4-18.5-4.6-27.8-6.8l15.1-53.2l-34.6-9l-15.4,54.3c-7.5-1.8-14.9-3.6-22.1-5.4l0.1-0.2l-47.8-12.4l-10,35.3
		c0,0,25.7,6.2,25.2,6.5c14,3.6,16.4,12.6,15.8,19.6L620,693.4c-1.8,4-6.3,10.1-16.1,7.6c0.3,0.5-25.2-6.5-25.2-6.5l-18.1,37.6
		l45.1,11.7c8.4,2.2,16.6,4.5,24.7,6.6l-15.6,54.9l34.6,9l15.4-54.3c9.4,2.6,18.6,5.1,27.6,7.4L677,821.5l34.7,9l15.6-54.8
		c59.1,11.9,103.9,8.5,123.8-42.4C867,692.4,851.6,668.2,820.7,652.1z M725.9,548.3c19.5,5.1,82.7,15,71.6,54
		c-10.6,37.3-70.8,17.1-90.4,12C707.1,614.2,725.9,548.3,725.9,548.3z M676.9,720.3l20.7-72.7c23.5,6,98.9,18.7,86.8,61.5
		C772.7,750.1,700.4,726.3,676.9,720.3z"/>
	<g class="st4">
		<g>
			<path class="st6" d="M633.2,681.2c-57.9,0-104.5-48.3-101.8-106.8c2.4-52,44.5-94.3,96.5-97c23.8-1.2,45.9,5.7,63.8,18.3
				c2.4,1.7,5.2-1.5,3.2-3.7c-24-25-58.1-40.2-95.7-39.1c-67.4,1.9-122.2,57-123.8,124.4c-1.7,71.8,56,130.6,127.5,130.6
				c36.2,0,68.8-15.1,92-39.3c2.8-3-1.1-7.4-4.4-5.1C674.1,674.7,654.4,681.2,633.2,681.2z"/>
		</g>
		<path class="st6" d="M779.3,582.8l19.3-26.3c1.5-2.1-0.5-4.9-3-4.1L764.7,563l-18.2-24.8c-1.5-2.1-4.8-1-4.8,1.6v31l-27.8,9.4
			c-2.4,0.8-2.4,4.3,0.1,5l27.7,8.7v31.9c0,2.6,3.3,3.6,4.8,1.6l19.1-26l27.9,8.8c2.4,0.8,4.4-2,2.9-4.1L779.3,582.8z"/>
	</g>
</g>
<g>
	<g>
		<path class="st10" d="M353.6,242.7h302.9v-10.2c0-13.8-2-27.2-5.7-39.8H353.6V242.7z"/>
		<rect x="353.6" y="392.7" class="st10" width="302.9" height="50"/>
		<rect x="353.6" y="291.9" class="st10" width="302.9" height="50"/>
		<rect x="6.6" y="493.4" class="st10" width="650" height="50"/>
		<path class="st10" d="M146.6,742.5h370c43,0,81.5-19.4,107.2-50H39.3C65,723.1,103.5,742.5,146.6,742.5z"/>
		<path class="st10" d="M6.6,602.5c0,13.9,2,27.4,5.8,40.1h638.3c3.8-12.7,5.8-26.2,5.8-40.1v-9.9H6.5v9.9H6.6z"/>
		<path class="st10" d="M623.8,142.5c-25.7-30.6-64.2-50-107.2-50h-163v50H623.8z"/>
	</g>
	<g>
		<rect x="6.6" y="543.4" class="st11" width="650" height="49.2"/>
		<path class="st11" d="M39.3,692.5h584.5c12.1-14.4,21.4-31.4,26.9-49.9H12.4C17.9,661.1,27.2,678,39.3,692.5z"/>
		<polygon class="st11" points="6.6,442.7 6.6,493.4 656.6,493.4 656.6,442.7 353.6,442.7 353.6,442.7 		"/>
		<rect x="353.6" y="242.7" class="st11" width="302.9" height="49.2"/>
		<rect x="353.6" y="341.9" class="st11" width="302.9" height="50.8"/>
		<path class="st11" d="M650.8,192.7c-5.5-18.7-14.8-35.7-27-50.2H353.6v50.2H650.8z"/>
		<rect x="353.6" y="392.7" class="st12" width="0" height="50"/>
		<rect x="353.6" y="192.7" class="st12" width="0" height="50"/>
		<rect x="353.6" y="291.9" class="st12" width="0" height="50"/>
		<path class="st12" d="M353.6,291.9L353.6,291.9v-49.2l0,0v-50l0,0v-50.2l0,0v-50h-207c-35,0-67,12.8-91.5,34.1l1.5,5.1h8.2
			c1.5,0,2.1,1.9,1,2.8l-6.4,5.2l3,7.5c0.5,1.5-1.2,2.7-2.4,1.8l-6.9-5.6l-6.5,5.8c-1.2,1-2.9-0.2-2.5-1.7l2.6-7.8l-2.7-2.1
			c-23.1,25-37.2,58.4-37.2,95.1v210.2h347.1v-50l0,0v-50.8l0,0v-50.2H353.6z M65.7,408.4l-6.4,5.2l3,7.5c0.5,1.5-1.2,2.7-2.4,1.8
			l-6.9-5.6l-6.5,5.8c-1.2,1-2.9-0.2-2.5-1.7l2.6-7.8l-6.7-5.2c-1.2-0.9-0.5-2.8,1-2.8h8.3l2.1-7.6c0.4-1.5,2.6-1.5,3,0l2.2,7.7h8.2
			C66.1,405.6,66.8,407.5,65.7,408.4z M65.7,345.6l-6.4,5.2l3,7.5c0.5,1.5-1.2,2.7-2.4,1.8l-6.9-5.6l-6.5,5.8
			c-1.2,1-2.9-0.2-2.5-1.7l2.6-7.8l-6.7-5.2c-1.2-0.9-0.5-2.8,1-2.8h8.3l2.1-7.6c0.4-1.5,2.6-1.5,3,0l2.2,7.7h8.2
			C66.1,342.8,66.8,344.6,65.7,345.6z M65.7,276.8l-6.4,5.2l3,7.5c0.5,1.5-1.2,2.7-2.4,1.8l-6.9-5.6l-6.5,5.8
			c-1.2,1-2.9-0.2-2.5-1.7l2.6-7.8l-6.7-5.2c-1.2-0.9-0.5-2.8,1-2.8h8.3l2.1-7.6c0.4-1.5,2.6-1.5,3,0l2.2,7.7h8.2
			C66.1,274,66.8,275.9,65.7,276.8z M65.7,202l-6.4,5.2l3,7.5c0.5,1.5-1.2,2.7-2.4,1.8l-6.9-5.6l-6.5,5.8c-1.2,1-2.9-0.2-2.5-1.7
			l2.6-7.8l-6.7-5.2c-1.2-0.9-0.5-2.8,1-2.8h8.3l2.1-7.6c0.4-1.5,2.6-1.5,3,0l2.2,7.7h8.2C66.1,199.2,66.8,201,65.7,202z
			 M98.8,376.2l-6.4,5.2l3,7.5c0.5,1.5-1.2,2.7-2.4,1.8l-6.9-5.6l-6.5,5.8c-1.2,1-2.9-0.2-2.5-1.7l2.6-7.8l-6.7-5.2
			c-1.2-0.9-0.5-2.8,1-2.8h8.3l2.1-7.6c0.4-1.5,2.6-1.5,3,0l2.2,7.7h8.2C99.3,373.4,99.9,375.3,98.8,376.2z M98.8,312.5l-6.4,5.2
			l3,7.5c0.5,1.5-1.2,2.7-2.4,1.8l-6.9-5.6l-6.5,5.8c-1.2,1-2.9-0.2-2.5-1.7l2.6-7.8l-6.7-5.2c-1.2-0.9-0.5-2.8,1-2.8h8.3l2.1-7.6
			c0.4-1.5,2.6-1.5,3,0l2.2,7.7h8.2C99.3,309.7,99.9,311.6,98.8,312.5z M98.8,241.5l-6.4,5.2l3,7.5c0.5,1.5-1.2,2.7-2.4,1.8
			l-6.9-5.6l-6.5,5.8c-1.2,1-2.9-0.2-2.5-1.7l2.6-7.8l-6.7-5.2c-1.2-0.9-0.5-2.8,1-2.8h8.3l2.1-7.6c0.4-1.5,2.6-1.5,3,0l2.2,7.7h8.2
			C99.3,238.7,99.9,240.5,98.8,241.5z M98.8,166.6l-6.4,5.2l3,7.5c0.5,1.5-1.2,2.7-2.4,1.8l-6.9-5.6l-6.5,5.8
			c-1.2,1-2.9-0.2-2.5-1.7l2.6-7.8l-6.7-5.2c-1.2-0.9-0.5-2.8,1-2.8h8.3l2.1-7.6c0.4-1.5,2.6-1.5,3,0l2.2,7.7h8.2
			C99.3,163.8,99.9,165.7,98.8,166.6z M131.9,408.4l-6.4,5.2l3,7.5c0.5,1.5-1.2,2.7-2.4,1.8l-6.9-5.6l-6.5,5.8
			c-1.2,1-2.9-0.2-2.5-1.7l2.6-7.8l-6.7-5.2c-1.2-0.9-0.5-2.8,1-2.8h8.3l2.1-7.6c0.4-1.5,2.6-1.5,3,0l2.2,7.7h8.2
			C132.4,405.6,133.1,407.5,131.9,408.4z M131.9,345.6l-6.4,5.2l3,7.5c0.5,1.5-1.2,2.7-2.4,1.8l-6.9-5.6l-6.5,5.8
			c-1.2,1-2.9-0.2-2.5-1.7l2.6-7.8l-6.7-5.2c-1.2-0.9-0.5-2.8,1-2.8h8.3l2.1-7.6c0.4-1.5,2.6-1.5,3,0l2.2,7.7h8.2
			C132.4,342.8,133.1,344.6,131.9,345.6z M131.9,276.8l-6.4,5.2l3,7.5c0.5,1.5-1.2,2.7-2.4,1.8l-6.9-5.6l-6.5,5.8
			c-1.2,1-2.9-0.2-2.5-1.7l2.6-7.8l-6.7-5.2c-1.2-0.9-0.5-2.8,1-2.8h8.3l2.1-7.6c0.4-1.5,2.6-1.5,3,0l2.2,7.7h8.2
			C132.4,274,133.1,275.9,131.9,276.8z M131.9,202l-6.4,5.2l3,7.5c0.5,1.5-1.2,2.7-2.4,1.8l-6.9-5.6l-6.5,5.8
			c-1.2,1-2.9-0.2-2.5-1.7l2.6-7.8l-6.7-5.2c-1.2-0.9-0.5-2.8,1-2.8h8.3l2.1-7.6c0.4-1.5,2.6-1.5,3,0l2.2,7.7h8.2
			C132.4,199.2,133.1,201,131.9,202z M131.9,134.4l-6.4,5.2l3,7.5c0.5,1.5-1.2,2.7-2.4,1.8l-6.9-5.6l-6.5,5.8
			c-1.2,1-2.9-0.2-2.5-1.7l2.6-7.8l-6.7-5.2c-1.2-0.9-0.5-2.8,1-2.8h8.3l2.1-7.6c0.4-1.5,2.6-1.5,3,0l2.2,7.7h8.2
			C132.4,131.6,133.1,133.4,131.9,134.4z M165,376.2l-6.4,5.2l3,7.5c0.5,1.5-1.2,2.7-2.4,1.8l-6.9-5.6l-6.5,5.8
			c-1.2,1-2.9-0.2-2.5-1.7l2.6-7.8l-6.7-5.2c-1.2-0.9-0.5-2.8,1-2.8h8.3l2.1-7.6c0.4-1.5,2.6-1.5,3,0l2.2,7.7h8.2
			C165.5,373.4,166.2,375.3,165,376.2z M165,312.5l-6.4,5.2l3,7.5c0.5,1.5-1.2,2.7-2.4,1.8l-6.9-5.6l-6.5,5.8
			c-1.2,1-2.9-0.2-2.5-1.7l2.6-7.8l-6.7-5.2c-1.2-0.9-0.5-2.8,1-2.8h8.3l2.1-7.6c0.4-1.5,2.6-1.5,3,0l2.2,7.7h8.2
			C165.5,309.7,166.2,311.6,165,312.5z M165,241.5l-6.4,5.2l3,7.5c0.5,1.5-1.2,2.7-2.4,1.8l-6.9-5.6l-6.5,5.8
			c-1.2,1-2.9-0.2-2.5-1.7l2.6-7.8l-6.7-5.2c-1.2-0.9-0.5-2.8,1-2.8h8.3l2.1-7.6c0.4-1.5,2.6-1.5,3,0l2.2,7.7h8.2
			C165.5,238.7,166.2,240.5,165,241.5z M165,166.6l-6.4,5.2l3,7.5c0.5,1.5-1.2,2.7-2.4,1.8l-6.9-5.6l-6.5,5.8
			c-1.2,1-2.9-0.2-2.5-1.7l2.6-7.8l-6.7-5.2c-1.2-0.9-0.5-2.8,1-2.8h8.3l2.1-7.6c0.4-1.5,2.6-1.5,3,0l2.2,7.7h8.2
			C165.5,163.8,166.2,165.7,165,166.6z M197.4,408.4l-6.4,5.2l3,7.5c0.5,1.5-1.2,2.7-2.4,1.8l-6.9-5.6l-6.5,5.8
			c-1.2,1-2.9-0.2-2.5-1.7l2.6-7.8l-6.7-5.2c-1.2-0.9-0.5-2.8,1-2.8h8.3l2.1-7.6c0.4-1.5,2.6-1.5,3,0l2.2,7.7h8.2
			C197.9,405.6,198.6,407.5,197.4,408.4z M197.4,345.6l-6.4,5.2l3,7.5c0.5,1.5-1.2,2.7-2.4,1.8l-6.9-5.6l-6.5,5.8
			c-1.2,1-2.9-0.2-2.5-1.7l2.6-7.8l-6.7-5.2c-1.2-0.9-0.5-2.8,1-2.8h8.3l2.1-7.6c0.4-1.5,2.6-1.5,3,0l2.2,7.7h8.2
			C197.9,342.8,198.6,344.6,197.4,345.6z M197.4,276.8L191,282l3,7.5c0.5,1.5-1.2,2.7-2.4,1.8l-6.9-5.6l-6.5,5.8
			c-1.2,1-2.9-0.2-2.5-1.7l2.6-7.8l-6.7-5.2c-1.2-0.9-0.5-2.8,1-2.8h8.3l2.1-7.6c0.4-1.5,2.6-1.5,3,0l2.2,7.7h8.2
			C197.9,274,198.6,275.9,197.4,276.8z M197.4,202l-6.4,5.2l3,7.5c0.5,1.5-1.2,2.7-2.4,1.8l-6.9-5.6l-6.5,5.8
			c-1.2,1-2.9-0.2-2.5-1.7l2.6-7.8l-6.7-5.2c-1.2-0.9-0.5-2.8,1-2.8h8.3l2.1-7.6c0.4-1.5,2.6-1.5,3,0l2.2,7.7h8.2
			C197.9,199.2,198.6,201,197.4,202z M197.4,134.4l-6.4,5.2l3,7.5c0.5,1.5-1.2,2.7-2.4,1.8l-6.9-5.6l-6.5,5.8
			c-1.2,1-2.9-0.2-2.5-1.7l2.6-7.8l-6.7-5.2c-1.2-0.9-0.5-2.8,1-2.8h8.3l2.1-7.6c0.4-1.5,2.6-1.5,3,0l2.2,7.7h8.2
			C197.9,131.6,198.6,133.4,197.4,134.4z M230.5,376.2l-6.4,5.2l3,7.5c0.5,1.5-1.2,2.7-2.4,1.8l-6.9-5.6l-6.5,5.8
			c-1.2,1-2.9-0.2-2.5-1.7l2.6-7.8l-6.7-5.2c-1.2-0.9-0.5-2.8,1-2.8h8.3l2.1-7.6c0.4-1.5,2.6-1.5,3,0l2.2,7.7h8.2
			C231,373.4,231.7,375.3,230.5,376.2z M230.5,312.5l-6.4,5.2l3,7.5c0.5,1.5-1.2,2.7-2.4,1.8l-6.9-5.6l-6.5,5.8
			c-1.2,1-2.9-0.2-2.5-1.7l2.6-7.8l-6.7-5.2c-1.2-0.9-0.5-2.8,1-2.8h8.3l2.1-7.6c0.4-1.5,2.6-1.5,3,0l2.2,7.7h8.2
			C231,309.7,231.7,311.6,230.5,312.5z M230.5,241.5l-6.4,5.2l3,7.5c0.5,1.5-1.2,2.7-2.4,1.8l-6.9-5.6l-6.5,5.8
			c-1.2,1-2.9-0.2-2.5-1.7l2.6-7.8l-6.7-5.2c-1.2-0.9-0.5-2.8,1-2.8h8.3l2.1-7.6c0.4-1.5,2.6-1.5,3,0l2.2,7.7h8.2
			C231,238.7,231.7,240.5,230.5,241.5z M230.5,166.6l-6.4,5.2l3,7.5c0.5,1.5-1.2,2.7-2.4,1.8l-6.9-5.6l-6.5,5.8
			c-1.2,1-2.9-0.2-2.5-1.7l2.6-7.8l-6.7-5.2c-1.2-0.9-0.5-2.8,1-2.8h8.3l2.1-7.6c0.4-1.5,2.6-1.5,3,0l2.2,7.7h8.2
			C231,163.8,231.7,165.7,230.5,166.6z M262.8,408.4l-6.4,5.2l3,7.5c0.5,1.5-1.2,2.7-2.4,1.8l-6.9-5.6l-6.5,5.8
			c-1.2,1-2.9-0.2-2.5-1.7l2.6-7.8l-6.7-5.2c-1.2-0.9-0.5-2.8,1-2.8h8.3l2.1-7.6c0.4-1.5,2.6-1.5,3,0l2.2,7.7h8.2
			C263.2,405.6,263.9,407.5,262.8,408.4z M262.8,345.6l-6.4,5.2l3,7.5c0.5,1.5-1.2,2.7-2.4,1.8l-6.9-5.6l-6.5,5.8
			c-1.2,1-2.9-0.2-2.5-1.7l2.6-7.8l-6.7-5.2c-1.2-0.9-0.5-2.8,1-2.8h8.3l2.1-7.6c0.4-1.5,2.6-1.5,3,0l2.2,7.7h8.2
			C263.2,342.8,263.9,344.6,262.8,345.6z M262.8,276.8l-6.4,5.2l3,7.5c0.5,1.5-1.2,2.7-2.4,1.8l-6.9-5.6l-6.5,5.8
			c-1.2,1-2.9-0.2-2.5-1.7l2.6-7.8l-6.7-5.2c-1.2-0.9-0.5-2.8,1-2.8h8.3l2.1-7.6c0.4-1.5,2.6-1.5,3,0l2.2,7.7h8.2
			C263.2,274,263.9,275.9,262.8,276.8z M262.8,202l-6.4,5.2l3,7.5c0.5,1.5-1.2,2.7-2.4,1.8l-6.9-5.6l-6.5,5.8
			c-1.2,1-2.9-0.2-2.5-1.7l2.6-7.8L237,202c-1.2-0.9-0.5-2.8,1-2.8h8.3l2.1-7.6c0.4-1.5,2.6-1.5,3,0l2.2,7.7h8.2
			C263.2,199.2,263.9,201,262.8,202z M262.8,134.4l-6.4,5.2l3,7.5c0.5,1.5-1.2,2.7-2.4,1.8l-6.9-5.6l-6.5,5.8
			c-1.2,1-2.9-0.2-2.5-1.7l2.6-7.8l-6.7-5.2c-1.2-0.9-0.5-2.8,1-2.8h8.3l2.1-7.6c0.4-1.5,2.6-1.5,3,0l2.2,7.7h8.2
			C263.2,131.6,263.9,133.4,262.8,134.4z M295.9,376.2l-6.4,5.2l3,7.5c0.5,1.5-1.2,2.7-2.4,1.8l-6.9-5.6l-6.5,5.8
			c-1.2,1-2.9-0.2-2.5-1.7l2.6-7.8l-6.7-5.2c-1.2-0.9-0.5-2.8,1-2.8h8.3l2.1-7.6c0.4-1.5,2.6-1.5,3,0l2.2,7.7h8.2
			C296.4,373.4,297,375.3,295.9,376.2z M295.9,312.5l-6.4,5.2l3,7.5c0.5,1.5-1.2,2.7-2.4,1.8l-6.9-5.6l-6.5,5.8
			c-1.2,1-2.9-0.2-2.5-1.7l2.6-7.8l-6.7-5.2c-1.2-0.9-0.5-2.8,1-2.8h8.3l2.1-7.6c0.4-1.5,2.6-1.5,3,0l2.2,7.7h8.2
			C296.4,309.7,297,311.6,295.9,312.5z M295.9,241.5l-6.4,5.2l3,7.5c0.5,1.5-1.2,2.7-2.4,1.8l-6.9-5.6l-6.5,5.8
			c-1.2,1-2.9-0.2-2.5-1.7l2.6-7.8l-6.7-5.2c-1.2-0.9-0.5-2.8,1-2.8h8.3l2.1-7.6c0.4-1.5,2.6-1.5,3,0l2.2,7.7h8.2
			C296.4,238.7,297,240.5,295.9,241.5z M295.9,166.6l-6.4,5.2l3,7.5c0.5,1.5-1.2,2.7-2.4,1.8l-6.9-5.6l-6.5,5.8
			c-1.2,1-2.9-0.2-2.5-1.7l2.6-7.8l-6.7-5.2c-1.2-0.9-0.5-2.8,1-2.8h8.3l2.1-7.6c0.4-1.5,2.6-1.5,3,0l2.2,7.7h8.2
			C296.4,163.8,297,165.7,295.9,166.6z M328.6,408.4l-6.4,5.2l3,7.5c0.5,1.5-1.2,2.7-2.4,1.8l-6.9-5.6l-6.5,5.8
			c-1.2,1-2.9-0.2-2.5-1.7l2.6-7.8l-6.7-5.2c-1.2-0.9-0.5-2.8,1-2.8h8.3l2.1-7.6c0.4-1.5,2.6-1.5,3,0l2.2,7.7h8.2
			C329.1,405.6,329.8,407.5,328.6,408.4z M328.6,345.6l-6.4,5.2l3,7.5c0.5,1.5-1.2,2.7-2.4,1.8l-6.9-5.6l-6.5,5.8
			c-1.2,1-2.9-0.2-2.5-1.7l2.6-7.8l-6.7-5.2c-1.2-0.9-0.5-2.8,1-2.8h8.3l2.1-7.6c0.4-1.5,2.6-1.5,3,0l2.2,7.7h8.2
			C329.1,342.8,329.8,344.6,328.6,345.6z M328.6,276.8l-6.4,5.2l3,7.5c0.5,1.5-1.2,2.7-2.4,1.8l-6.9-5.6l-6.5,5.8
			c-1.2,1-2.9-0.2-2.5-1.7l2.6-7.8l-6.7-5.2c-1.2-0.9-0.5-2.8,1-2.8h8.3l2.1-7.6c0.4-1.5,2.6-1.5,3,0l2.2,7.7h8.2
			C329.1,274,329.8,275.9,328.6,276.8z M328.6,202l-6.4,5.2l3,7.5c0.5,1.5-1.2,2.7-2.4,1.8l-6.9-5.6l-6.5,5.8
			c-1.2,1-2.9-0.2-2.5-1.7l2.6-7.8l-6.7-5.2c-1.2-0.9-0.5-2.8,1-2.8h8.3l2.1-7.6c0.4-1.5,2.6-1.5,3,0l2.2,7.7h8.2
			C329.1,199.2,329.8,201,328.6,202z M328.6,134.4l-6.4,5.2l3,7.5c0.5,1.5-1.2,2.7-2.4,1.8l-6.9-5.6l-6.5,5.8
			c-1.2,1-2.9-0.2-2.5-1.7l2.6-7.8l-6.7-5.2c-1.2-0.9-0.5-2.8,1-2.8h8.3l2.1-7.6c0.4-1.5,2.6-1.5,3,0l2.2,7.7h8.2
			C329.1,131.6,329.8,133.4,328.6,134.4z"/>
		<path class="st13" d="M64.7,405.6h-8.2l-2.2-7.7c-0.4-1.5-2.6-1.5-3,0l-2.1,7.6h-8.3c-1.5,0-2.2,1.9-1,2.8l6.7,5.2l-2.6,7.8
			c-0.5,1.5,1.3,2.7,2.5,1.7l6.5-5.8l6.9,5.6c1.3,0.9,3-0.3,2.4-1.8l-3-7.5l6.4-5.2C66.8,407.5,66.1,405.6,64.7,405.6z"/>
		<path class="st13" d="M97.8,373.4h-8.2l-2.2-7.7c-0.4-1.5-2.6-1.5-3,0l-2.1,7.6H74c-1.5,0-2.2,1.9-1,2.8l6.7,5.2l-2.6,7.8
			c-0.5,1.5,1.3,2.7,2.5,1.7l6.5-5.8l6.9,5.6c1.3,0.9,3-0.3,2.4-1.8l-3-7.5l6.4-5.2C99.9,375.3,99.3,373.4,97.8,373.4z"/>
		<path class="st13" d="M64.7,342.8h-8.2l-2.2-7.7c-0.4-1.5-2.6-1.5-3,0l-2.1,7.6h-8.3c-1.5,0-2.2,1.9-1,2.8l6.7,5.2l-2.6,7.8
			c-0.5,1.5,1.3,2.7,2.5,1.7l6.5-5.8l6.9,5.6c1.3,0.9,3-0.3,2.4-1.8l-3-7.5l6.4-5.2C66.8,344.6,66.1,342.8,64.7,342.8z"/>
		<path class="st13" d="M97.8,309.7h-8.2l-2.2-7.7c-0.4-1.5-2.6-1.5-3,0l-2.1,7.6H74c-1.5,0-2.2,1.9-1,2.8l6.7,5.2l-2.6,7.8
			c-0.5,1.5,1.3,2.7,2.5,1.7l6.5-5.8l6.9,5.6c1.3,0.9,3-0.3,2.4-1.8l-3-7.5l6.4-5.2C99.9,311.6,99.3,309.7,97.8,309.7z"/>
		<path class="st13" d="M64.7,274h-8.2l-2.2-7.7c-0.4-1.5-2.6-1.5-3,0l-2.1,7.6h-8.3c-1.5,0-2.2,1.9-1,2.8l6.7,5.2l-2.6,7.8
			c-0.5,1.5,1.3,2.7,2.5,1.7l6.5-5.8l6.9,5.6c1.3,0.9,3-0.3,2.4-1.8l-3-7.5l6.4-5.2C66.8,275.9,66.1,274,64.7,274z"/>
		<path class="st13" d="M97.8,238.7h-8.2l-2.2-7.7c-0.4-1.5-2.6-1.5-3,0l-2.1,7.6H74c-1.5,0-2.2,1.9-1,2.8l6.7,5.2l-2.6,7.8
			c-0.5,1.5,1.3,2.7,2.5,1.7l6.5-5.8l6.9,5.6c1.3,0.9,3-0.3,2.4-1.8l-3-7.5l6.4-5.2C99.9,240.5,99.3,238.7,97.8,238.7z"/>
		<path class="st13" d="M64.7,199.2h-8.2l-2.2-7.7c-0.4-1.5-2.6-1.5-3,0l-2.1,7.6h-8.3c-1.5,0-2.2,1.9-1,2.8l6.7,5.2l-2.6,7.8
			c-0.5,1.5,1.3,2.7,2.5,1.7l6.5-5.8l6.9,5.6c1.3,0.9,3-0.3,2.4-1.8l-3-7.5l6.4-5.2C66.8,201,66.1,199.2,64.7,199.2z"/>
		<path class="st13" d="M43.8,137.4l2.7,2.1l-2.6,7.8c-0.5,1.5,1.3,2.7,2.5,1.7l6.5-5.8l6.9,5.6c1.3,0.9,3-0.3,2.4-1.8l-3-7.5
			l6.4-5.2c1.2-0.9,0.5-2.8-1-2.8h-8.2l-1.5-5.1C51.1,130,47.3,133.6,43.8,137.4z"/>
		<path class="st13" d="M97.8,163.8h-8.2l-2.2-7.7c-0.4-1.5-2.6-1.5-3,0l-2.1,7.6H74c-1.5,0-2.2,1.9-1,2.8l6.7,5.2l-2.6,7.8
			c-0.5,1.5,1.3,2.7,2.5,1.7l6.5-5.8L93,181c1.3,0.9,3-0.3,2.4-1.8l-3-7.5l6.4-5.2C99.9,165.7,99.3,163.8,97.8,163.8z"/>
		<path class="st13" d="M130.9,405.6h-8.2l-2.2-7.7c-0.4-1.5-2.6-1.5-3,0l-2.1,7.6h-8.3c-1.5,0-2.2,1.9-1,2.8l6.7,5.2l-2.6,7.8
			c-0.5,1.5,1.3,2.7,2.5,1.7l6.5-5.8l6.9,5.6c1.3,0.9,3-0.3,2.4-1.8l-3-7.5l6.4-5.2C133.1,407.5,132.4,405.6,130.9,405.6z"/>
		<path class="st13" d="M164,373.4h-8.2l-2.2-7.7c-0.4-1.5-2.6-1.5-3,0l-2.1,7.6h-8.3c-1.5,0-2.2,1.9-1,2.8l6.7,5.2l-2.6,7.8
			c-0.5,1.5,1.3,2.7,2.5,1.7l6.5-5.8l6.9,5.6c1.3,0.9,3-0.3,2.4-1.8l-3-7.5l6.4-5.2C166.2,375.3,165.5,373.4,164,373.4z"/>
		<path class="st13" d="M130.9,342.8h-8.2l-2.2-7.7c-0.4-1.5-2.6-1.5-3,0l-2.1,7.6h-8.3c-1.5,0-2.2,1.9-1,2.8l6.7,5.2l-2.6,7.8
			c-0.5,1.5,1.3,2.7,2.5,1.7l6.5-5.8l6.9,5.6c1.3,0.9,3-0.3,2.4-1.8l-3-7.5l6.4-5.2C133.1,344.6,132.4,342.8,130.9,342.8z"/>
		<path class="st13" d="M164,309.7h-8.2l-2.2-7.7c-0.4-1.5-2.6-1.5-3,0l-2.1,7.6h-8.3c-1.5,0-2.2,1.9-1,2.8l6.7,5.2l-2.6,7.8
			c-0.5,1.5,1.3,2.7,2.5,1.7l6.5-5.8l6.9,5.6c1.3,0.9,3-0.3,2.4-1.8l-3-7.5l6.4-5.2C166.2,311.6,165.5,309.7,164,309.7z"/>
		<path class="st13" d="M130.9,274h-8.2l-2.2-7.7c-0.4-1.5-2.6-1.5-3,0l-2.1,7.6h-8.3c-1.5,0-2.2,1.9-1,2.8l6.7,5.2l-2.6,7.8
			c-0.5,1.5,1.3,2.7,2.5,1.7l6.5-5.8l6.9,5.6c1.3,0.9,3-0.3,2.4-1.8l-3-7.5l6.4-5.2C133.1,275.9,132.4,274,130.9,274z"/>
		<path class="st13" d="M164,238.7h-8.2l-2.2-7.7c-0.4-1.5-2.6-1.5-3,0l-2.1,7.6h-8.3c-1.5,0-2.2,1.9-1,2.8l6.7,5.2l-2.6,7.8
			c-0.5,1.5,1.3,2.7,2.5,1.7l6.5-5.8l6.9,5.6c1.3,0.9,3-0.3,2.4-1.8l-3-7.5l6.4-5.2C166.2,240.5,165.5,238.7,164,238.7z"/>
		<path class="st13" d="M130.9,199.2h-8.2l-2.2-7.7c-0.4-1.5-2.6-1.5-3,0l-2.1,7.6h-8.3c-1.5,0-2.2,1.9-1,2.8l6.7,5.2l-2.6,7.8
			c-0.5,1.5,1.3,2.7,2.5,1.7l6.5-5.8l6.9,5.6c1.3,0.9,3-0.3,2.4-1.8l-3-7.5l6.4-5.2C133.1,201,132.4,199.2,130.9,199.2z"/>
		<path class="st13" d="M130.9,131.6h-8.2l-2.2-7.7c-0.4-1.5-2.6-1.5-3,0l-2.1,7.6h-8.3c-1.5,0-2.2,1.9-1,2.8l6.7,5.2l-2.6,7.8
			c-0.5,1.5,1.3,2.7,2.5,1.7l6.5-5.8l6.9,5.6c1.3,0.9,3-0.3,2.4-1.8l-3-7.5l6.4-5.2C133.1,133.4,132.4,131.6,130.9,131.6z"/>
		<path class="st13" d="M164,163.8h-8.2l-2.2-7.7c-0.4-1.5-2.6-1.5-3,0l-2.1,7.6h-8.3c-1.5,0-2.2,1.9-1,2.8l6.7,5.2l-2.6,7.8
			c-0.5,1.5,1.3,2.7,2.5,1.7l6.5-5.8l6.9,5.6c1.3,0.9,3-0.3,2.4-1.8l-3-7.5l6.4-5.2C166.2,165.7,165.5,163.8,164,163.8z"/>
		<path class="st13" d="M196.4,405.6h-8.2L186,398c-0.4-1.5-2.6-1.5-3,0l-2.1,7.6h-8.3c-1.5,0-2.2,1.9-1,2.8l6.7,5.2l-2.6,7.8
			c-0.5,1.5,1.3,2.7,2.5,1.7l6.5-5.8l6.9,5.6c1.3,0.9,3-0.3,2.4-1.8l-3-7.5l6.4-5.2C198.6,407.5,197.9,405.6,196.4,405.6z"/>
		<path class="st13" d="M229.5,373.4h-8.2l-2.2-7.7c-0.4-1.5-2.6-1.5-3,0l-2.1,7.6h-8.3c-1.5,0-2.2,1.9-1,2.8l6.7,5.2l-2.6,7.8
			c-0.5,1.5,1.3,2.7,2.5,1.7l6.5-5.8l6.9,5.6c1.3,0.9,3-0.3,2.4-1.8l-3-7.5l6.4-5.2C231.7,375.3,231,373.4,229.5,373.4z"/>
		<path class="st13" d="M196.4,342.8h-8.2l-2.2-7.7c-0.4-1.5-2.6-1.5-3,0l-2.1,7.6h-8.3c-1.5,0-2.2,1.9-1,2.8l6.7,5.2l-2.6,7.8
			c-0.5,1.5,1.3,2.7,2.5,1.7l6.5-5.8l6.9,5.6c1.3,0.9,3-0.3,2.4-1.8l-3-7.5l6.4-5.2C198.6,344.6,197.9,342.8,196.4,342.8z"/>
		<path class="st13" d="M229.5,309.7h-8.2l-2.2-7.7c-0.4-1.5-2.6-1.5-3,0l-2.1,7.6h-8.3c-1.5,0-2.2,1.9-1,2.8l6.7,5.2l-2.6,7.8
			c-0.5,1.5,1.3,2.7,2.5,1.7l6.5-5.8l6.9,5.6c1.3,0.9,3-0.3,2.4-1.8l-3-7.5l6.4-5.2C231.7,311.6,231,309.7,229.5,309.7z"/>
		<path class="st13" d="M196.4,274h-8.2l-2.2-7.7c-0.4-1.5-2.6-1.5-3,0l-2.1,7.6h-8.3c-1.5,0-2.2,1.9-1,2.8l6.7,5.2l-2.6,7.8
			c-0.5,1.5,1.3,2.7,2.5,1.7l6.5-5.8l6.9,5.6c1.3,0.9,3-0.3,2.4-1.8l-3-7.5l6.4-5.2C198.6,275.9,197.9,274,196.4,274z"/>
		<path class="st13" d="M229.5,238.7h-8.2l-2.2-7.7c-0.4-1.5-2.6-1.5-3,0l-2.1,7.6h-8.3c-1.5,0-2.2,1.9-1,2.8l6.7,5.2l-2.6,7.8
			c-0.5,1.5,1.3,2.7,2.5,1.7l6.5-5.8l6.9,5.6c1.3,0.9,3-0.3,2.4-1.8l-3-7.5l6.4-5.2C231.7,240.5,231,238.7,229.5,238.7z"/>
		<path class="st13" d="M196.4,199.2h-8.2l-2.2-7.7c-0.4-1.5-2.6-1.5-3,0l-2.1,7.6h-8.3c-1.5,0-2.2,1.9-1,2.8l6.7,5.2l-2.6,7.8
			c-0.5,1.5,1.3,2.7,2.5,1.7l6.5-5.8l6.9,5.6c1.3,0.9,3-0.3,2.4-1.8l-3-7.5l6.4-5.2C198.6,201,197.9,199.2,196.4,199.2z"/>
		<path class="st13" d="M196.4,131.6h-8.2l-2.2-7.7c-0.4-1.5-2.6-1.5-3,0l-2.1,7.6h-8.3c-1.5,0-2.2,1.9-1,2.8l6.7,5.2l-2.6,7.8
			c-0.5,1.5,1.3,2.7,2.5,1.7l6.5-5.8l6.9,5.6c1.3,0.9,3-0.3,2.4-1.8l-3-7.5l6.4-5.2C198.6,133.4,197.9,131.6,196.4,131.6z"/>
		<path class="st13" d="M229.5,163.8h-8.2l-2.2-7.7c-0.4-1.5-2.6-1.5-3,0l-2.1,7.6h-8.3c-1.5,0-2.2,1.9-1,2.8l6.7,5.2l-2.6,7.8
			c-0.5,1.5,1.3,2.7,2.5,1.7l6.5-5.8l6.9,5.6c1.3,0.9,3-0.3,2.4-1.8l-3-7.5l6.4-5.2C231.7,165.7,231,163.8,229.5,163.8z"/>
		<path class="st13" d="M261.8,405.6h-8.2l-2.2-7.7c-0.4-1.5-2.6-1.5-3,0l-2.1,7.6H238c-1.5,0-2.2,1.9-1,2.8l6.7,5.2l-2.6,7.8
			c-0.5,1.5,1.3,2.7,2.5,1.7l6.5-5.8l6.9,5.6c1.3,0.9,3-0.3,2.4-1.8l-3-7.5l6.4-5.2C263.9,407.5,263.2,405.6,261.8,405.6z"/>
		<path class="st13" d="M294.9,373.4h-8.2l-2.2-7.7c-0.4-1.5-2.6-1.5-3,0l-2.1,7.6h-8.3c-1.5,0-2.2,1.9-1,2.8l6.7,5.2l-2.6,7.8
			c-0.5,1.5,1.3,2.7,2.5,1.7l6.5-5.8l6.9,5.6c1.3,0.9,3-0.3,2.4-1.8l-3-7.5l6.4-5.2C297,375.3,296.4,373.4,294.9,373.4z"/>
		<path class="st13" d="M261.8,342.8h-8.2l-2.2-7.7c-0.4-1.5-2.6-1.5-3,0l-2.1,7.6H238c-1.5,0-2.2,1.9-1,2.8l6.7,5.2l-2.6,7.8
			c-0.5,1.5,1.3,2.7,2.5,1.7l6.5-5.8l6.9,5.6c1.3,0.9,3-0.3,2.4-1.8l-3-7.5l6.4-5.2C263.9,344.6,263.2,342.8,261.8,342.8z"/>
		<path class="st13" d="M294.9,309.7h-8.2l-2.2-7.7c-0.4-1.5-2.6-1.5-3,0l-2.1,7.6h-8.3c-1.5,0-2.2,1.9-1,2.8l6.7,5.2l-2.6,7.8
			c-0.5,1.5,1.3,2.7,2.5,1.7l6.5-5.8l6.9,5.6c1.3,0.9,3-0.3,2.4-1.8l-3-7.5l6.4-5.2C297,311.6,296.4,309.7,294.9,309.7z"/>
		<path class="st13" d="M261.8,274h-8.2l-2.2-7.7c-0.4-1.5-2.6-1.5-3,0l-2.1,7.6H238c-1.5,0-2.2,1.9-1,2.8l6.7,5.2l-2.6,7.8
			c-0.5,1.5,1.3,2.7,2.5,1.7l6.5-5.8l6.9,5.6c1.3,0.9,3-0.3,2.4-1.8l-3-7.5l6.4-5.2C263.9,275.9,263.2,274,261.8,274z"/>
		<path class="st13" d="M294.9,238.7h-8.2l-2.2-7.7c-0.4-1.5-2.6-1.5-3,0l-2.1,7.6h-8.3c-1.5,0-2.2,1.9-1,2.8l6.7,5.2l-2.6,7.8
			c-0.5,1.5,1.3,2.7,2.5,1.7l6.5-5.8l6.9,5.6c1.3,0.9,3-0.3,2.4-1.8l-3-7.5l6.4-5.2C297,240.5,296.4,238.7,294.9,238.7z"/>
		<path class="st13" d="M261.8,199.2h-8.2l-2.2-7.7c-0.4-1.5-2.6-1.5-3,0l-2.1,7.6H238c-1.5,0-2.2,1.9-1,2.8l6.7,5.2l-2.6,7.8
			c-0.5,1.5,1.3,2.7,2.5,1.7l6.5-5.8l6.9,5.6c1.3,0.9,3-0.3,2.4-1.8l-3-7.5l6.4-5.2C263.9,201,263.2,199.2,261.8,199.2z"/>
		<path class="st13" d="M261.8,131.6h-8.2l-2.2-7.7c-0.4-1.5-2.6-1.5-3,0l-2.1,7.6H238c-1.5,0-2.2,1.9-1,2.8l6.7,5.2l-2.6,7.8
			c-0.5,1.5,1.3,2.7,2.5,1.7l6.5-5.8l6.9,5.6c1.3,0.9,3-0.3,2.4-1.8l-3-7.5l6.4-5.2C263.9,133.4,263.2,131.6,261.8,131.6z"/>
		<path class="st13" d="M327.6,405.6h-8.2l-2.2-7.7c-0.4-1.5-2.6-1.5-3,0l-2.1,7.6h-8.3c-1.5,0-2.2,1.9-1,2.8l6.7,5.2l-2.6,7.8
			c-0.5,1.5,1.3,2.7,2.5,1.7l6.5-5.8l6.9,5.6c1.3,0.9,3-0.3,2.4-1.8l-3-7.5l6.4-5.2C329.8,407.5,329.1,405.6,327.6,405.6z"/>
		<path class="st13" d="M327.6,342.8h-8.2l-2.2-7.7c-0.4-1.5-2.6-1.5-3,0l-2.1,7.6h-8.3c-1.5,0-2.2,1.9-1,2.8l6.7,5.2l-2.6,7.8
			c-0.5,1.5,1.3,2.7,2.5,1.7l6.5-5.8l6.9,5.6c1.3,0.9,3-0.3,2.4-1.8l-3-7.5l6.4-5.2C329.8,344.6,329.1,342.8,327.6,342.8z"/>
		<path class="st13" d="M327.6,274h-8.2l-2.2-7.7c-0.4-1.5-2.6-1.5-3,0l-2.1,7.6h-8.3c-1.5,0-2.2,1.9-1,2.8l6.7,5.2l-2.6,7.8
			c-0.5,1.5,1.3,2.7,2.5,1.7l6.5-5.8l6.9,5.6c1.3,0.9,3-0.3,2.4-1.8l-3-7.5l6.4-5.2C329.8,275.9,329.1,274,327.6,274z"/>
		<path class="st13" d="M327.6,199.2h-8.2l-2.2-7.7c-0.4-1.5-2.6-1.5-3,0l-2.1,7.6h-8.3c-1.5,0-2.2,1.9-1,2.8l6.7,5.2l-2.6,7.8
			c-0.5,1.5,1.3,2.7,2.5,1.7l6.5-5.8l6.9,5.6c1.3,0.9,3-0.3,2.4-1.8l-3-7.5l6.4-5.2C329.8,201,329.1,199.2,327.6,199.2z"/>
		<path class="st13" d="M327.6,131.6h-8.2l-2.2-7.7c-0.4-1.5-2.6-1.5-3,0l-2.1,7.6h-8.3c-1.5,0-2.2,1.9-1,2.8l6.7,5.2l-2.6,7.8
			c-0.5,1.5,1.3,2.7,2.5,1.7l6.5-5.8l6.9,5.6c1.3,0.9,3-0.3,2.4-1.8l-3-7.5l6.4-5.2C329.8,133.4,329.1,131.6,327.6,131.6z"/>
		<path class="st13" d="M294.9,163.8h-8.2l-2.2-7.7c-0.4-1.5-2.6-1.5-3,0l-2.1,7.6h-8.3c-1.5,0-2.2,1.9-1,2.8l6.7,5.2l-2.6,7.8
			c-0.5,1.5,1.3,2.7,2.5,1.7l6.5-5.8l6.9,5.6c1.3,0.9,3-0.3,2.4-1.8l-3-7.5l6.4-5.2C297,165.7,296.4,163.8,294.9,163.8z"/>
	</g>
</g>
<g>
	
		<linearGradient id="SVGID_2_" gradientUnits="userSpaceOnUse" x1="548.5842" y1="614.6673" x2="1137.0978" y2="-61.2737" gradientTransform="matrix(1 0 0 -1 0 1058.504)">
		<stop  offset="0" style="stop-color:#1A1E21"/>
		<stop  offset="1" style="stop-color:#06060A"/>
	</linearGradient>
	<path class="st14" d="M532.1,312.4h372.2c77.4,0,140.1,62.7,140.1,140.1v372.2c0,77.4-62.7,140.1-140.1,140.1H532.1
		c-77.4,0-140.1-62.7-140.1-140.1V452.5C392,375.1,454.7,312.4,532.1,312.4z"/>
	<path class="st11" d="M822.7,662.7c0,66-47.3,120.1-105,120.1c-57.8,0-105-54-105-120.1c0-66,105-210.1,105-210.1
		S822.7,596.7,822.7,662.7z"/>
</g>
<g id="Euro" class="st0">
	<path class="st15" d="M895,964.9H542.4c-82.8,0-150-67.2-150-150V462.4c0-82.8,67.2-150,150-150h352.5c82.8,0,150,67.2,150,150
		v352.5C1045,897.8,977.8,964.9,895,964.9z"/>
	<g class="st4">
		<g>
			<path class="st16" d="M639.9,463.2l4.2,14.6h15.6c2.8,0,4.1,3.5,1.9,5.3l-12.3,10l5.3,14.6c1,2.8-2.2,5.2-4.6,3.4l-12.5-9.5
				l-12.3,9.7c-2.3,1.8-5.6-0.4-4.7-3.2l4.6-15l-12.8-10c-2.3-1.8-1-5.4,1.9-5.4h15.9l4.1-14.4C634.9,460.4,639,460.3,639.9,463.2z"
				/>
			<path class="st16" d="M639.9,766l4.2,14.6h15.6c2.8,0,4.1,3.5,1.9,5.3l-12.3,10l5.3,14.6c1,2.8-2.2,5.2-4.6,3.4l-12.5-9.5
				l-12.3,9.7c-2.3,1.8-5.6-0.4-4.7-3.2l4.6-15l-12.8-10c-2.3-1.8-1-5.4,1.9-5.4h15.9l4.1-14.4C634.9,763.1,639,763.1,639.9,766z"/>
			<path class="st16" d="M575.9,527.2l4.2,14.6h15.6c2.8,0,4.1,3.5,1.9,5.3l-12.3,10l5.3,14.6c1,2.8-2.2,5.2-4.6,3.4l-12.5-9.5
				l-12.3,9.7c-2.3,1.8-5.6-0.4-4.7-3.2l4.6-15l-12.8-10c-2.3-1.8-1-5.4,1.9-5.4h15.9l4.1-14.4C571,524.3,575.1,524.3,575.9,527.2z"
				/>
			<path class="st16" d="M575.9,701.8l4.2,14.6h15.6c2.8,0,4.1,3.5,1.9,5.3l-12.3,10l5.3,14.6c1,2.8-2.2,5.2-4.6,3.4l-12.5-9.5
				l-12.3,9.7c-2.3,1.8-5.6-0.4-4.7-3.2l4.6-15l-12.8-10c-2.3-1.8-1-5.4,1.9-5.4h15.9l4.1-14.4C571,699,575.1,698.9,575.9,701.8z"/>
			<path class="st16" d="M549.9,618.4l4.2,14.6h15.6c2.8,0,4.1,3.5,1.9,5.3l-12.3,10l5.3,14.6c1,2.8-2.2,5.2-4.6,3.4l-12.5-9.5
				l-12.3,9.7c-2.3,1.8-5.6-0.4-4.7-3.2l4.6-15l-12.8-10c-2.3-1.8-1-5.4,1.9-5.4h15.9l4.1-14.4C545,615.5,549.1,615.5,549.9,618.4z"
				/>
			<path class="st16" d="M724.5,443.7l4.2,14.6h15.6c2.8,0,4.1,3.5,1.9,5.3l-12.3,10l5.3,14.6c1,2.8-2.2,5.2-4.6,3.4l-12.5-9.5
				l-12.3,9.7c-2.3,1.8-5.6-0.4-4.7-3.2l4.6-15l-12.8-10c-2.3-1.8-1-5.4,1.9-5.4h15.9l4.1-14.4C719.6,440.8,723.7,440.8,724.5,443.7
				z"/>
			<path class="st16" d="M724.5,792.9l4.2,14.6h15.6c2.8,0,4.1,3.5,1.9,5.3l-12.3,10l5.3,14.6c1,2.8-2.2,5.2-4.6,3.4l-12.5-9.5
				l-12.3,9.7c-2.3,1.8-5.6-0.4-4.7-3.2l4.6-15l-12.8-10c-2.3-1.8-1-5.4,1.9-5.4h15.9l4.1-14.4C719.6,790,723.7,790,724.5,792.9z"/>
		</g>
		<g>
			<path class="st16" d="M808.8,463.2l-4.2,14.6H789c-2.8,0-4.1,3.5-1.9,5.3l12.3,10l-5.3,14.6c-1,2.8,2.2,5.2,4.6,3.4l12.5-9.5
				l12.3,9.7c2.3,1.8,5.6-0.4,4.7-3.2l-4.6-15l12.8-10c2.3-1.8,1-5.4-1.9-5.4h-15.9l-4.1-14.4C813.8,460.4,809.6,460.3,808.8,463.2z
				"/>
			<path class="st16" d="M808.8,766l-4.2,14.6H789c-2.8,0-4.1,3.5-1.9,5.3l12.3,10l-5.3,14.6c-1,2.8,2.2,5.2,4.6,3.4l12.5-9.5
				l12.3,9.7c2.3,1.8,5.6-0.4,4.7-3.2l-4.6-15l12.8-10c2.3-1.8,1-5.4-1.9-5.4h-15.9l-4.1-14.4C813.8,763.1,809.6,763.1,808.8,766z"
				/>
			<path class="st16" d="M872.8,527.2l-4.2,14.6H853c-2.8,0-4.1,3.5-1.9,5.3l12.3,10l-5.3,14.6c-1,2.8,2.2,5.2,4.6,3.4l12.5-9.5
				l12.3,9.7c2.3,1.8,5.6-0.4,4.7-3.2l-4.6-15l12.8-10c2.3-1.8,1-5.4-1.9-5.4h-15.9l-4.1-14.4C877.7,524.3,873.6,524.3,872.8,527.2z
				"/>
			<path class="st16" d="M872.8,701.8l-4.2,14.6H853c-2.8,0-4.1,3.5-1.9,5.3l12.3,10l-5.3,14.6c-1,2.8,2.2,5.2,4.6,3.4l12.5-9.5
				l12.3,9.7c2.3,1.8,5.6-0.4,4.7-3.2l-4.6-15l12.8-10c2.3-1.8,1-5.4-1.9-5.4h-15.9l-4.1-14.4C877.7,699,873.6,698.9,872.8,701.8z"
				/>
			<path class="st16" d="M898.8,618.4l-4.2,14.6H879c-2.8,0-4.1,3.5-1.9,5.3l12.3,10l-5.3,14.6c-1,2.8,2.2,5.2,4.6,3.4l12.5-9.5
				l12.3,9.7c2.3,1.8,5.6-0.4,4.7-3.2l-4.6-15l12.8-10c2.3-1.8,1-5.4-1.9-5.4h-15.9l-4.1-14.4C903.7,615.5,899.6,615.5,898.8,618.4z
				"/>
		</g>
	</g>
</g>
<g>
	<polygon class="st17" points="-619.4,470.5 -697.1,600.2 -619.4,565.4 	"/>
	<polygon class="st18" points="-697.1,600.2 -619.4,647.6 -619.4,565.4 	"/>
	<polygon class="st17" points="-697.1,616.1 -619.4,726.5 -619.4,662.1 	"/>
	<polygon class="st19" points="-541.2,600.2 -619.4,470.5 -619.4,565.4 	"/>
	<polygon class="st20" points="-541.2,600.2 -619.4,565.4 -619.4,647.6 -619.2,647.7 	"/>
	<polygon class="st21" points="-619.4,662.1 -619.4,726.5 -541.2,616.1 	"/>
</g>
<path class="st22" d="M-1810.8-69h425.1v425.1h-425.1V-69z"/>
<path class="st23" d="M-1551,25.4h165.3V-69H-1551V25.4z M-1810.8,356.1h425.1v-94.5h-425.1V356.1z M-1551,190.8h165.3V96.3H-1551
	V190.8z"/>
<path class="st24" d="M-1810.8-69h259.8v259.8h-259.8V-69z"/>
</svg>
